%TF.GenerationSoftware,KiCad,Pcbnew,(5.1.7)-1*%
%TF.CreationDate,2020-12-08T09:59:05+02:00*%
%TF.ProjectId,Single_transistor_AMP,53696e67-6c65-45f7-9472-616e73697374,V1.0*%
%TF.SameCoordinates,Original*%
%TF.FileFunction,Copper,L2,Bot*%
%TF.FilePolarity,Positive*%
%FSLAX46Y46*%
G04 Gerber Fmt 4.6, Leading zero omitted, Abs format (unit mm)*
G04 Created by KiCad (PCBNEW (5.1.7)-1) date 2020-12-08 09:59:05*
%MOMM*%
%LPD*%
G01*
G04 APERTURE LIST*
%TA.AperFunction,ComponentPad*%
%ADD10O,1.050000X1.500000*%
%TD*%
%TA.AperFunction,ComponentPad*%
%ADD11R,1.050000X1.500000*%
%TD*%
%TA.AperFunction,ComponentPad*%
%ADD12O,1.700000X1.700000*%
%TD*%
%TA.AperFunction,ComponentPad*%
%ADD13R,1.700000X1.700000*%
%TD*%
%TA.AperFunction,Conductor*%
%ADD14C,0.254000*%
%TD*%
%TA.AperFunction,Conductor*%
%ADD15C,0.100000*%
%TD*%
G04 APERTURE END LIST*
D10*
%TO.P,Q1,2*%
%TO.N,Net-(C1-Pad1)*%
X126746000Y-79248000D03*
%TO.P,Q1,3*%
%TO.N,Net-(Q1-Pad3)*%
X128016000Y-79248000D03*
D11*
%TO.P,Q1,1*%
%TO.N,Net-(Q1-Pad1)*%
X125476000Y-79248000D03*
%TD*%
%TO.P,Q2,1*%
%TO.N,Net-(Q2-Pad1)*%
X144272000Y-78994000D03*
D10*
%TO.P,Q2,3*%
%TO.N,Net-(C3-Pad2)*%
X146812000Y-78994000D03*
%TO.P,Q2,2*%
%TO.N,Net-(Q1-Pad3)*%
X145542000Y-78994000D03*
%TD*%
D12*
%TO.P,J1,2*%
%TO.N,Net-(C1-Pad2)*%
X116840000Y-83820000D03*
D13*
%TO.P,J1,1*%
%TO.N,GND*%
X116840000Y-86360000D03*
%TD*%
%TO.P,J3,1*%
%TO.N,Net-(C3-Pad1)*%
X155194000Y-89408000D03*
D12*
%TO.P,J3,2*%
%TO.N,GND*%
X152654000Y-89408000D03*
%TD*%
D13*
%TO.P,J2,1*%
%TO.N,Net-(J2-Pad1)*%
X146304000Y-89408000D03*
D12*
%TO.P,J2,2*%
%TO.N,GND*%
X143764000Y-89408000D03*
%TD*%
D14*
%TO.N,GND*%
X140147627Y-74017922D02*
X143240633Y-74298896D01*
X146315502Y-74736001D01*
X149364316Y-75328112D01*
X152379267Y-76073712D01*
X155352627Y-76970891D01*
X158276796Y-78017355D01*
X161147514Y-79211768D01*
X162408000Y-79796415D01*
X162408001Y-94501100D01*
X110337200Y-94501100D01*
X110337200Y-91713674D01*
X110337204Y-91713633D01*
X110337200Y-91682570D01*
X110337200Y-91648881D01*
X110337196Y-91648837D01*
X110336954Y-89764891D01*
X142322519Y-89764891D01*
X142419843Y-90039252D01*
X142568822Y-90289355D01*
X142763731Y-90505588D01*
X142997080Y-90679641D01*
X143259901Y-90804825D01*
X143407110Y-90849476D01*
X143637000Y-90728155D01*
X143637000Y-89535000D01*
X142443186Y-89535000D01*
X142322519Y-89764891D01*
X110336954Y-89764891D01*
X110336863Y-89051109D01*
X142322519Y-89051109D01*
X142443186Y-89281000D01*
X143637000Y-89281000D01*
X143637000Y-88087845D01*
X143891000Y-88087845D01*
X143891000Y-89281000D01*
X143911000Y-89281000D01*
X143911000Y-89535000D01*
X143891000Y-89535000D01*
X143891000Y-90728155D01*
X144120890Y-90849476D01*
X144268099Y-90804825D01*
X144530920Y-90679641D01*
X144764269Y-90505588D01*
X144840034Y-90421534D01*
X144864498Y-90502180D01*
X144923463Y-90612494D01*
X145002815Y-90709185D01*
X145099506Y-90788537D01*
X145209820Y-90847502D01*
X145329518Y-90883812D01*
X145454000Y-90896072D01*
X147154000Y-90896072D01*
X147278482Y-90883812D01*
X147398180Y-90847502D01*
X147508494Y-90788537D01*
X147605185Y-90709185D01*
X147684537Y-90612494D01*
X147743502Y-90502180D01*
X147779812Y-90382482D01*
X147792072Y-90258000D01*
X147792072Y-89764891D01*
X151212519Y-89764891D01*
X151309843Y-90039252D01*
X151458822Y-90289355D01*
X151653731Y-90505588D01*
X151887080Y-90679641D01*
X152149901Y-90804825D01*
X152297110Y-90849476D01*
X152527000Y-90728155D01*
X152527000Y-89535000D01*
X151333186Y-89535000D01*
X151212519Y-89764891D01*
X147792072Y-89764891D01*
X147792072Y-89051109D01*
X151212519Y-89051109D01*
X151333186Y-89281000D01*
X152527000Y-89281000D01*
X152527000Y-88087845D01*
X152781000Y-88087845D01*
X152781000Y-89281000D01*
X152801000Y-89281000D01*
X152801000Y-89535000D01*
X152781000Y-89535000D01*
X152781000Y-90728155D01*
X153010890Y-90849476D01*
X153158099Y-90804825D01*
X153420920Y-90679641D01*
X153654269Y-90505588D01*
X153730034Y-90421534D01*
X153754498Y-90502180D01*
X153813463Y-90612494D01*
X153892815Y-90709185D01*
X153989506Y-90788537D01*
X154099820Y-90847502D01*
X154219518Y-90883812D01*
X154344000Y-90896072D01*
X156044000Y-90896072D01*
X156168482Y-90883812D01*
X156288180Y-90847502D01*
X156398494Y-90788537D01*
X156495185Y-90709185D01*
X156574537Y-90612494D01*
X156633502Y-90502180D01*
X156669812Y-90382482D01*
X156682072Y-90258000D01*
X156682072Y-88558000D01*
X156669812Y-88433518D01*
X156633502Y-88313820D01*
X156574537Y-88203506D01*
X156495185Y-88106815D01*
X156398494Y-88027463D01*
X156288180Y-87968498D01*
X156168482Y-87932188D01*
X156044000Y-87919928D01*
X154344000Y-87919928D01*
X154219518Y-87932188D01*
X154099820Y-87968498D01*
X153989506Y-88027463D01*
X153892815Y-88106815D01*
X153813463Y-88203506D01*
X153754498Y-88313820D01*
X153730034Y-88394466D01*
X153654269Y-88310412D01*
X153420920Y-88136359D01*
X153158099Y-88011175D01*
X153010890Y-87966524D01*
X152781000Y-88087845D01*
X152527000Y-88087845D01*
X152297110Y-87966524D01*
X152149901Y-88011175D01*
X151887080Y-88136359D01*
X151653731Y-88310412D01*
X151458822Y-88526645D01*
X151309843Y-88776748D01*
X151212519Y-89051109D01*
X147792072Y-89051109D01*
X147792072Y-88558000D01*
X147779812Y-88433518D01*
X147743502Y-88313820D01*
X147684537Y-88203506D01*
X147605185Y-88106815D01*
X147508494Y-88027463D01*
X147398180Y-87968498D01*
X147278482Y-87932188D01*
X147154000Y-87919928D01*
X145454000Y-87919928D01*
X145329518Y-87932188D01*
X145209820Y-87968498D01*
X145099506Y-88027463D01*
X145002815Y-88106815D01*
X144923463Y-88203506D01*
X144864498Y-88313820D01*
X144840034Y-88394466D01*
X144764269Y-88310412D01*
X144530920Y-88136359D01*
X144268099Y-88011175D01*
X144120890Y-87966524D01*
X143891000Y-88087845D01*
X143637000Y-88087845D01*
X143407110Y-87966524D01*
X143259901Y-88011175D01*
X142997080Y-88136359D01*
X142763731Y-88310412D01*
X142568822Y-88526645D01*
X142419843Y-88776748D01*
X142322519Y-89051109D01*
X110336863Y-89051109D01*
X110336625Y-87210000D01*
X115351928Y-87210000D01*
X115364188Y-87334482D01*
X115400498Y-87454180D01*
X115459463Y-87564494D01*
X115538815Y-87661185D01*
X115635506Y-87740537D01*
X115745820Y-87799502D01*
X115865518Y-87835812D01*
X115990000Y-87848072D01*
X116554250Y-87845000D01*
X116713000Y-87686250D01*
X116713000Y-86487000D01*
X116967000Y-86487000D01*
X116967000Y-87686250D01*
X117125750Y-87845000D01*
X117690000Y-87848072D01*
X117814482Y-87835812D01*
X117934180Y-87799502D01*
X118044494Y-87740537D01*
X118141185Y-87661185D01*
X118220537Y-87564494D01*
X118279502Y-87454180D01*
X118315812Y-87334482D01*
X118328072Y-87210000D01*
X118325000Y-86645750D01*
X118166250Y-86487000D01*
X116967000Y-86487000D01*
X116713000Y-86487000D01*
X115513750Y-86487000D01*
X115355000Y-86645750D01*
X115351928Y-87210000D01*
X110336625Y-87210000D01*
X110336406Y-85510000D01*
X115351928Y-85510000D01*
X115355000Y-86074250D01*
X115513750Y-86233000D01*
X116713000Y-86233000D01*
X116713000Y-86213000D01*
X116967000Y-86213000D01*
X116967000Y-86233000D01*
X118166250Y-86233000D01*
X118325000Y-86074250D01*
X118328072Y-85510000D01*
X118315812Y-85385518D01*
X118279502Y-85265820D01*
X118220537Y-85155506D01*
X118141185Y-85058815D01*
X118044494Y-84979463D01*
X117934180Y-84920498D01*
X117861620Y-84898487D01*
X117993475Y-84766632D01*
X118155990Y-84523411D01*
X118267932Y-84253158D01*
X118325000Y-83966260D01*
X118325000Y-83673740D01*
X118267932Y-83386842D01*
X118155990Y-83116589D01*
X117993475Y-82873368D01*
X117786632Y-82666525D01*
X117543411Y-82504010D01*
X117273158Y-82392068D01*
X116986260Y-82335000D01*
X116693740Y-82335000D01*
X116406842Y-82392068D01*
X116136589Y-82504010D01*
X115893368Y-82666525D01*
X115686525Y-82873368D01*
X115524010Y-83116589D01*
X115412068Y-83386842D01*
X115355000Y-83673740D01*
X115355000Y-83966260D01*
X115412068Y-84253158D01*
X115524010Y-84523411D01*
X115686525Y-84766632D01*
X115818380Y-84898487D01*
X115745820Y-84920498D01*
X115635506Y-84979463D01*
X115538815Y-85058815D01*
X115459463Y-85155506D01*
X115400498Y-85265820D01*
X115364188Y-85385518D01*
X115351928Y-85510000D01*
X110336406Y-85510000D01*
X110335643Y-79587918D01*
X112798775Y-78501065D01*
X112806797Y-78498000D01*
X124312928Y-78498000D01*
X124312928Y-79998000D01*
X124325188Y-80122482D01*
X124361498Y-80242180D01*
X124420463Y-80352494D01*
X124499815Y-80449185D01*
X124596506Y-80528537D01*
X124706820Y-80587502D01*
X124826518Y-80623812D01*
X124951000Y-80636072D01*
X126001000Y-80636072D01*
X126125482Y-80623812D01*
X126245180Y-80587502D01*
X126309902Y-80552907D01*
X126518601Y-80616215D01*
X126746000Y-80638612D01*
X126973400Y-80616215D01*
X127192060Y-80549885D01*
X127381001Y-80448894D01*
X127569941Y-80549885D01*
X127788601Y-80616215D01*
X128016000Y-80638612D01*
X128243400Y-80616215D01*
X128462060Y-80549885D01*
X128663579Y-80442171D01*
X128840212Y-80297212D01*
X128985171Y-80120579D01*
X129092885Y-79919059D01*
X129159215Y-79700399D01*
X129176000Y-79529978D01*
X129176000Y-78966021D01*
X129159215Y-78795600D01*
X129092885Y-78576940D01*
X128985171Y-78375421D01*
X128877317Y-78244000D01*
X143108928Y-78244000D01*
X143108928Y-79744000D01*
X143121188Y-79868482D01*
X143157498Y-79988180D01*
X143216463Y-80098494D01*
X143295815Y-80195185D01*
X143392506Y-80274537D01*
X143502820Y-80333502D01*
X143622518Y-80369812D01*
X143747000Y-80382072D01*
X144797000Y-80382072D01*
X144921482Y-80369812D01*
X145041180Y-80333502D01*
X145105902Y-80298907D01*
X145314601Y-80362215D01*
X145542000Y-80384612D01*
X145769400Y-80362215D01*
X145988060Y-80295885D01*
X146177001Y-80194894D01*
X146365941Y-80295885D01*
X146584601Y-80362215D01*
X146812000Y-80384612D01*
X147039400Y-80362215D01*
X147258060Y-80295885D01*
X147459579Y-80188171D01*
X147636212Y-80043212D01*
X147781171Y-79866579D01*
X147888885Y-79665059D01*
X147955215Y-79446399D01*
X147972000Y-79275978D01*
X147972000Y-78712021D01*
X147955215Y-78541600D01*
X147888885Y-78322940D01*
X147781171Y-78121421D01*
X147636212Y-77944788D01*
X147459578Y-77799829D01*
X147258059Y-77692115D01*
X147039399Y-77625785D01*
X146812000Y-77603388D01*
X146584600Y-77625785D01*
X146365940Y-77692115D01*
X146176999Y-77793106D01*
X145988059Y-77692115D01*
X145769399Y-77625785D01*
X145542000Y-77603388D01*
X145314600Y-77625785D01*
X145105902Y-77689093D01*
X145041180Y-77654498D01*
X144921482Y-77618188D01*
X144797000Y-77605928D01*
X143747000Y-77605928D01*
X143622518Y-77618188D01*
X143502820Y-77654498D01*
X143392506Y-77713463D01*
X143295815Y-77792815D01*
X143216463Y-77889506D01*
X143157498Y-77999820D01*
X143121188Y-78119518D01*
X143108928Y-78244000D01*
X128877317Y-78244000D01*
X128840212Y-78198788D01*
X128663578Y-78053829D01*
X128462059Y-77946115D01*
X128243399Y-77879785D01*
X128016000Y-77857388D01*
X127788600Y-77879785D01*
X127569940Y-77946115D01*
X127381000Y-78047106D01*
X127192059Y-77946115D01*
X126973399Y-77879785D01*
X126746000Y-77857388D01*
X126518600Y-77879785D01*
X126309902Y-77943093D01*
X126245180Y-77908498D01*
X126125482Y-77872188D01*
X126001000Y-77859928D01*
X124951000Y-77859928D01*
X124826518Y-77872188D01*
X124706820Y-77908498D01*
X124596506Y-77967463D01*
X124499815Y-78046815D01*
X124420463Y-78143506D01*
X124361498Y-78253820D01*
X124325188Y-78373518D01*
X124312928Y-78498000D01*
X112806797Y-78498000D01*
X115699999Y-77392650D01*
X118653616Y-76432426D01*
X121652023Y-75622868D01*
X124687563Y-74966040D01*
X127752405Y-74463637D01*
X130838785Y-74116932D01*
X133938708Y-73926822D01*
X137044318Y-73893790D01*
X140147627Y-74017922D01*
%TA.AperFunction,Conductor*%
D15*
G36*
X140147627Y-74017922D02*
G01*
X143240633Y-74298896D01*
X146315502Y-74736001D01*
X149364316Y-75328112D01*
X152379267Y-76073712D01*
X155352627Y-76970891D01*
X158276796Y-78017355D01*
X161147514Y-79211768D01*
X162408000Y-79796415D01*
X162408001Y-94501100D01*
X110337200Y-94501100D01*
X110337200Y-91713674D01*
X110337204Y-91713633D01*
X110337200Y-91682570D01*
X110337200Y-91648881D01*
X110337196Y-91648837D01*
X110336954Y-89764891D01*
X142322519Y-89764891D01*
X142419843Y-90039252D01*
X142568822Y-90289355D01*
X142763731Y-90505588D01*
X142997080Y-90679641D01*
X143259901Y-90804825D01*
X143407110Y-90849476D01*
X143637000Y-90728155D01*
X143637000Y-89535000D01*
X142443186Y-89535000D01*
X142322519Y-89764891D01*
X110336954Y-89764891D01*
X110336863Y-89051109D01*
X142322519Y-89051109D01*
X142443186Y-89281000D01*
X143637000Y-89281000D01*
X143637000Y-88087845D01*
X143891000Y-88087845D01*
X143891000Y-89281000D01*
X143911000Y-89281000D01*
X143911000Y-89535000D01*
X143891000Y-89535000D01*
X143891000Y-90728155D01*
X144120890Y-90849476D01*
X144268099Y-90804825D01*
X144530920Y-90679641D01*
X144764269Y-90505588D01*
X144840034Y-90421534D01*
X144864498Y-90502180D01*
X144923463Y-90612494D01*
X145002815Y-90709185D01*
X145099506Y-90788537D01*
X145209820Y-90847502D01*
X145329518Y-90883812D01*
X145454000Y-90896072D01*
X147154000Y-90896072D01*
X147278482Y-90883812D01*
X147398180Y-90847502D01*
X147508494Y-90788537D01*
X147605185Y-90709185D01*
X147684537Y-90612494D01*
X147743502Y-90502180D01*
X147779812Y-90382482D01*
X147792072Y-90258000D01*
X147792072Y-89764891D01*
X151212519Y-89764891D01*
X151309843Y-90039252D01*
X151458822Y-90289355D01*
X151653731Y-90505588D01*
X151887080Y-90679641D01*
X152149901Y-90804825D01*
X152297110Y-90849476D01*
X152527000Y-90728155D01*
X152527000Y-89535000D01*
X151333186Y-89535000D01*
X151212519Y-89764891D01*
X147792072Y-89764891D01*
X147792072Y-89051109D01*
X151212519Y-89051109D01*
X151333186Y-89281000D01*
X152527000Y-89281000D01*
X152527000Y-88087845D01*
X152781000Y-88087845D01*
X152781000Y-89281000D01*
X152801000Y-89281000D01*
X152801000Y-89535000D01*
X152781000Y-89535000D01*
X152781000Y-90728155D01*
X153010890Y-90849476D01*
X153158099Y-90804825D01*
X153420920Y-90679641D01*
X153654269Y-90505588D01*
X153730034Y-90421534D01*
X153754498Y-90502180D01*
X153813463Y-90612494D01*
X153892815Y-90709185D01*
X153989506Y-90788537D01*
X154099820Y-90847502D01*
X154219518Y-90883812D01*
X154344000Y-90896072D01*
X156044000Y-90896072D01*
X156168482Y-90883812D01*
X156288180Y-90847502D01*
X156398494Y-90788537D01*
X156495185Y-90709185D01*
X156574537Y-90612494D01*
X156633502Y-90502180D01*
X156669812Y-90382482D01*
X156682072Y-90258000D01*
X156682072Y-88558000D01*
X156669812Y-88433518D01*
X156633502Y-88313820D01*
X156574537Y-88203506D01*
X156495185Y-88106815D01*
X156398494Y-88027463D01*
X156288180Y-87968498D01*
X156168482Y-87932188D01*
X156044000Y-87919928D01*
X154344000Y-87919928D01*
X154219518Y-87932188D01*
X154099820Y-87968498D01*
X153989506Y-88027463D01*
X153892815Y-88106815D01*
X153813463Y-88203506D01*
X153754498Y-88313820D01*
X153730034Y-88394466D01*
X153654269Y-88310412D01*
X153420920Y-88136359D01*
X153158099Y-88011175D01*
X153010890Y-87966524D01*
X152781000Y-88087845D01*
X152527000Y-88087845D01*
X152297110Y-87966524D01*
X152149901Y-88011175D01*
X151887080Y-88136359D01*
X151653731Y-88310412D01*
X151458822Y-88526645D01*
X151309843Y-88776748D01*
X151212519Y-89051109D01*
X147792072Y-89051109D01*
X147792072Y-88558000D01*
X147779812Y-88433518D01*
X147743502Y-88313820D01*
X147684537Y-88203506D01*
X147605185Y-88106815D01*
X147508494Y-88027463D01*
X147398180Y-87968498D01*
X147278482Y-87932188D01*
X147154000Y-87919928D01*
X145454000Y-87919928D01*
X145329518Y-87932188D01*
X145209820Y-87968498D01*
X145099506Y-88027463D01*
X145002815Y-88106815D01*
X144923463Y-88203506D01*
X144864498Y-88313820D01*
X144840034Y-88394466D01*
X144764269Y-88310412D01*
X144530920Y-88136359D01*
X144268099Y-88011175D01*
X144120890Y-87966524D01*
X143891000Y-88087845D01*
X143637000Y-88087845D01*
X143407110Y-87966524D01*
X143259901Y-88011175D01*
X142997080Y-88136359D01*
X142763731Y-88310412D01*
X142568822Y-88526645D01*
X142419843Y-88776748D01*
X142322519Y-89051109D01*
X110336863Y-89051109D01*
X110336625Y-87210000D01*
X115351928Y-87210000D01*
X115364188Y-87334482D01*
X115400498Y-87454180D01*
X115459463Y-87564494D01*
X115538815Y-87661185D01*
X115635506Y-87740537D01*
X115745820Y-87799502D01*
X115865518Y-87835812D01*
X115990000Y-87848072D01*
X116554250Y-87845000D01*
X116713000Y-87686250D01*
X116713000Y-86487000D01*
X116967000Y-86487000D01*
X116967000Y-87686250D01*
X117125750Y-87845000D01*
X117690000Y-87848072D01*
X117814482Y-87835812D01*
X117934180Y-87799502D01*
X118044494Y-87740537D01*
X118141185Y-87661185D01*
X118220537Y-87564494D01*
X118279502Y-87454180D01*
X118315812Y-87334482D01*
X118328072Y-87210000D01*
X118325000Y-86645750D01*
X118166250Y-86487000D01*
X116967000Y-86487000D01*
X116713000Y-86487000D01*
X115513750Y-86487000D01*
X115355000Y-86645750D01*
X115351928Y-87210000D01*
X110336625Y-87210000D01*
X110336406Y-85510000D01*
X115351928Y-85510000D01*
X115355000Y-86074250D01*
X115513750Y-86233000D01*
X116713000Y-86233000D01*
X116713000Y-86213000D01*
X116967000Y-86213000D01*
X116967000Y-86233000D01*
X118166250Y-86233000D01*
X118325000Y-86074250D01*
X118328072Y-85510000D01*
X118315812Y-85385518D01*
X118279502Y-85265820D01*
X118220537Y-85155506D01*
X118141185Y-85058815D01*
X118044494Y-84979463D01*
X117934180Y-84920498D01*
X117861620Y-84898487D01*
X117993475Y-84766632D01*
X118155990Y-84523411D01*
X118267932Y-84253158D01*
X118325000Y-83966260D01*
X118325000Y-83673740D01*
X118267932Y-83386842D01*
X118155990Y-83116589D01*
X117993475Y-82873368D01*
X117786632Y-82666525D01*
X117543411Y-82504010D01*
X117273158Y-82392068D01*
X116986260Y-82335000D01*
X116693740Y-82335000D01*
X116406842Y-82392068D01*
X116136589Y-82504010D01*
X115893368Y-82666525D01*
X115686525Y-82873368D01*
X115524010Y-83116589D01*
X115412068Y-83386842D01*
X115355000Y-83673740D01*
X115355000Y-83966260D01*
X115412068Y-84253158D01*
X115524010Y-84523411D01*
X115686525Y-84766632D01*
X115818380Y-84898487D01*
X115745820Y-84920498D01*
X115635506Y-84979463D01*
X115538815Y-85058815D01*
X115459463Y-85155506D01*
X115400498Y-85265820D01*
X115364188Y-85385518D01*
X115351928Y-85510000D01*
X110336406Y-85510000D01*
X110335643Y-79587918D01*
X112798775Y-78501065D01*
X112806797Y-78498000D01*
X124312928Y-78498000D01*
X124312928Y-79998000D01*
X124325188Y-80122482D01*
X124361498Y-80242180D01*
X124420463Y-80352494D01*
X124499815Y-80449185D01*
X124596506Y-80528537D01*
X124706820Y-80587502D01*
X124826518Y-80623812D01*
X124951000Y-80636072D01*
X126001000Y-80636072D01*
X126125482Y-80623812D01*
X126245180Y-80587502D01*
X126309902Y-80552907D01*
X126518601Y-80616215D01*
X126746000Y-80638612D01*
X126973400Y-80616215D01*
X127192060Y-80549885D01*
X127381001Y-80448894D01*
X127569941Y-80549885D01*
X127788601Y-80616215D01*
X128016000Y-80638612D01*
X128243400Y-80616215D01*
X128462060Y-80549885D01*
X128663579Y-80442171D01*
X128840212Y-80297212D01*
X128985171Y-80120579D01*
X129092885Y-79919059D01*
X129159215Y-79700399D01*
X129176000Y-79529978D01*
X129176000Y-78966021D01*
X129159215Y-78795600D01*
X129092885Y-78576940D01*
X128985171Y-78375421D01*
X128877317Y-78244000D01*
X143108928Y-78244000D01*
X143108928Y-79744000D01*
X143121188Y-79868482D01*
X143157498Y-79988180D01*
X143216463Y-80098494D01*
X143295815Y-80195185D01*
X143392506Y-80274537D01*
X143502820Y-80333502D01*
X143622518Y-80369812D01*
X143747000Y-80382072D01*
X144797000Y-80382072D01*
X144921482Y-80369812D01*
X145041180Y-80333502D01*
X145105902Y-80298907D01*
X145314601Y-80362215D01*
X145542000Y-80384612D01*
X145769400Y-80362215D01*
X145988060Y-80295885D01*
X146177001Y-80194894D01*
X146365941Y-80295885D01*
X146584601Y-80362215D01*
X146812000Y-80384612D01*
X147039400Y-80362215D01*
X147258060Y-80295885D01*
X147459579Y-80188171D01*
X147636212Y-80043212D01*
X147781171Y-79866579D01*
X147888885Y-79665059D01*
X147955215Y-79446399D01*
X147972000Y-79275978D01*
X147972000Y-78712021D01*
X147955215Y-78541600D01*
X147888885Y-78322940D01*
X147781171Y-78121421D01*
X147636212Y-77944788D01*
X147459578Y-77799829D01*
X147258059Y-77692115D01*
X147039399Y-77625785D01*
X146812000Y-77603388D01*
X146584600Y-77625785D01*
X146365940Y-77692115D01*
X146176999Y-77793106D01*
X145988059Y-77692115D01*
X145769399Y-77625785D01*
X145542000Y-77603388D01*
X145314600Y-77625785D01*
X145105902Y-77689093D01*
X145041180Y-77654498D01*
X144921482Y-77618188D01*
X144797000Y-77605928D01*
X143747000Y-77605928D01*
X143622518Y-77618188D01*
X143502820Y-77654498D01*
X143392506Y-77713463D01*
X143295815Y-77792815D01*
X143216463Y-77889506D01*
X143157498Y-77999820D01*
X143121188Y-78119518D01*
X143108928Y-78244000D01*
X128877317Y-78244000D01*
X128840212Y-78198788D01*
X128663578Y-78053829D01*
X128462059Y-77946115D01*
X128243399Y-77879785D01*
X128016000Y-77857388D01*
X127788600Y-77879785D01*
X127569940Y-77946115D01*
X127381000Y-78047106D01*
X127192059Y-77946115D01*
X126973399Y-77879785D01*
X126746000Y-77857388D01*
X126518600Y-77879785D01*
X126309902Y-77943093D01*
X126245180Y-77908498D01*
X126125482Y-77872188D01*
X126001000Y-77859928D01*
X124951000Y-77859928D01*
X124826518Y-77872188D01*
X124706820Y-77908498D01*
X124596506Y-77967463D01*
X124499815Y-78046815D01*
X124420463Y-78143506D01*
X124361498Y-78253820D01*
X124325188Y-78373518D01*
X124312928Y-78498000D01*
X112806797Y-78498000D01*
X115699999Y-77392650D01*
X118653616Y-76432426D01*
X121652023Y-75622868D01*
X124687563Y-74966040D01*
X127752405Y-74463637D01*
X130838785Y-74116932D01*
X133938708Y-73926822D01*
X137044318Y-73893790D01*
X140147627Y-74017922D01*
G37*
%TD.AperFunction*%
%TD*%
M02*
