%TF.GenerationSoftware,KiCad,Pcbnew,(5.1.7)-1*%
%TF.CreationDate,2020-12-08T09:59:05+02:00*%
%TF.ProjectId,Single_transistor_AMP,53696e67-6c65-45f7-9472-616e73697374,V1.0*%
%TF.SameCoordinates,Original*%
%TF.FileFunction,Legend,Top*%
%TF.FilePolarity,Positive*%
%FSLAX46Y46*%
G04 Gerber Fmt 4.6, Leading zero omitted, Abs format (unit mm)*
G04 Created by KiCad (PCBNEW (5.1.7)-1) date 2020-12-08 09:59:05*
%MOMM*%
%LPD*%
G01*
G04 APERTURE LIST*
%ADD10C,0.120000*%
%ADD11C,0.150000*%
G04 APERTURE END LIST*
D10*
%TO.C,C1*%
X121165252Y-78513000D02*
X120642748Y-78513000D01*
X121165252Y-79983000D02*
X120642748Y-79983000D01*
%TO.C,C2*%
X133636000Y-82086000D02*
X133136000Y-82086000D01*
X133386000Y-81836000D02*
X133386000Y-82336000D01*
X130630437Y-82576000D02*
X129566000Y-83640437D01*
X133021563Y-82576000D02*
X134086000Y-83640437D01*
X133021563Y-82576000D02*
X132886000Y-82576000D01*
X130630437Y-82576000D02*
X130766000Y-82576000D01*
X129566000Y-83640437D02*
X129566000Y-87096000D01*
X134086000Y-83640437D02*
X134086000Y-87096000D01*
X134086000Y-87096000D02*
X132886000Y-87096000D01*
X129566000Y-87096000D02*
X130766000Y-87096000D01*
%TO.C,C3*%
X155602000Y-85097252D02*
X155602000Y-84574748D01*
X157072000Y-85097252D02*
X157072000Y-84574748D01*
%TO.C,Q1*%
X124946000Y-81098000D02*
X128546000Y-81098000D01*
X124907522Y-81086478D02*
G75*
G02*
X126746000Y-76648000I1838478J1838478D01*
G01*
X128584478Y-81086478D02*
G75*
G03*
X126746000Y-76648000I-1838478J1838478D01*
G01*
%TO.C,Q2*%
X143742000Y-80844000D02*
X147342000Y-80844000D01*
X147380478Y-80832478D02*
G75*
G03*
X145542000Y-76394000I-1838478J1838478D01*
G01*
X143703522Y-80832478D02*
G75*
G02*
X145542000Y-76394000I1838478J1838478D01*
G01*
%TO.C,R1*%
X124868000Y-84608936D02*
X124868000Y-85063064D01*
X126338000Y-84608936D02*
X126338000Y-85063064D01*
%TO.C,R2*%
X146458000Y-85063064D02*
X146458000Y-84608936D01*
X147928000Y-85063064D02*
X147928000Y-84608936D01*
%TO.C,R3*%
X121766000Y-84735936D02*
X121766000Y-85190064D01*
X120296000Y-84735936D02*
X120296000Y-85190064D01*
%TO.C,R4*%
X137187000Y-84608936D02*
X137187000Y-85063064D01*
X138657000Y-84608936D02*
X138657000Y-85063064D01*
%TO.C,R5*%
X151157000Y-85063064D02*
X151157000Y-84608936D01*
X152627000Y-85063064D02*
X152627000Y-84608936D01*
%TO.C,R6*%
X141759000Y-84608936D02*
X141759000Y-85063064D01*
X143229000Y-84608936D02*
X143229000Y-85063064D01*
%TO.C,J1*%
X118170000Y-87690000D02*
X116840000Y-87690000D01*
X118170000Y-86360000D02*
X118170000Y-87690000D01*
X118170000Y-85090000D02*
X115510000Y-85090000D01*
X115510000Y-85090000D02*
X115510000Y-82490000D01*
X118170000Y-85090000D02*
X118170000Y-82490000D01*
X118170000Y-82490000D02*
X115510000Y-82490000D01*
%TO.C,J3*%
X151324000Y-88078000D02*
X151324000Y-90738000D01*
X153924000Y-88078000D02*
X151324000Y-88078000D01*
X153924000Y-90738000D02*
X151324000Y-90738000D01*
X153924000Y-88078000D02*
X153924000Y-90738000D01*
X155194000Y-88078000D02*
X156524000Y-88078000D01*
X156524000Y-88078000D02*
X156524000Y-89408000D01*
%TO.C,J2*%
X142434000Y-88078000D02*
X142434000Y-90738000D01*
X145034000Y-88078000D02*
X142434000Y-88078000D01*
X145034000Y-90738000D02*
X142434000Y-90738000D01*
X145034000Y-88078000D02*
X145034000Y-90738000D01*
X146304000Y-88078000D02*
X147634000Y-88078000D01*
X147634000Y-88078000D02*
X147634000Y-89408000D01*
%TO.C,C1*%
D11*
X118721142Y-79414666D02*
X118768761Y-79462285D01*
X118816380Y-79605142D01*
X118816380Y-79700380D01*
X118768761Y-79843238D01*
X118673523Y-79938476D01*
X118578285Y-79986095D01*
X118387809Y-80033714D01*
X118244952Y-80033714D01*
X118054476Y-79986095D01*
X117959238Y-79938476D01*
X117864000Y-79843238D01*
X117816380Y-79700380D01*
X117816380Y-79605142D01*
X117864000Y-79462285D01*
X117911619Y-79414666D01*
X118816380Y-78462285D02*
X118816380Y-79033714D01*
X118816380Y-78748000D02*
X117816380Y-78748000D01*
X117959238Y-78843238D01*
X118054476Y-78938476D01*
X118102095Y-79033714D01*
%TO.C,C2*%
X129135142Y-85002666D02*
X129182761Y-85050285D01*
X129230380Y-85193142D01*
X129230380Y-85288380D01*
X129182761Y-85431238D01*
X129087523Y-85526476D01*
X128992285Y-85574095D01*
X128801809Y-85621714D01*
X128658952Y-85621714D01*
X128468476Y-85574095D01*
X128373238Y-85526476D01*
X128278000Y-85431238D01*
X128230380Y-85288380D01*
X128230380Y-85193142D01*
X128278000Y-85050285D01*
X128325619Y-85002666D01*
X128325619Y-84621714D02*
X128278000Y-84574095D01*
X128230380Y-84478857D01*
X128230380Y-84240761D01*
X128278000Y-84145523D01*
X128325619Y-84097904D01*
X128420857Y-84050285D01*
X128516095Y-84050285D01*
X128658952Y-84097904D01*
X129230380Y-84669333D01*
X129230380Y-84050285D01*
%TO.C,C3*%
X155014142Y-85002666D02*
X155061761Y-85050285D01*
X155109380Y-85193142D01*
X155109380Y-85288380D01*
X155061761Y-85431238D01*
X154966523Y-85526476D01*
X154871285Y-85574095D01*
X154680809Y-85621714D01*
X154537952Y-85621714D01*
X154347476Y-85574095D01*
X154252238Y-85526476D01*
X154157000Y-85431238D01*
X154109380Y-85288380D01*
X154109380Y-85193142D01*
X154157000Y-85050285D01*
X154204619Y-85002666D01*
X154109380Y-84669333D02*
X154109380Y-84050285D01*
X154490333Y-84383619D01*
X154490333Y-84240761D01*
X154537952Y-84145523D01*
X154585571Y-84097904D01*
X154680809Y-84050285D01*
X154918904Y-84050285D01*
X155014142Y-84097904D01*
X155061761Y-84145523D01*
X155109380Y-84240761D01*
X155109380Y-84526476D01*
X155061761Y-84621714D01*
X155014142Y-84669333D01*
%TO.C,Q1*%
X123737619Y-77311238D02*
X123690000Y-77406476D01*
X123594761Y-77501714D01*
X123451904Y-77644571D01*
X123404285Y-77739809D01*
X123404285Y-77835047D01*
X123642380Y-77787428D02*
X123594761Y-77882666D01*
X123499523Y-77977904D01*
X123309047Y-78025523D01*
X122975714Y-78025523D01*
X122785238Y-77977904D01*
X122690000Y-77882666D01*
X122642380Y-77787428D01*
X122642380Y-77596952D01*
X122690000Y-77501714D01*
X122785238Y-77406476D01*
X122975714Y-77358857D01*
X123309047Y-77358857D01*
X123499523Y-77406476D01*
X123594761Y-77501714D01*
X123642380Y-77596952D01*
X123642380Y-77787428D01*
X123642380Y-76406476D02*
X123642380Y-76977904D01*
X123642380Y-76692190D02*
X122642380Y-76692190D01*
X122785238Y-76787428D01*
X122880476Y-76882666D01*
X122928095Y-76977904D01*
%TO.C,Q2*%
X142533619Y-77057238D02*
X142486000Y-77152476D01*
X142390761Y-77247714D01*
X142247904Y-77390571D01*
X142200285Y-77485809D01*
X142200285Y-77581047D01*
X142438380Y-77533428D02*
X142390761Y-77628666D01*
X142295523Y-77723904D01*
X142105047Y-77771523D01*
X141771714Y-77771523D01*
X141581238Y-77723904D01*
X141486000Y-77628666D01*
X141438380Y-77533428D01*
X141438380Y-77342952D01*
X141486000Y-77247714D01*
X141581238Y-77152476D01*
X141771714Y-77104857D01*
X142105047Y-77104857D01*
X142295523Y-77152476D01*
X142390761Y-77247714D01*
X142438380Y-77342952D01*
X142438380Y-77533428D01*
X141533619Y-76723904D02*
X141486000Y-76676285D01*
X141438380Y-76581047D01*
X141438380Y-76342952D01*
X141486000Y-76247714D01*
X141533619Y-76200095D01*
X141628857Y-76152476D01*
X141724095Y-76152476D01*
X141866952Y-76200095D01*
X142438380Y-76771523D01*
X142438380Y-76152476D01*
%TO.C,R1*%
X124404380Y-85002666D02*
X123928190Y-85336000D01*
X124404380Y-85574095D02*
X123404380Y-85574095D01*
X123404380Y-85193142D01*
X123452000Y-85097904D01*
X123499619Y-85050285D01*
X123594857Y-85002666D01*
X123737714Y-85002666D01*
X123832952Y-85050285D01*
X123880571Y-85097904D01*
X123928190Y-85193142D01*
X123928190Y-85574095D01*
X124404380Y-84050285D02*
X124404380Y-84621714D01*
X124404380Y-84336000D02*
X123404380Y-84336000D01*
X123547238Y-84431238D01*
X123642476Y-84526476D01*
X123690095Y-84621714D01*
%TO.C,R2*%
X145994380Y-85002666D02*
X145518190Y-85336000D01*
X145994380Y-85574095D02*
X144994380Y-85574095D01*
X144994380Y-85193142D01*
X145042000Y-85097904D01*
X145089619Y-85050285D01*
X145184857Y-85002666D01*
X145327714Y-85002666D01*
X145422952Y-85050285D01*
X145470571Y-85097904D01*
X145518190Y-85193142D01*
X145518190Y-85574095D01*
X145089619Y-84621714D02*
X145042000Y-84574095D01*
X144994380Y-84478857D01*
X144994380Y-84240761D01*
X145042000Y-84145523D01*
X145089619Y-84097904D01*
X145184857Y-84050285D01*
X145280095Y-84050285D01*
X145422952Y-84097904D01*
X145994380Y-84669333D01*
X145994380Y-84050285D01*
%TO.C,R3*%
X119832380Y-85002666D02*
X119356190Y-85336000D01*
X119832380Y-85574095D02*
X118832380Y-85574095D01*
X118832380Y-85193142D01*
X118880000Y-85097904D01*
X118927619Y-85050285D01*
X119022857Y-85002666D01*
X119165714Y-85002666D01*
X119260952Y-85050285D01*
X119308571Y-85097904D01*
X119356190Y-85193142D01*
X119356190Y-85574095D01*
X118832380Y-84669333D02*
X118832380Y-84050285D01*
X119213333Y-84383619D01*
X119213333Y-84240761D01*
X119260952Y-84145523D01*
X119308571Y-84097904D01*
X119403809Y-84050285D01*
X119641904Y-84050285D01*
X119737142Y-84097904D01*
X119784761Y-84145523D01*
X119832380Y-84240761D01*
X119832380Y-84526476D01*
X119784761Y-84621714D01*
X119737142Y-84669333D01*
%TO.C,R4*%
X136850380Y-85002666D02*
X136374190Y-85336000D01*
X136850380Y-85574095D02*
X135850380Y-85574095D01*
X135850380Y-85193142D01*
X135898000Y-85097904D01*
X135945619Y-85050285D01*
X136040857Y-85002666D01*
X136183714Y-85002666D01*
X136278952Y-85050285D01*
X136326571Y-85097904D01*
X136374190Y-85193142D01*
X136374190Y-85574095D01*
X136183714Y-84145523D02*
X136850380Y-84145523D01*
X135802761Y-84383619D02*
X136517047Y-84621714D01*
X136517047Y-84002666D01*
%TO.C,R5*%
X150694380Y-85002666D02*
X150218190Y-85336000D01*
X150694380Y-85574095D02*
X149694380Y-85574095D01*
X149694380Y-85193142D01*
X149742000Y-85097904D01*
X149789619Y-85050285D01*
X149884857Y-85002666D01*
X150027714Y-85002666D01*
X150122952Y-85050285D01*
X150170571Y-85097904D01*
X150218190Y-85193142D01*
X150218190Y-85574095D01*
X149694380Y-84097904D02*
X149694380Y-84574095D01*
X150170571Y-84621714D01*
X150122952Y-84574095D01*
X150075333Y-84478857D01*
X150075333Y-84240761D01*
X150122952Y-84145523D01*
X150170571Y-84097904D01*
X150265809Y-84050285D01*
X150503904Y-84050285D01*
X150599142Y-84097904D01*
X150646761Y-84145523D01*
X150694380Y-84240761D01*
X150694380Y-84478857D01*
X150646761Y-84574095D01*
X150599142Y-84621714D01*
%TO.C,R6*%
X141422380Y-85002666D02*
X140946190Y-85336000D01*
X141422380Y-85574095D02*
X140422380Y-85574095D01*
X140422380Y-85193142D01*
X140470000Y-85097904D01*
X140517619Y-85050285D01*
X140612857Y-85002666D01*
X140755714Y-85002666D01*
X140850952Y-85050285D01*
X140898571Y-85097904D01*
X140946190Y-85193142D01*
X140946190Y-85574095D01*
X140422380Y-84145523D02*
X140422380Y-84336000D01*
X140470000Y-84431238D01*
X140517619Y-84478857D01*
X140660476Y-84574095D01*
X140850952Y-84621714D01*
X141231904Y-84621714D01*
X141327142Y-84574095D01*
X141374761Y-84526476D01*
X141422380Y-84431238D01*
X141422380Y-84240761D01*
X141374761Y-84145523D01*
X141327142Y-84097904D01*
X141231904Y-84050285D01*
X140993809Y-84050285D01*
X140898571Y-84097904D01*
X140850952Y-84145523D01*
X140803333Y-84240761D01*
X140803333Y-84431238D01*
X140850952Y-84526476D01*
X140898571Y-84574095D01*
X140993809Y-84621714D01*
%TO.C,J1*%
X113752380Y-85169333D02*
X114466666Y-85169333D01*
X114609523Y-85216952D01*
X114704761Y-85312190D01*
X114752380Y-85455047D01*
X114752380Y-85550285D01*
X114752380Y-84169333D02*
X114752380Y-84740761D01*
X114752380Y-84455047D02*
X113752380Y-84455047D01*
X113895238Y-84550285D01*
X113990476Y-84645523D01*
X114038095Y-84740761D01*
%TO.C,J3*%
X149566380Y-89487333D02*
X150280666Y-89487333D01*
X150423523Y-89534952D01*
X150518761Y-89630190D01*
X150566380Y-89773047D01*
X150566380Y-89868285D01*
X149566380Y-89106380D02*
X149566380Y-88487333D01*
X149947333Y-88820666D01*
X149947333Y-88677809D01*
X149994952Y-88582571D01*
X150042571Y-88534952D01*
X150137809Y-88487333D01*
X150375904Y-88487333D01*
X150471142Y-88534952D01*
X150518761Y-88582571D01*
X150566380Y-88677809D01*
X150566380Y-88963523D01*
X150518761Y-89058761D01*
X150471142Y-89106380D01*
%TO.C,J2*%
X140676380Y-89741333D02*
X141390666Y-89741333D01*
X141533523Y-89788952D01*
X141628761Y-89884190D01*
X141676380Y-90027047D01*
X141676380Y-90122285D01*
X140771619Y-89312761D02*
X140724000Y-89265142D01*
X140676380Y-89169904D01*
X140676380Y-88931809D01*
X140724000Y-88836571D01*
X140771619Y-88788952D01*
X140866857Y-88741333D01*
X140962095Y-88741333D01*
X141104952Y-88788952D01*
X141676380Y-89360380D01*
X141676380Y-88741333D01*
%TD*%
M02*
