%TF.GenerationSoftware,KiCad,Pcbnew,(5.1.7)-1*%
%TF.CreationDate,2020-12-08T09:59:05+02:00*%
%TF.ProjectId,Single_transistor_AMP,53696e67-6c65-45f7-9472-616e73697374,V1.0*%
%TF.SameCoordinates,Original*%
%TF.FileFunction,Copper,L1,Top*%
%TF.FilePolarity,Positive*%
%FSLAX46Y46*%
G04 Gerber Fmt 4.6, Leading zero omitted, Abs format (unit mm)*
G04 Created by KiCad (PCBNEW (5.1.7)-1) date 2020-12-08 09:59:05*
%MOMM*%
%LPD*%
G01*
G04 APERTURE LIST*
%TA.AperFunction,ComponentPad*%
%ADD10O,1.050000X1.500000*%
%TD*%
%TA.AperFunction,ComponentPad*%
%ADD11R,1.050000X1.500000*%
%TD*%
%TA.AperFunction,ComponentPad*%
%ADD12O,1.700000X1.700000*%
%TD*%
%TA.AperFunction,ComponentPad*%
%ADD13R,1.700000X1.700000*%
%TD*%
%TA.AperFunction,Conductor*%
%ADD14C,0.500000*%
%TD*%
%TA.AperFunction,Conductor*%
%ADD15C,0.254000*%
%TD*%
%TA.AperFunction,Conductor*%
%ADD16C,0.100000*%
%TD*%
%TA.AperFunction,NonConductor*%
%ADD17C,0.254000*%
%TD*%
%TA.AperFunction,NonConductor*%
%ADD18C,0.100000*%
%TD*%
G04 APERTURE END LIST*
%TO.P,C1,1*%
%TO.N,Net-(C1-Pad1)*%
%TA.AperFunction,SMDPad,CuDef*%
G36*
G01*
X122354000Y-78773000D02*
X122354000Y-79723000D01*
G75*
G02*
X122104000Y-79973000I-250000J0D01*
G01*
X121604000Y-79973000D01*
G75*
G02*
X121354000Y-79723000I0J250000D01*
G01*
X121354000Y-78773000D01*
G75*
G02*
X121604000Y-78523000I250000J0D01*
G01*
X122104000Y-78523000D01*
G75*
G02*
X122354000Y-78773000I0J-250000D01*
G01*
G37*
%TD.AperFunction*%
%TO.P,C1,2*%
%TO.N,Net-(C1-Pad2)*%
%TA.AperFunction,SMDPad,CuDef*%
G36*
G01*
X120454000Y-78773000D02*
X120454000Y-79723000D01*
G75*
G02*
X120204000Y-79973000I-250000J0D01*
G01*
X119704000Y-79973000D01*
G75*
G02*
X119454000Y-79723000I0J250000D01*
G01*
X119454000Y-78773000D01*
G75*
G02*
X119704000Y-78523000I250000J0D01*
G01*
X120204000Y-78523000D01*
G75*
G02*
X120454000Y-78773000I0J-250000D01*
G01*
G37*
%TD.AperFunction*%
%TD*%
%TO.P,C2,1*%
%TO.N,Net-(C2-Pad1)*%
%TA.AperFunction,SMDPad,CuDef*%
G36*
G01*
X131276000Y-81736000D02*
X132376000Y-81736000D01*
G75*
G02*
X132626000Y-81986000I0J-250000D01*
G01*
X132626000Y-84086000D01*
G75*
G02*
X132376000Y-84336000I-250000J0D01*
G01*
X131276000Y-84336000D01*
G75*
G02*
X131026000Y-84086000I0J250000D01*
G01*
X131026000Y-81986000D01*
G75*
G02*
X131276000Y-81736000I250000J0D01*
G01*
G37*
%TD.AperFunction*%
%TO.P,C2,2*%
%TO.N,GND*%
%TA.AperFunction,SMDPad,CuDef*%
G36*
G01*
X131276000Y-85336000D02*
X132376000Y-85336000D01*
G75*
G02*
X132626000Y-85586000I0J-250000D01*
G01*
X132626000Y-87686000D01*
G75*
G02*
X132376000Y-87936000I-250000J0D01*
G01*
X131276000Y-87936000D01*
G75*
G02*
X131026000Y-87686000I0J250000D01*
G01*
X131026000Y-85586000D01*
G75*
G02*
X131276000Y-85336000I250000J0D01*
G01*
G37*
%TD.AperFunction*%
%TD*%
%TO.P,C3,2*%
%TO.N,Net-(C3-Pad2)*%
%TA.AperFunction,SMDPad,CuDef*%
G36*
G01*
X156812000Y-84386000D02*
X155862000Y-84386000D01*
G75*
G02*
X155612000Y-84136000I0J250000D01*
G01*
X155612000Y-83636000D01*
G75*
G02*
X155862000Y-83386000I250000J0D01*
G01*
X156812000Y-83386000D01*
G75*
G02*
X157062000Y-83636000I0J-250000D01*
G01*
X157062000Y-84136000D01*
G75*
G02*
X156812000Y-84386000I-250000J0D01*
G01*
G37*
%TD.AperFunction*%
%TO.P,C3,1*%
%TO.N,Net-(C3-Pad1)*%
%TA.AperFunction,SMDPad,CuDef*%
G36*
G01*
X156812000Y-86286000D02*
X155862000Y-86286000D01*
G75*
G02*
X155612000Y-86036000I0J250000D01*
G01*
X155612000Y-85536000D01*
G75*
G02*
X155862000Y-85286000I250000J0D01*
G01*
X156812000Y-85286000D01*
G75*
G02*
X157062000Y-85536000I0J-250000D01*
G01*
X157062000Y-86036000D01*
G75*
G02*
X156812000Y-86286000I-250000J0D01*
G01*
G37*
%TD.AperFunction*%
%TD*%
D10*
%TO.P,Q1,2*%
%TO.N,Net-(C1-Pad1)*%
X126746000Y-79248000D03*
%TO.P,Q1,3*%
%TO.N,Net-(Q1-Pad3)*%
X128016000Y-79248000D03*
D11*
%TO.P,Q1,1*%
%TO.N,Net-(Q1-Pad1)*%
X125476000Y-79248000D03*
%TD*%
%TO.P,Q2,1*%
%TO.N,Net-(Q2-Pad1)*%
X144272000Y-78994000D03*
D10*
%TO.P,Q2,3*%
%TO.N,Net-(C3-Pad2)*%
X146812000Y-78994000D03*
%TO.P,Q2,2*%
%TO.N,Net-(Q1-Pad3)*%
X145542000Y-78994000D03*
%TD*%
%TO.P,R1,1*%
%TO.N,Net-(C1-Pad1)*%
%TA.AperFunction,SMDPad,CuDef*%
G36*
G01*
X125152999Y-83236000D02*
X126053001Y-83236000D01*
G75*
G02*
X126303000Y-83485999I0J-249999D01*
G01*
X126303000Y-84186001D01*
G75*
G02*
X126053001Y-84436000I-249999J0D01*
G01*
X125152999Y-84436000D01*
G75*
G02*
X124903000Y-84186001I0J249999D01*
G01*
X124903000Y-83485999D01*
G75*
G02*
X125152999Y-83236000I249999J0D01*
G01*
G37*
%TD.AperFunction*%
%TO.P,R1,2*%
%TO.N,Net-(C2-Pad1)*%
%TA.AperFunction,SMDPad,CuDef*%
G36*
G01*
X125152999Y-85236000D02*
X126053001Y-85236000D01*
G75*
G02*
X126303000Y-85485999I0J-249999D01*
G01*
X126303000Y-86186001D01*
G75*
G02*
X126053001Y-86436000I-249999J0D01*
G01*
X125152999Y-86436000D01*
G75*
G02*
X124903000Y-86186001I0J249999D01*
G01*
X124903000Y-85485999D01*
G75*
G02*
X125152999Y-85236000I249999J0D01*
G01*
G37*
%TD.AperFunction*%
%TD*%
%TO.P,R2,2*%
%TO.N,Net-(Q1-Pad3)*%
%TA.AperFunction,SMDPad,CuDef*%
G36*
G01*
X147643001Y-84436000D02*
X146742999Y-84436000D01*
G75*
G02*
X146493000Y-84186001I0J249999D01*
G01*
X146493000Y-83485999D01*
G75*
G02*
X146742999Y-83236000I249999J0D01*
G01*
X147643001Y-83236000D01*
G75*
G02*
X147893000Y-83485999I0J-249999D01*
G01*
X147893000Y-84186001D01*
G75*
G02*
X147643001Y-84436000I-249999J0D01*
G01*
G37*
%TD.AperFunction*%
%TO.P,R2,1*%
%TO.N,Net-(J2-Pad1)*%
%TA.AperFunction,SMDPad,CuDef*%
G36*
G01*
X147643001Y-86436000D02*
X146742999Y-86436000D01*
G75*
G02*
X146493000Y-86186001I0J249999D01*
G01*
X146493000Y-85485999D01*
G75*
G02*
X146742999Y-85236000I249999J0D01*
G01*
X147643001Y-85236000D01*
G75*
G02*
X147893000Y-85485999I0J-249999D01*
G01*
X147893000Y-86186001D01*
G75*
G02*
X147643001Y-86436000I-249999J0D01*
G01*
G37*
%TD.AperFunction*%
%TD*%
%TO.P,R3,2*%
%TO.N,GND*%
%TA.AperFunction,SMDPad,CuDef*%
G36*
G01*
X120580999Y-85363000D02*
X121481001Y-85363000D01*
G75*
G02*
X121731000Y-85612999I0J-249999D01*
G01*
X121731000Y-86313001D01*
G75*
G02*
X121481001Y-86563000I-249999J0D01*
G01*
X120580999Y-86563000D01*
G75*
G02*
X120331000Y-86313001I0J249999D01*
G01*
X120331000Y-85612999D01*
G75*
G02*
X120580999Y-85363000I249999J0D01*
G01*
G37*
%TD.AperFunction*%
%TO.P,R3,1*%
%TO.N,Net-(Q1-Pad1)*%
%TA.AperFunction,SMDPad,CuDef*%
G36*
G01*
X120580999Y-83363000D02*
X121481001Y-83363000D01*
G75*
G02*
X121731000Y-83612999I0J-249999D01*
G01*
X121731000Y-84313001D01*
G75*
G02*
X121481001Y-84563000I-249999J0D01*
G01*
X120580999Y-84563000D01*
G75*
G02*
X120331000Y-84313001I0J249999D01*
G01*
X120331000Y-83612999D01*
G75*
G02*
X120580999Y-83363000I249999J0D01*
G01*
G37*
%TD.AperFunction*%
%TD*%
%TO.P,R4,1*%
%TO.N,Net-(Q2-Pad1)*%
%TA.AperFunction,SMDPad,CuDef*%
G36*
G01*
X137471999Y-83236000D02*
X138372001Y-83236000D01*
G75*
G02*
X138622000Y-83485999I0J-249999D01*
G01*
X138622000Y-84186001D01*
G75*
G02*
X138372001Y-84436000I-249999J0D01*
G01*
X137471999Y-84436000D01*
G75*
G02*
X137222000Y-84186001I0J249999D01*
G01*
X137222000Y-83485999D01*
G75*
G02*
X137471999Y-83236000I249999J0D01*
G01*
G37*
%TD.AperFunction*%
%TO.P,R4,2*%
%TO.N,Net-(C2-Pad1)*%
%TA.AperFunction,SMDPad,CuDef*%
G36*
G01*
X137471999Y-85236000D02*
X138372001Y-85236000D01*
G75*
G02*
X138622000Y-85485999I0J-249999D01*
G01*
X138622000Y-86186001D01*
G75*
G02*
X138372001Y-86436000I-249999J0D01*
G01*
X137471999Y-86436000D01*
G75*
G02*
X137222000Y-86186001I0J249999D01*
G01*
X137222000Y-85485999D01*
G75*
G02*
X137471999Y-85236000I249999J0D01*
G01*
G37*
%TD.AperFunction*%
%TD*%
%TO.P,R5,2*%
%TO.N,Net-(C3-Pad2)*%
%TA.AperFunction,SMDPad,CuDef*%
G36*
G01*
X152342001Y-84436000D02*
X151441999Y-84436000D01*
G75*
G02*
X151192000Y-84186001I0J249999D01*
G01*
X151192000Y-83485999D01*
G75*
G02*
X151441999Y-83236000I249999J0D01*
G01*
X152342001Y-83236000D01*
G75*
G02*
X152592000Y-83485999I0J-249999D01*
G01*
X152592000Y-84186001D01*
G75*
G02*
X152342001Y-84436000I-249999J0D01*
G01*
G37*
%TD.AperFunction*%
%TO.P,R5,1*%
%TO.N,Net-(J2-Pad1)*%
%TA.AperFunction,SMDPad,CuDef*%
G36*
G01*
X152342001Y-86436000D02*
X151441999Y-86436000D01*
G75*
G02*
X151192000Y-86186001I0J249999D01*
G01*
X151192000Y-85485999D01*
G75*
G02*
X151441999Y-85236000I249999J0D01*
G01*
X152342001Y-85236000D01*
G75*
G02*
X152592000Y-85485999I0J-249999D01*
G01*
X152592000Y-86186001D01*
G75*
G02*
X152342001Y-86436000I-249999J0D01*
G01*
G37*
%TD.AperFunction*%
%TD*%
%TO.P,R6,1*%
%TO.N,Net-(Q2-Pad1)*%
%TA.AperFunction,SMDPad,CuDef*%
G36*
G01*
X142043999Y-83236000D02*
X142944001Y-83236000D01*
G75*
G02*
X143194000Y-83485999I0J-249999D01*
G01*
X143194000Y-84186001D01*
G75*
G02*
X142944001Y-84436000I-249999J0D01*
G01*
X142043999Y-84436000D01*
G75*
G02*
X141794000Y-84186001I0J249999D01*
G01*
X141794000Y-83485999D01*
G75*
G02*
X142043999Y-83236000I249999J0D01*
G01*
G37*
%TD.AperFunction*%
%TO.P,R6,2*%
%TO.N,GND*%
%TA.AperFunction,SMDPad,CuDef*%
G36*
G01*
X142043999Y-85236000D02*
X142944001Y-85236000D01*
G75*
G02*
X143194000Y-85485999I0J-249999D01*
G01*
X143194000Y-86186001D01*
G75*
G02*
X142944001Y-86436000I-249999J0D01*
G01*
X142043999Y-86436000D01*
G75*
G02*
X141794000Y-86186001I0J249999D01*
G01*
X141794000Y-85485999D01*
G75*
G02*
X142043999Y-85236000I249999J0D01*
G01*
G37*
%TD.AperFunction*%
%TD*%
D12*
%TO.P,J1,2*%
%TO.N,Net-(C1-Pad2)*%
X116840000Y-83820000D03*
D13*
%TO.P,J1,1*%
%TO.N,GND*%
X116840000Y-86360000D03*
%TD*%
%TO.P,J3,1*%
%TO.N,Net-(C3-Pad1)*%
X155194000Y-89408000D03*
D12*
%TO.P,J3,2*%
%TO.N,GND*%
X152654000Y-89408000D03*
%TD*%
D13*
%TO.P,J2,1*%
%TO.N,Net-(J2-Pad1)*%
X146304000Y-89408000D03*
D12*
%TO.P,J2,2*%
%TO.N,GND*%
X143764000Y-89408000D03*
%TD*%
D14*
%TO.N,Net-(C1-Pad1)*%
X126746000Y-82693000D02*
X126746000Y-79248000D01*
X125603000Y-83836000D02*
X126746000Y-82693000D01*
X126746000Y-78432998D02*
X126746000Y-79248000D01*
X126361001Y-78047999D02*
X126746000Y-78432998D01*
X123054001Y-78047999D02*
X126361001Y-78047999D01*
X121854000Y-79248000D02*
X123054001Y-78047999D01*
%TO.N,Net-(C1-Pad2)*%
X116840000Y-82362000D02*
X119954000Y-79248000D01*
X116840000Y-83820000D02*
X116840000Y-82362000D01*
%TO.N,Net-(C2-Pad1)*%
X129026000Y-85836000D02*
X131826000Y-83036000D01*
X125603000Y-85836000D02*
X129026000Y-85836000D01*
X135122000Y-83036000D02*
X137922000Y-85836000D01*
X131826000Y-83036000D02*
X135122000Y-83036000D01*
%TO.N,Net-(C3-Pad2)*%
X156287000Y-83836000D02*
X156337000Y-83886000D01*
X151892000Y-83836000D02*
X156287000Y-83836000D01*
X147050000Y-78994000D02*
X151892000Y-83836000D01*
X146812000Y-78994000D02*
X147050000Y-78994000D01*
%TO.N,Net-(C3-Pad1)*%
X155194000Y-86929000D02*
X156337000Y-85786000D01*
X155194000Y-89408000D02*
X155194000Y-86929000D01*
%TO.N,Net-(J2-Pad1)*%
X146304000Y-86725000D02*
X147193000Y-85836000D01*
X146304000Y-89408000D02*
X146304000Y-86725000D01*
X147193000Y-85836000D02*
X151892000Y-85836000D01*
%TO.N,Net-(Q1-Pad3)*%
X145542000Y-82185000D02*
X147193000Y-83836000D01*
X145542000Y-78994000D02*
X145542000Y-82185000D01*
X145542000Y-78178998D02*
X145542000Y-78994000D01*
X145157001Y-77793999D02*
X145542000Y-78178998D01*
X129470001Y-77793999D02*
X145157001Y-77793999D01*
X128016000Y-79248000D02*
X129470001Y-77793999D01*
%TO.N,Net-(Q1-Pad1)*%
X121031000Y-83693000D02*
X125476000Y-79248000D01*
X121031000Y-83963000D02*
X121031000Y-83693000D01*
%TO.N,Net-(Q2-Pad1)*%
X137922000Y-83836000D02*
X142494000Y-83836000D01*
X142494000Y-80772000D02*
X144272000Y-78994000D01*
X142494000Y-83836000D02*
X142494000Y-80772000D01*
%TD*%
D15*
%TO.N,GND*%
X140147627Y-74017922D02*
X143240633Y-74298896D01*
X146315502Y-74736001D01*
X149364316Y-75328112D01*
X152379267Y-76073712D01*
X155352627Y-76970891D01*
X158276796Y-78017355D01*
X161147514Y-79211768D01*
X162408000Y-79796415D01*
X162408001Y-94501100D01*
X110337200Y-94501100D01*
X110337200Y-91713674D01*
X110337204Y-91713633D01*
X110337200Y-91682570D01*
X110337200Y-91648881D01*
X110337196Y-91648837D01*
X110336954Y-89764891D01*
X142322519Y-89764891D01*
X142419843Y-90039252D01*
X142568822Y-90289355D01*
X142763731Y-90505588D01*
X142997080Y-90679641D01*
X143259901Y-90804825D01*
X143407110Y-90849476D01*
X143637000Y-90728155D01*
X143637000Y-89535000D01*
X142443186Y-89535000D01*
X142322519Y-89764891D01*
X110336954Y-89764891D01*
X110336863Y-89051109D01*
X142322519Y-89051109D01*
X142443186Y-89281000D01*
X143637000Y-89281000D01*
X143637000Y-88087845D01*
X143407110Y-87966524D01*
X143259901Y-88011175D01*
X142997080Y-88136359D01*
X142763731Y-88310412D01*
X142568822Y-88526645D01*
X142419843Y-88776748D01*
X142322519Y-89051109D01*
X110336863Y-89051109D01*
X110336719Y-87936000D01*
X130387928Y-87936000D01*
X130400188Y-88060482D01*
X130436498Y-88180180D01*
X130495463Y-88290494D01*
X130574815Y-88387185D01*
X130671506Y-88466537D01*
X130781820Y-88525502D01*
X130901518Y-88561812D01*
X131026000Y-88574072D01*
X131540250Y-88571000D01*
X131699000Y-88412250D01*
X131699000Y-86763000D01*
X131953000Y-86763000D01*
X131953000Y-88412250D01*
X132111750Y-88571000D01*
X132626000Y-88574072D01*
X132750482Y-88561812D01*
X132870180Y-88525502D01*
X132980494Y-88466537D01*
X133077185Y-88387185D01*
X133156537Y-88290494D01*
X133215502Y-88180180D01*
X133251812Y-88060482D01*
X133264072Y-87936000D01*
X133261000Y-86921750D01*
X133102250Y-86763000D01*
X131953000Y-86763000D01*
X131699000Y-86763000D01*
X130549750Y-86763000D01*
X130391000Y-86921750D01*
X130387928Y-87936000D01*
X110336719Y-87936000D01*
X110336625Y-87210000D01*
X115351928Y-87210000D01*
X115364188Y-87334482D01*
X115400498Y-87454180D01*
X115459463Y-87564494D01*
X115538815Y-87661185D01*
X115635506Y-87740537D01*
X115745820Y-87799502D01*
X115865518Y-87835812D01*
X115990000Y-87848072D01*
X116554250Y-87845000D01*
X116713000Y-87686250D01*
X116713000Y-86487000D01*
X116967000Y-86487000D01*
X116967000Y-87686250D01*
X117125750Y-87845000D01*
X117690000Y-87848072D01*
X117814482Y-87835812D01*
X117934180Y-87799502D01*
X118044494Y-87740537D01*
X118141185Y-87661185D01*
X118220537Y-87564494D01*
X118279502Y-87454180D01*
X118315812Y-87334482D01*
X118328072Y-87210000D01*
X118325000Y-86645750D01*
X118242250Y-86563000D01*
X119692928Y-86563000D01*
X119705188Y-86687482D01*
X119741498Y-86807180D01*
X119800463Y-86917494D01*
X119879815Y-87014185D01*
X119976506Y-87093537D01*
X120086820Y-87152502D01*
X120206518Y-87188812D01*
X120331000Y-87201072D01*
X120745250Y-87198000D01*
X120904000Y-87039250D01*
X120904000Y-86090000D01*
X121158000Y-86090000D01*
X121158000Y-87039250D01*
X121316750Y-87198000D01*
X121731000Y-87201072D01*
X121855482Y-87188812D01*
X121975180Y-87152502D01*
X122085494Y-87093537D01*
X122182185Y-87014185D01*
X122261537Y-86917494D01*
X122320502Y-86807180D01*
X122356812Y-86687482D01*
X122369072Y-86563000D01*
X122366000Y-86248750D01*
X122207250Y-86090000D01*
X121158000Y-86090000D01*
X120904000Y-86090000D01*
X119854750Y-86090000D01*
X119696000Y-86248750D01*
X119692928Y-86563000D01*
X118242250Y-86563000D01*
X118166250Y-86487000D01*
X116967000Y-86487000D01*
X116713000Y-86487000D01*
X115513750Y-86487000D01*
X115355000Y-86645750D01*
X115351928Y-87210000D01*
X110336625Y-87210000D01*
X110336406Y-85510000D01*
X115351928Y-85510000D01*
X115355000Y-86074250D01*
X115513750Y-86233000D01*
X116713000Y-86233000D01*
X116713000Y-86213000D01*
X116967000Y-86213000D01*
X116967000Y-86233000D01*
X118166250Y-86233000D01*
X118325000Y-86074250D01*
X118328072Y-85510000D01*
X118315812Y-85385518D01*
X118279502Y-85265820D01*
X118220537Y-85155506D01*
X118141185Y-85058815D01*
X118044494Y-84979463D01*
X117934180Y-84920498D01*
X117861620Y-84898487D01*
X117993475Y-84766632D01*
X118155990Y-84523411D01*
X118267932Y-84253158D01*
X118325000Y-83966260D01*
X118325000Y-83673740D01*
X118267932Y-83386842D01*
X118155990Y-83116589D01*
X117993475Y-82873368D01*
X117786843Y-82666736D01*
X119842507Y-80611072D01*
X120204000Y-80611072D01*
X120377254Y-80594008D01*
X120543850Y-80543472D01*
X120697386Y-80461405D01*
X120831962Y-80350962D01*
X120904000Y-80263183D01*
X120976038Y-80350962D01*
X121110614Y-80461405D01*
X121264150Y-80543472D01*
X121430746Y-80594008D01*
X121604000Y-80611072D01*
X122104000Y-80611072D01*
X122277254Y-80594008D01*
X122443850Y-80543472D01*
X122597386Y-80461405D01*
X122731962Y-80350962D01*
X122842405Y-80216386D01*
X122924472Y-80062850D01*
X122975008Y-79896254D01*
X122992072Y-79723000D01*
X122992072Y-79361506D01*
X123420580Y-78932999D01*
X124312928Y-78932999D01*
X124312928Y-79159493D01*
X120747494Y-82724928D01*
X120580999Y-82724928D01*
X120407745Y-82741992D01*
X120241149Y-82792528D01*
X120087613Y-82874595D01*
X119953038Y-82985038D01*
X119842595Y-83119613D01*
X119760528Y-83273149D01*
X119709992Y-83439745D01*
X119692928Y-83612999D01*
X119692928Y-84313001D01*
X119709992Y-84486255D01*
X119760528Y-84652851D01*
X119842595Y-84806387D01*
X119909276Y-84887637D01*
X119879815Y-84911815D01*
X119800463Y-85008506D01*
X119741498Y-85118820D01*
X119705188Y-85238518D01*
X119692928Y-85363000D01*
X119696000Y-85677250D01*
X119854750Y-85836000D01*
X120904000Y-85836000D01*
X120904000Y-85816000D01*
X121158000Y-85816000D01*
X121158000Y-85836000D01*
X122207250Y-85836000D01*
X122366000Y-85677250D01*
X122369072Y-85363000D01*
X122356812Y-85238518D01*
X122320502Y-85118820D01*
X122261537Y-85008506D01*
X122182185Y-84911815D01*
X122152724Y-84887637D01*
X122219405Y-84806387D01*
X122301472Y-84652851D01*
X122352008Y-84486255D01*
X122369072Y-84313001D01*
X122369072Y-83612999D01*
X122368490Y-83607088D01*
X125339507Y-80636072D01*
X125861001Y-80636072D01*
X125861000Y-82326421D01*
X125589493Y-82597928D01*
X125152999Y-82597928D01*
X124979745Y-82614992D01*
X124813149Y-82665528D01*
X124659613Y-82747595D01*
X124525038Y-82858038D01*
X124414595Y-82992613D01*
X124332528Y-83146149D01*
X124281992Y-83312745D01*
X124264928Y-83485999D01*
X124264928Y-84186001D01*
X124281992Y-84359255D01*
X124332528Y-84525851D01*
X124414595Y-84679387D01*
X124525038Y-84813962D01*
X124551891Y-84836000D01*
X124525038Y-84858038D01*
X124414595Y-84992613D01*
X124332528Y-85146149D01*
X124281992Y-85312745D01*
X124264928Y-85485999D01*
X124264928Y-86186001D01*
X124281992Y-86359255D01*
X124332528Y-86525851D01*
X124414595Y-86679387D01*
X124525038Y-86813962D01*
X124659613Y-86924405D01*
X124813149Y-87006472D01*
X124979745Y-87057008D01*
X125152999Y-87074072D01*
X126053001Y-87074072D01*
X126226255Y-87057008D01*
X126392851Y-87006472D01*
X126546387Y-86924405D01*
X126680962Y-86813962D01*
X126757254Y-86721000D01*
X128982531Y-86721000D01*
X129026000Y-86725281D01*
X129069469Y-86721000D01*
X129069477Y-86721000D01*
X129199490Y-86708195D01*
X129366313Y-86657589D01*
X129520059Y-86575411D01*
X129654817Y-86464817D01*
X129682534Y-86431044D01*
X130389105Y-85724474D01*
X130391000Y-86350250D01*
X130549750Y-86509000D01*
X131699000Y-86509000D01*
X131699000Y-86489000D01*
X131953000Y-86489000D01*
X131953000Y-86509000D01*
X133102250Y-86509000D01*
X133261000Y-86350250D01*
X133264072Y-85336000D01*
X133251812Y-85211518D01*
X133215502Y-85091820D01*
X133156537Y-84981506D01*
X133077185Y-84884815D01*
X132980494Y-84805463D01*
X132927187Y-84776969D01*
X133003962Y-84713962D01*
X133114405Y-84579386D01*
X133196472Y-84425850D01*
X133247008Y-84259254D01*
X133264072Y-84086000D01*
X133264072Y-83921000D01*
X134755422Y-83921000D01*
X136583928Y-85749507D01*
X136583928Y-86186001D01*
X136600992Y-86359255D01*
X136651528Y-86525851D01*
X136733595Y-86679387D01*
X136844038Y-86813962D01*
X136978613Y-86924405D01*
X137132149Y-87006472D01*
X137298745Y-87057008D01*
X137471999Y-87074072D01*
X138372001Y-87074072D01*
X138545255Y-87057008D01*
X138711851Y-87006472D01*
X138865387Y-86924405D01*
X138999962Y-86813962D01*
X139110405Y-86679387D01*
X139192472Y-86525851D01*
X139219727Y-86436000D01*
X141155928Y-86436000D01*
X141168188Y-86560482D01*
X141204498Y-86680180D01*
X141263463Y-86790494D01*
X141342815Y-86887185D01*
X141439506Y-86966537D01*
X141549820Y-87025502D01*
X141669518Y-87061812D01*
X141794000Y-87074072D01*
X142208250Y-87071000D01*
X142367000Y-86912250D01*
X142367000Y-85963000D01*
X142621000Y-85963000D01*
X142621000Y-86912250D01*
X142779750Y-87071000D01*
X143194000Y-87074072D01*
X143318482Y-87061812D01*
X143438180Y-87025502D01*
X143548494Y-86966537D01*
X143645185Y-86887185D01*
X143724537Y-86790494D01*
X143783502Y-86680180D01*
X143819812Y-86560482D01*
X143832072Y-86436000D01*
X143829000Y-86121750D01*
X143670250Y-85963000D01*
X142621000Y-85963000D01*
X142367000Y-85963000D01*
X141317750Y-85963000D01*
X141159000Y-86121750D01*
X141155928Y-86436000D01*
X139219727Y-86436000D01*
X139243008Y-86359255D01*
X139260072Y-86186001D01*
X139260072Y-85485999D01*
X139243008Y-85312745D01*
X139192472Y-85146149D01*
X139110405Y-84992613D01*
X138999962Y-84858038D01*
X138973109Y-84836000D01*
X138999962Y-84813962D01*
X139076254Y-84721000D01*
X141339746Y-84721000D01*
X141372276Y-84760637D01*
X141342815Y-84784815D01*
X141263463Y-84881506D01*
X141204498Y-84991820D01*
X141168188Y-85111518D01*
X141155928Y-85236000D01*
X141159000Y-85550250D01*
X141317750Y-85709000D01*
X142367000Y-85709000D01*
X142367000Y-85689000D01*
X142621000Y-85689000D01*
X142621000Y-85709000D01*
X143670250Y-85709000D01*
X143829000Y-85550250D01*
X143832072Y-85236000D01*
X143819812Y-85111518D01*
X143783502Y-84991820D01*
X143724537Y-84881506D01*
X143645185Y-84784815D01*
X143615724Y-84760637D01*
X143682405Y-84679387D01*
X143764472Y-84525851D01*
X143815008Y-84359255D01*
X143832072Y-84186001D01*
X143832072Y-83485999D01*
X143815008Y-83312745D01*
X143764472Y-83146149D01*
X143682405Y-82992613D01*
X143571962Y-82858038D01*
X143437387Y-82747595D01*
X143379000Y-82716386D01*
X143379000Y-81138578D01*
X144135507Y-80382072D01*
X144657000Y-80382072D01*
X144657001Y-82141521D01*
X144652719Y-82185000D01*
X144669805Y-82358490D01*
X144720412Y-82525313D01*
X144802590Y-82679059D01*
X144885468Y-82780046D01*
X144885471Y-82780049D01*
X144913184Y-82813817D01*
X144946951Y-82841529D01*
X145854928Y-83749507D01*
X145854928Y-84186001D01*
X145871992Y-84359255D01*
X145922528Y-84525851D01*
X146004595Y-84679387D01*
X146115038Y-84813962D01*
X146141891Y-84836000D01*
X146115038Y-84858038D01*
X146004595Y-84992613D01*
X145922528Y-85146149D01*
X145871992Y-85312745D01*
X145854928Y-85485999D01*
X145854928Y-85922494D01*
X145708951Y-86068471D01*
X145675184Y-86096183D01*
X145647471Y-86129951D01*
X145647468Y-86129954D01*
X145564590Y-86230941D01*
X145482412Y-86384687D01*
X145431805Y-86551510D01*
X145414719Y-86725000D01*
X145419001Y-86768479D01*
X145419001Y-87923375D01*
X145329518Y-87932188D01*
X145209820Y-87968498D01*
X145099506Y-88027463D01*
X145002815Y-88106815D01*
X144923463Y-88203506D01*
X144864498Y-88313820D01*
X144840034Y-88394466D01*
X144764269Y-88310412D01*
X144530920Y-88136359D01*
X144268099Y-88011175D01*
X144120890Y-87966524D01*
X143891000Y-88087845D01*
X143891000Y-89281000D01*
X143911000Y-89281000D01*
X143911000Y-89535000D01*
X143891000Y-89535000D01*
X143891000Y-90728155D01*
X144120890Y-90849476D01*
X144268099Y-90804825D01*
X144530920Y-90679641D01*
X144764269Y-90505588D01*
X144840034Y-90421534D01*
X144864498Y-90502180D01*
X144923463Y-90612494D01*
X145002815Y-90709185D01*
X145099506Y-90788537D01*
X145209820Y-90847502D01*
X145329518Y-90883812D01*
X145454000Y-90896072D01*
X147154000Y-90896072D01*
X147278482Y-90883812D01*
X147398180Y-90847502D01*
X147508494Y-90788537D01*
X147605185Y-90709185D01*
X147684537Y-90612494D01*
X147743502Y-90502180D01*
X147779812Y-90382482D01*
X147792072Y-90258000D01*
X147792072Y-89764891D01*
X151212519Y-89764891D01*
X151309843Y-90039252D01*
X151458822Y-90289355D01*
X151653731Y-90505588D01*
X151887080Y-90679641D01*
X152149901Y-90804825D01*
X152297110Y-90849476D01*
X152527000Y-90728155D01*
X152527000Y-89535000D01*
X151333186Y-89535000D01*
X151212519Y-89764891D01*
X147792072Y-89764891D01*
X147792072Y-89051109D01*
X151212519Y-89051109D01*
X151333186Y-89281000D01*
X152527000Y-89281000D01*
X152527000Y-88087845D01*
X152297110Y-87966524D01*
X152149901Y-88011175D01*
X151887080Y-88136359D01*
X151653731Y-88310412D01*
X151458822Y-88526645D01*
X151309843Y-88776748D01*
X151212519Y-89051109D01*
X147792072Y-89051109D01*
X147792072Y-88558000D01*
X147779812Y-88433518D01*
X147743502Y-88313820D01*
X147684537Y-88203506D01*
X147605185Y-88106815D01*
X147508494Y-88027463D01*
X147398180Y-87968498D01*
X147278482Y-87932188D01*
X147189000Y-87923375D01*
X147189000Y-87091578D01*
X147206506Y-87074072D01*
X147643001Y-87074072D01*
X147816255Y-87057008D01*
X147982851Y-87006472D01*
X148136387Y-86924405D01*
X148270962Y-86813962D01*
X148347254Y-86721000D01*
X150737746Y-86721000D01*
X150814038Y-86813962D01*
X150948613Y-86924405D01*
X151102149Y-87006472D01*
X151268745Y-87057008D01*
X151441999Y-87074072D01*
X152342001Y-87074072D01*
X152515255Y-87057008D01*
X152681851Y-87006472D01*
X152835387Y-86924405D01*
X152969962Y-86813962D01*
X153080405Y-86679387D01*
X153162472Y-86525851D01*
X153213008Y-86359255D01*
X153230072Y-86186001D01*
X153230072Y-85485999D01*
X153213008Y-85312745D01*
X153162472Y-85146149D01*
X153080405Y-84992613D01*
X152969962Y-84858038D01*
X152943109Y-84836000D01*
X152969962Y-84813962D01*
X153046254Y-84721000D01*
X155198780Y-84721000D01*
X155234038Y-84763962D01*
X155321817Y-84836000D01*
X155234038Y-84908038D01*
X155123595Y-85042614D01*
X155041528Y-85196150D01*
X154990992Y-85362746D01*
X154973928Y-85536000D01*
X154973928Y-85897494D01*
X154598951Y-86272471D01*
X154565184Y-86300183D01*
X154537471Y-86333951D01*
X154537468Y-86333954D01*
X154454590Y-86434941D01*
X154372412Y-86588687D01*
X154321805Y-86755510D01*
X154304719Y-86929000D01*
X154309001Y-86972479D01*
X154309001Y-87923375D01*
X154219518Y-87932188D01*
X154099820Y-87968498D01*
X153989506Y-88027463D01*
X153892815Y-88106815D01*
X153813463Y-88203506D01*
X153754498Y-88313820D01*
X153730034Y-88394466D01*
X153654269Y-88310412D01*
X153420920Y-88136359D01*
X153158099Y-88011175D01*
X153010890Y-87966524D01*
X152781000Y-88087845D01*
X152781000Y-89281000D01*
X152801000Y-89281000D01*
X152801000Y-89535000D01*
X152781000Y-89535000D01*
X152781000Y-90728155D01*
X153010890Y-90849476D01*
X153158099Y-90804825D01*
X153420920Y-90679641D01*
X153654269Y-90505588D01*
X153730034Y-90421534D01*
X153754498Y-90502180D01*
X153813463Y-90612494D01*
X153892815Y-90709185D01*
X153989506Y-90788537D01*
X154099820Y-90847502D01*
X154219518Y-90883812D01*
X154344000Y-90896072D01*
X156044000Y-90896072D01*
X156168482Y-90883812D01*
X156288180Y-90847502D01*
X156398494Y-90788537D01*
X156495185Y-90709185D01*
X156574537Y-90612494D01*
X156633502Y-90502180D01*
X156669812Y-90382482D01*
X156682072Y-90258000D01*
X156682072Y-88558000D01*
X156669812Y-88433518D01*
X156633502Y-88313820D01*
X156574537Y-88203506D01*
X156495185Y-88106815D01*
X156398494Y-88027463D01*
X156288180Y-87968498D01*
X156168482Y-87932188D01*
X156079000Y-87923375D01*
X156079000Y-87295578D01*
X156450507Y-86924072D01*
X156812000Y-86924072D01*
X156985254Y-86907008D01*
X157151850Y-86856472D01*
X157305386Y-86774405D01*
X157439962Y-86663962D01*
X157550405Y-86529386D01*
X157632472Y-86375850D01*
X157683008Y-86209254D01*
X157700072Y-86036000D01*
X157700072Y-85536000D01*
X157683008Y-85362746D01*
X157632472Y-85196150D01*
X157550405Y-85042614D01*
X157439962Y-84908038D01*
X157352183Y-84836000D01*
X157439962Y-84763962D01*
X157550405Y-84629386D01*
X157632472Y-84475850D01*
X157683008Y-84309254D01*
X157700072Y-84136000D01*
X157700072Y-83636000D01*
X157683008Y-83462746D01*
X157632472Y-83296150D01*
X157550405Y-83142614D01*
X157439962Y-83008038D01*
X157305386Y-82897595D01*
X157151850Y-82815528D01*
X156985254Y-82764992D01*
X156812000Y-82747928D01*
X155862000Y-82747928D01*
X155688746Y-82764992D01*
X155522150Y-82815528D01*
X155368614Y-82897595D01*
X155303539Y-82951000D01*
X153046254Y-82951000D01*
X152969962Y-82858038D01*
X152835387Y-82747595D01*
X152681851Y-82665528D01*
X152515255Y-82614992D01*
X152342001Y-82597928D01*
X151905507Y-82597928D01*
X147966800Y-78659222D01*
X147955215Y-78541600D01*
X147888885Y-78322940D01*
X147781171Y-78121421D01*
X147636212Y-77944788D01*
X147459578Y-77799829D01*
X147258059Y-77692115D01*
X147039399Y-77625785D01*
X146812000Y-77603388D01*
X146584600Y-77625785D01*
X146365940Y-77692115D01*
X146303178Y-77725662D01*
X146281411Y-77684939D01*
X146170817Y-77550181D01*
X146137045Y-77522465D01*
X145813535Y-77198955D01*
X145785818Y-77165182D01*
X145651060Y-77054588D01*
X145497314Y-76972410D01*
X145330491Y-76921804D01*
X145200478Y-76908999D01*
X145200470Y-76908999D01*
X145157001Y-76904718D01*
X145113532Y-76908999D01*
X129513470Y-76908999D01*
X129470001Y-76904718D01*
X129426532Y-76908999D01*
X129426524Y-76908999D01*
X129318950Y-76919594D01*
X129296510Y-76921804D01*
X129245904Y-76937156D01*
X129129688Y-76972410D01*
X129011592Y-77035533D01*
X128975942Y-77054588D01*
X128874954Y-77137467D01*
X128874952Y-77137469D01*
X128841184Y-77165182D01*
X128813471Y-77198950D01*
X128142568Y-77869854D01*
X128016000Y-77857388D01*
X127788600Y-77879785D01*
X127569940Y-77946115D01*
X127507178Y-77979662D01*
X127485411Y-77938939D01*
X127374817Y-77804181D01*
X127341045Y-77776465D01*
X127017535Y-77452955D01*
X126989818Y-77419182D01*
X126855060Y-77308588D01*
X126701314Y-77226410D01*
X126534491Y-77175804D01*
X126404478Y-77162999D01*
X126404470Y-77162999D01*
X126361001Y-77158718D01*
X126317532Y-77162999D01*
X123097470Y-77162999D01*
X123054001Y-77158718D01*
X123010532Y-77162999D01*
X123010524Y-77162999D01*
X122880511Y-77175804D01*
X122713687Y-77226410D01*
X122559942Y-77308588D01*
X122458954Y-77391467D01*
X122458952Y-77391469D01*
X122425184Y-77419182D01*
X122397471Y-77452950D01*
X121965493Y-77884928D01*
X121604000Y-77884928D01*
X121430746Y-77901992D01*
X121264150Y-77952528D01*
X121110614Y-78034595D01*
X120976038Y-78145038D01*
X120904000Y-78232817D01*
X120831962Y-78145038D01*
X120697386Y-78034595D01*
X120543850Y-77952528D01*
X120377254Y-77901992D01*
X120204000Y-77884928D01*
X119704000Y-77884928D01*
X119530746Y-77901992D01*
X119364150Y-77952528D01*
X119210614Y-78034595D01*
X119076038Y-78145038D01*
X118965595Y-78279614D01*
X118883528Y-78433150D01*
X118832992Y-78599746D01*
X118815928Y-78773000D01*
X118815928Y-79134493D01*
X116244951Y-81705471D01*
X116211184Y-81733183D01*
X116183471Y-81766951D01*
X116183468Y-81766954D01*
X116100590Y-81867941D01*
X116018412Y-82021687D01*
X115967805Y-82188510D01*
X115950719Y-82362000D01*
X115955001Y-82405479D01*
X115955001Y-82625343D01*
X115893368Y-82666525D01*
X115686525Y-82873368D01*
X115524010Y-83116589D01*
X115412068Y-83386842D01*
X115355000Y-83673740D01*
X115355000Y-83966260D01*
X115412068Y-84253158D01*
X115524010Y-84523411D01*
X115686525Y-84766632D01*
X115818380Y-84898487D01*
X115745820Y-84920498D01*
X115635506Y-84979463D01*
X115538815Y-85058815D01*
X115459463Y-85155506D01*
X115400498Y-85265820D01*
X115364188Y-85385518D01*
X115351928Y-85510000D01*
X110336406Y-85510000D01*
X110335643Y-79587918D01*
X112798775Y-78501065D01*
X115699999Y-77392650D01*
X118653616Y-76432426D01*
X121652023Y-75622868D01*
X124687563Y-74966040D01*
X127752405Y-74463637D01*
X130838785Y-74116932D01*
X133938708Y-73926822D01*
X137044318Y-73893790D01*
X140147627Y-74017922D01*
%TA.AperFunction,Conductor*%
D16*
G36*
X140147627Y-74017922D02*
G01*
X143240633Y-74298896D01*
X146315502Y-74736001D01*
X149364316Y-75328112D01*
X152379267Y-76073712D01*
X155352627Y-76970891D01*
X158276796Y-78017355D01*
X161147514Y-79211768D01*
X162408000Y-79796415D01*
X162408001Y-94501100D01*
X110337200Y-94501100D01*
X110337200Y-91713674D01*
X110337204Y-91713633D01*
X110337200Y-91682570D01*
X110337200Y-91648881D01*
X110337196Y-91648837D01*
X110336954Y-89764891D01*
X142322519Y-89764891D01*
X142419843Y-90039252D01*
X142568822Y-90289355D01*
X142763731Y-90505588D01*
X142997080Y-90679641D01*
X143259901Y-90804825D01*
X143407110Y-90849476D01*
X143637000Y-90728155D01*
X143637000Y-89535000D01*
X142443186Y-89535000D01*
X142322519Y-89764891D01*
X110336954Y-89764891D01*
X110336863Y-89051109D01*
X142322519Y-89051109D01*
X142443186Y-89281000D01*
X143637000Y-89281000D01*
X143637000Y-88087845D01*
X143407110Y-87966524D01*
X143259901Y-88011175D01*
X142997080Y-88136359D01*
X142763731Y-88310412D01*
X142568822Y-88526645D01*
X142419843Y-88776748D01*
X142322519Y-89051109D01*
X110336863Y-89051109D01*
X110336719Y-87936000D01*
X130387928Y-87936000D01*
X130400188Y-88060482D01*
X130436498Y-88180180D01*
X130495463Y-88290494D01*
X130574815Y-88387185D01*
X130671506Y-88466537D01*
X130781820Y-88525502D01*
X130901518Y-88561812D01*
X131026000Y-88574072D01*
X131540250Y-88571000D01*
X131699000Y-88412250D01*
X131699000Y-86763000D01*
X131953000Y-86763000D01*
X131953000Y-88412250D01*
X132111750Y-88571000D01*
X132626000Y-88574072D01*
X132750482Y-88561812D01*
X132870180Y-88525502D01*
X132980494Y-88466537D01*
X133077185Y-88387185D01*
X133156537Y-88290494D01*
X133215502Y-88180180D01*
X133251812Y-88060482D01*
X133264072Y-87936000D01*
X133261000Y-86921750D01*
X133102250Y-86763000D01*
X131953000Y-86763000D01*
X131699000Y-86763000D01*
X130549750Y-86763000D01*
X130391000Y-86921750D01*
X130387928Y-87936000D01*
X110336719Y-87936000D01*
X110336625Y-87210000D01*
X115351928Y-87210000D01*
X115364188Y-87334482D01*
X115400498Y-87454180D01*
X115459463Y-87564494D01*
X115538815Y-87661185D01*
X115635506Y-87740537D01*
X115745820Y-87799502D01*
X115865518Y-87835812D01*
X115990000Y-87848072D01*
X116554250Y-87845000D01*
X116713000Y-87686250D01*
X116713000Y-86487000D01*
X116967000Y-86487000D01*
X116967000Y-87686250D01*
X117125750Y-87845000D01*
X117690000Y-87848072D01*
X117814482Y-87835812D01*
X117934180Y-87799502D01*
X118044494Y-87740537D01*
X118141185Y-87661185D01*
X118220537Y-87564494D01*
X118279502Y-87454180D01*
X118315812Y-87334482D01*
X118328072Y-87210000D01*
X118325000Y-86645750D01*
X118242250Y-86563000D01*
X119692928Y-86563000D01*
X119705188Y-86687482D01*
X119741498Y-86807180D01*
X119800463Y-86917494D01*
X119879815Y-87014185D01*
X119976506Y-87093537D01*
X120086820Y-87152502D01*
X120206518Y-87188812D01*
X120331000Y-87201072D01*
X120745250Y-87198000D01*
X120904000Y-87039250D01*
X120904000Y-86090000D01*
X121158000Y-86090000D01*
X121158000Y-87039250D01*
X121316750Y-87198000D01*
X121731000Y-87201072D01*
X121855482Y-87188812D01*
X121975180Y-87152502D01*
X122085494Y-87093537D01*
X122182185Y-87014185D01*
X122261537Y-86917494D01*
X122320502Y-86807180D01*
X122356812Y-86687482D01*
X122369072Y-86563000D01*
X122366000Y-86248750D01*
X122207250Y-86090000D01*
X121158000Y-86090000D01*
X120904000Y-86090000D01*
X119854750Y-86090000D01*
X119696000Y-86248750D01*
X119692928Y-86563000D01*
X118242250Y-86563000D01*
X118166250Y-86487000D01*
X116967000Y-86487000D01*
X116713000Y-86487000D01*
X115513750Y-86487000D01*
X115355000Y-86645750D01*
X115351928Y-87210000D01*
X110336625Y-87210000D01*
X110336406Y-85510000D01*
X115351928Y-85510000D01*
X115355000Y-86074250D01*
X115513750Y-86233000D01*
X116713000Y-86233000D01*
X116713000Y-86213000D01*
X116967000Y-86213000D01*
X116967000Y-86233000D01*
X118166250Y-86233000D01*
X118325000Y-86074250D01*
X118328072Y-85510000D01*
X118315812Y-85385518D01*
X118279502Y-85265820D01*
X118220537Y-85155506D01*
X118141185Y-85058815D01*
X118044494Y-84979463D01*
X117934180Y-84920498D01*
X117861620Y-84898487D01*
X117993475Y-84766632D01*
X118155990Y-84523411D01*
X118267932Y-84253158D01*
X118325000Y-83966260D01*
X118325000Y-83673740D01*
X118267932Y-83386842D01*
X118155990Y-83116589D01*
X117993475Y-82873368D01*
X117786843Y-82666736D01*
X119842507Y-80611072D01*
X120204000Y-80611072D01*
X120377254Y-80594008D01*
X120543850Y-80543472D01*
X120697386Y-80461405D01*
X120831962Y-80350962D01*
X120904000Y-80263183D01*
X120976038Y-80350962D01*
X121110614Y-80461405D01*
X121264150Y-80543472D01*
X121430746Y-80594008D01*
X121604000Y-80611072D01*
X122104000Y-80611072D01*
X122277254Y-80594008D01*
X122443850Y-80543472D01*
X122597386Y-80461405D01*
X122731962Y-80350962D01*
X122842405Y-80216386D01*
X122924472Y-80062850D01*
X122975008Y-79896254D01*
X122992072Y-79723000D01*
X122992072Y-79361506D01*
X123420580Y-78932999D01*
X124312928Y-78932999D01*
X124312928Y-79159493D01*
X120747494Y-82724928D01*
X120580999Y-82724928D01*
X120407745Y-82741992D01*
X120241149Y-82792528D01*
X120087613Y-82874595D01*
X119953038Y-82985038D01*
X119842595Y-83119613D01*
X119760528Y-83273149D01*
X119709992Y-83439745D01*
X119692928Y-83612999D01*
X119692928Y-84313001D01*
X119709992Y-84486255D01*
X119760528Y-84652851D01*
X119842595Y-84806387D01*
X119909276Y-84887637D01*
X119879815Y-84911815D01*
X119800463Y-85008506D01*
X119741498Y-85118820D01*
X119705188Y-85238518D01*
X119692928Y-85363000D01*
X119696000Y-85677250D01*
X119854750Y-85836000D01*
X120904000Y-85836000D01*
X120904000Y-85816000D01*
X121158000Y-85816000D01*
X121158000Y-85836000D01*
X122207250Y-85836000D01*
X122366000Y-85677250D01*
X122369072Y-85363000D01*
X122356812Y-85238518D01*
X122320502Y-85118820D01*
X122261537Y-85008506D01*
X122182185Y-84911815D01*
X122152724Y-84887637D01*
X122219405Y-84806387D01*
X122301472Y-84652851D01*
X122352008Y-84486255D01*
X122369072Y-84313001D01*
X122369072Y-83612999D01*
X122368490Y-83607088D01*
X125339507Y-80636072D01*
X125861001Y-80636072D01*
X125861000Y-82326421D01*
X125589493Y-82597928D01*
X125152999Y-82597928D01*
X124979745Y-82614992D01*
X124813149Y-82665528D01*
X124659613Y-82747595D01*
X124525038Y-82858038D01*
X124414595Y-82992613D01*
X124332528Y-83146149D01*
X124281992Y-83312745D01*
X124264928Y-83485999D01*
X124264928Y-84186001D01*
X124281992Y-84359255D01*
X124332528Y-84525851D01*
X124414595Y-84679387D01*
X124525038Y-84813962D01*
X124551891Y-84836000D01*
X124525038Y-84858038D01*
X124414595Y-84992613D01*
X124332528Y-85146149D01*
X124281992Y-85312745D01*
X124264928Y-85485999D01*
X124264928Y-86186001D01*
X124281992Y-86359255D01*
X124332528Y-86525851D01*
X124414595Y-86679387D01*
X124525038Y-86813962D01*
X124659613Y-86924405D01*
X124813149Y-87006472D01*
X124979745Y-87057008D01*
X125152999Y-87074072D01*
X126053001Y-87074072D01*
X126226255Y-87057008D01*
X126392851Y-87006472D01*
X126546387Y-86924405D01*
X126680962Y-86813962D01*
X126757254Y-86721000D01*
X128982531Y-86721000D01*
X129026000Y-86725281D01*
X129069469Y-86721000D01*
X129069477Y-86721000D01*
X129199490Y-86708195D01*
X129366313Y-86657589D01*
X129520059Y-86575411D01*
X129654817Y-86464817D01*
X129682534Y-86431044D01*
X130389105Y-85724474D01*
X130391000Y-86350250D01*
X130549750Y-86509000D01*
X131699000Y-86509000D01*
X131699000Y-86489000D01*
X131953000Y-86489000D01*
X131953000Y-86509000D01*
X133102250Y-86509000D01*
X133261000Y-86350250D01*
X133264072Y-85336000D01*
X133251812Y-85211518D01*
X133215502Y-85091820D01*
X133156537Y-84981506D01*
X133077185Y-84884815D01*
X132980494Y-84805463D01*
X132927187Y-84776969D01*
X133003962Y-84713962D01*
X133114405Y-84579386D01*
X133196472Y-84425850D01*
X133247008Y-84259254D01*
X133264072Y-84086000D01*
X133264072Y-83921000D01*
X134755422Y-83921000D01*
X136583928Y-85749507D01*
X136583928Y-86186001D01*
X136600992Y-86359255D01*
X136651528Y-86525851D01*
X136733595Y-86679387D01*
X136844038Y-86813962D01*
X136978613Y-86924405D01*
X137132149Y-87006472D01*
X137298745Y-87057008D01*
X137471999Y-87074072D01*
X138372001Y-87074072D01*
X138545255Y-87057008D01*
X138711851Y-87006472D01*
X138865387Y-86924405D01*
X138999962Y-86813962D01*
X139110405Y-86679387D01*
X139192472Y-86525851D01*
X139219727Y-86436000D01*
X141155928Y-86436000D01*
X141168188Y-86560482D01*
X141204498Y-86680180D01*
X141263463Y-86790494D01*
X141342815Y-86887185D01*
X141439506Y-86966537D01*
X141549820Y-87025502D01*
X141669518Y-87061812D01*
X141794000Y-87074072D01*
X142208250Y-87071000D01*
X142367000Y-86912250D01*
X142367000Y-85963000D01*
X142621000Y-85963000D01*
X142621000Y-86912250D01*
X142779750Y-87071000D01*
X143194000Y-87074072D01*
X143318482Y-87061812D01*
X143438180Y-87025502D01*
X143548494Y-86966537D01*
X143645185Y-86887185D01*
X143724537Y-86790494D01*
X143783502Y-86680180D01*
X143819812Y-86560482D01*
X143832072Y-86436000D01*
X143829000Y-86121750D01*
X143670250Y-85963000D01*
X142621000Y-85963000D01*
X142367000Y-85963000D01*
X141317750Y-85963000D01*
X141159000Y-86121750D01*
X141155928Y-86436000D01*
X139219727Y-86436000D01*
X139243008Y-86359255D01*
X139260072Y-86186001D01*
X139260072Y-85485999D01*
X139243008Y-85312745D01*
X139192472Y-85146149D01*
X139110405Y-84992613D01*
X138999962Y-84858038D01*
X138973109Y-84836000D01*
X138999962Y-84813962D01*
X139076254Y-84721000D01*
X141339746Y-84721000D01*
X141372276Y-84760637D01*
X141342815Y-84784815D01*
X141263463Y-84881506D01*
X141204498Y-84991820D01*
X141168188Y-85111518D01*
X141155928Y-85236000D01*
X141159000Y-85550250D01*
X141317750Y-85709000D01*
X142367000Y-85709000D01*
X142367000Y-85689000D01*
X142621000Y-85689000D01*
X142621000Y-85709000D01*
X143670250Y-85709000D01*
X143829000Y-85550250D01*
X143832072Y-85236000D01*
X143819812Y-85111518D01*
X143783502Y-84991820D01*
X143724537Y-84881506D01*
X143645185Y-84784815D01*
X143615724Y-84760637D01*
X143682405Y-84679387D01*
X143764472Y-84525851D01*
X143815008Y-84359255D01*
X143832072Y-84186001D01*
X143832072Y-83485999D01*
X143815008Y-83312745D01*
X143764472Y-83146149D01*
X143682405Y-82992613D01*
X143571962Y-82858038D01*
X143437387Y-82747595D01*
X143379000Y-82716386D01*
X143379000Y-81138578D01*
X144135507Y-80382072D01*
X144657000Y-80382072D01*
X144657001Y-82141521D01*
X144652719Y-82185000D01*
X144669805Y-82358490D01*
X144720412Y-82525313D01*
X144802590Y-82679059D01*
X144885468Y-82780046D01*
X144885471Y-82780049D01*
X144913184Y-82813817D01*
X144946951Y-82841529D01*
X145854928Y-83749507D01*
X145854928Y-84186001D01*
X145871992Y-84359255D01*
X145922528Y-84525851D01*
X146004595Y-84679387D01*
X146115038Y-84813962D01*
X146141891Y-84836000D01*
X146115038Y-84858038D01*
X146004595Y-84992613D01*
X145922528Y-85146149D01*
X145871992Y-85312745D01*
X145854928Y-85485999D01*
X145854928Y-85922494D01*
X145708951Y-86068471D01*
X145675184Y-86096183D01*
X145647471Y-86129951D01*
X145647468Y-86129954D01*
X145564590Y-86230941D01*
X145482412Y-86384687D01*
X145431805Y-86551510D01*
X145414719Y-86725000D01*
X145419001Y-86768479D01*
X145419001Y-87923375D01*
X145329518Y-87932188D01*
X145209820Y-87968498D01*
X145099506Y-88027463D01*
X145002815Y-88106815D01*
X144923463Y-88203506D01*
X144864498Y-88313820D01*
X144840034Y-88394466D01*
X144764269Y-88310412D01*
X144530920Y-88136359D01*
X144268099Y-88011175D01*
X144120890Y-87966524D01*
X143891000Y-88087845D01*
X143891000Y-89281000D01*
X143911000Y-89281000D01*
X143911000Y-89535000D01*
X143891000Y-89535000D01*
X143891000Y-90728155D01*
X144120890Y-90849476D01*
X144268099Y-90804825D01*
X144530920Y-90679641D01*
X144764269Y-90505588D01*
X144840034Y-90421534D01*
X144864498Y-90502180D01*
X144923463Y-90612494D01*
X145002815Y-90709185D01*
X145099506Y-90788537D01*
X145209820Y-90847502D01*
X145329518Y-90883812D01*
X145454000Y-90896072D01*
X147154000Y-90896072D01*
X147278482Y-90883812D01*
X147398180Y-90847502D01*
X147508494Y-90788537D01*
X147605185Y-90709185D01*
X147684537Y-90612494D01*
X147743502Y-90502180D01*
X147779812Y-90382482D01*
X147792072Y-90258000D01*
X147792072Y-89764891D01*
X151212519Y-89764891D01*
X151309843Y-90039252D01*
X151458822Y-90289355D01*
X151653731Y-90505588D01*
X151887080Y-90679641D01*
X152149901Y-90804825D01*
X152297110Y-90849476D01*
X152527000Y-90728155D01*
X152527000Y-89535000D01*
X151333186Y-89535000D01*
X151212519Y-89764891D01*
X147792072Y-89764891D01*
X147792072Y-89051109D01*
X151212519Y-89051109D01*
X151333186Y-89281000D01*
X152527000Y-89281000D01*
X152527000Y-88087845D01*
X152297110Y-87966524D01*
X152149901Y-88011175D01*
X151887080Y-88136359D01*
X151653731Y-88310412D01*
X151458822Y-88526645D01*
X151309843Y-88776748D01*
X151212519Y-89051109D01*
X147792072Y-89051109D01*
X147792072Y-88558000D01*
X147779812Y-88433518D01*
X147743502Y-88313820D01*
X147684537Y-88203506D01*
X147605185Y-88106815D01*
X147508494Y-88027463D01*
X147398180Y-87968498D01*
X147278482Y-87932188D01*
X147189000Y-87923375D01*
X147189000Y-87091578D01*
X147206506Y-87074072D01*
X147643001Y-87074072D01*
X147816255Y-87057008D01*
X147982851Y-87006472D01*
X148136387Y-86924405D01*
X148270962Y-86813962D01*
X148347254Y-86721000D01*
X150737746Y-86721000D01*
X150814038Y-86813962D01*
X150948613Y-86924405D01*
X151102149Y-87006472D01*
X151268745Y-87057008D01*
X151441999Y-87074072D01*
X152342001Y-87074072D01*
X152515255Y-87057008D01*
X152681851Y-87006472D01*
X152835387Y-86924405D01*
X152969962Y-86813962D01*
X153080405Y-86679387D01*
X153162472Y-86525851D01*
X153213008Y-86359255D01*
X153230072Y-86186001D01*
X153230072Y-85485999D01*
X153213008Y-85312745D01*
X153162472Y-85146149D01*
X153080405Y-84992613D01*
X152969962Y-84858038D01*
X152943109Y-84836000D01*
X152969962Y-84813962D01*
X153046254Y-84721000D01*
X155198780Y-84721000D01*
X155234038Y-84763962D01*
X155321817Y-84836000D01*
X155234038Y-84908038D01*
X155123595Y-85042614D01*
X155041528Y-85196150D01*
X154990992Y-85362746D01*
X154973928Y-85536000D01*
X154973928Y-85897494D01*
X154598951Y-86272471D01*
X154565184Y-86300183D01*
X154537471Y-86333951D01*
X154537468Y-86333954D01*
X154454590Y-86434941D01*
X154372412Y-86588687D01*
X154321805Y-86755510D01*
X154304719Y-86929000D01*
X154309001Y-86972479D01*
X154309001Y-87923375D01*
X154219518Y-87932188D01*
X154099820Y-87968498D01*
X153989506Y-88027463D01*
X153892815Y-88106815D01*
X153813463Y-88203506D01*
X153754498Y-88313820D01*
X153730034Y-88394466D01*
X153654269Y-88310412D01*
X153420920Y-88136359D01*
X153158099Y-88011175D01*
X153010890Y-87966524D01*
X152781000Y-88087845D01*
X152781000Y-89281000D01*
X152801000Y-89281000D01*
X152801000Y-89535000D01*
X152781000Y-89535000D01*
X152781000Y-90728155D01*
X153010890Y-90849476D01*
X153158099Y-90804825D01*
X153420920Y-90679641D01*
X153654269Y-90505588D01*
X153730034Y-90421534D01*
X153754498Y-90502180D01*
X153813463Y-90612494D01*
X153892815Y-90709185D01*
X153989506Y-90788537D01*
X154099820Y-90847502D01*
X154219518Y-90883812D01*
X154344000Y-90896072D01*
X156044000Y-90896072D01*
X156168482Y-90883812D01*
X156288180Y-90847502D01*
X156398494Y-90788537D01*
X156495185Y-90709185D01*
X156574537Y-90612494D01*
X156633502Y-90502180D01*
X156669812Y-90382482D01*
X156682072Y-90258000D01*
X156682072Y-88558000D01*
X156669812Y-88433518D01*
X156633502Y-88313820D01*
X156574537Y-88203506D01*
X156495185Y-88106815D01*
X156398494Y-88027463D01*
X156288180Y-87968498D01*
X156168482Y-87932188D01*
X156079000Y-87923375D01*
X156079000Y-87295578D01*
X156450507Y-86924072D01*
X156812000Y-86924072D01*
X156985254Y-86907008D01*
X157151850Y-86856472D01*
X157305386Y-86774405D01*
X157439962Y-86663962D01*
X157550405Y-86529386D01*
X157632472Y-86375850D01*
X157683008Y-86209254D01*
X157700072Y-86036000D01*
X157700072Y-85536000D01*
X157683008Y-85362746D01*
X157632472Y-85196150D01*
X157550405Y-85042614D01*
X157439962Y-84908038D01*
X157352183Y-84836000D01*
X157439962Y-84763962D01*
X157550405Y-84629386D01*
X157632472Y-84475850D01*
X157683008Y-84309254D01*
X157700072Y-84136000D01*
X157700072Y-83636000D01*
X157683008Y-83462746D01*
X157632472Y-83296150D01*
X157550405Y-83142614D01*
X157439962Y-83008038D01*
X157305386Y-82897595D01*
X157151850Y-82815528D01*
X156985254Y-82764992D01*
X156812000Y-82747928D01*
X155862000Y-82747928D01*
X155688746Y-82764992D01*
X155522150Y-82815528D01*
X155368614Y-82897595D01*
X155303539Y-82951000D01*
X153046254Y-82951000D01*
X152969962Y-82858038D01*
X152835387Y-82747595D01*
X152681851Y-82665528D01*
X152515255Y-82614992D01*
X152342001Y-82597928D01*
X151905507Y-82597928D01*
X147966800Y-78659222D01*
X147955215Y-78541600D01*
X147888885Y-78322940D01*
X147781171Y-78121421D01*
X147636212Y-77944788D01*
X147459578Y-77799829D01*
X147258059Y-77692115D01*
X147039399Y-77625785D01*
X146812000Y-77603388D01*
X146584600Y-77625785D01*
X146365940Y-77692115D01*
X146303178Y-77725662D01*
X146281411Y-77684939D01*
X146170817Y-77550181D01*
X146137045Y-77522465D01*
X145813535Y-77198955D01*
X145785818Y-77165182D01*
X145651060Y-77054588D01*
X145497314Y-76972410D01*
X145330491Y-76921804D01*
X145200478Y-76908999D01*
X145200470Y-76908999D01*
X145157001Y-76904718D01*
X145113532Y-76908999D01*
X129513470Y-76908999D01*
X129470001Y-76904718D01*
X129426532Y-76908999D01*
X129426524Y-76908999D01*
X129318950Y-76919594D01*
X129296510Y-76921804D01*
X129245904Y-76937156D01*
X129129688Y-76972410D01*
X129011592Y-77035533D01*
X128975942Y-77054588D01*
X128874954Y-77137467D01*
X128874952Y-77137469D01*
X128841184Y-77165182D01*
X128813471Y-77198950D01*
X128142568Y-77869854D01*
X128016000Y-77857388D01*
X127788600Y-77879785D01*
X127569940Y-77946115D01*
X127507178Y-77979662D01*
X127485411Y-77938939D01*
X127374817Y-77804181D01*
X127341045Y-77776465D01*
X127017535Y-77452955D01*
X126989818Y-77419182D01*
X126855060Y-77308588D01*
X126701314Y-77226410D01*
X126534491Y-77175804D01*
X126404478Y-77162999D01*
X126404470Y-77162999D01*
X126361001Y-77158718D01*
X126317532Y-77162999D01*
X123097470Y-77162999D01*
X123054001Y-77158718D01*
X123010532Y-77162999D01*
X123010524Y-77162999D01*
X122880511Y-77175804D01*
X122713687Y-77226410D01*
X122559942Y-77308588D01*
X122458954Y-77391467D01*
X122458952Y-77391469D01*
X122425184Y-77419182D01*
X122397471Y-77452950D01*
X121965493Y-77884928D01*
X121604000Y-77884928D01*
X121430746Y-77901992D01*
X121264150Y-77952528D01*
X121110614Y-78034595D01*
X120976038Y-78145038D01*
X120904000Y-78232817D01*
X120831962Y-78145038D01*
X120697386Y-78034595D01*
X120543850Y-77952528D01*
X120377254Y-77901992D01*
X120204000Y-77884928D01*
X119704000Y-77884928D01*
X119530746Y-77901992D01*
X119364150Y-77952528D01*
X119210614Y-78034595D01*
X119076038Y-78145038D01*
X118965595Y-78279614D01*
X118883528Y-78433150D01*
X118832992Y-78599746D01*
X118815928Y-78773000D01*
X118815928Y-79134493D01*
X116244951Y-81705471D01*
X116211184Y-81733183D01*
X116183471Y-81766951D01*
X116183468Y-81766954D01*
X116100590Y-81867941D01*
X116018412Y-82021687D01*
X115967805Y-82188510D01*
X115950719Y-82362000D01*
X115955001Y-82405479D01*
X115955001Y-82625343D01*
X115893368Y-82666525D01*
X115686525Y-82873368D01*
X115524010Y-83116589D01*
X115412068Y-83386842D01*
X115355000Y-83673740D01*
X115355000Y-83966260D01*
X115412068Y-84253158D01*
X115524010Y-84523411D01*
X115686525Y-84766632D01*
X115818380Y-84898487D01*
X115745820Y-84920498D01*
X115635506Y-84979463D01*
X115538815Y-85058815D01*
X115459463Y-85155506D01*
X115400498Y-85265820D01*
X115364188Y-85385518D01*
X115351928Y-85510000D01*
X110336406Y-85510000D01*
X110335643Y-79587918D01*
X112798775Y-78501065D01*
X115699999Y-77392650D01*
X118653616Y-76432426D01*
X121652023Y-75622868D01*
X124687563Y-74966040D01*
X127752405Y-74463637D01*
X130838785Y-74116932D01*
X133938708Y-73926822D01*
X137044318Y-73893790D01*
X140147627Y-74017922D01*
G37*
%TD.AperFunction*%
%TD*%
D17*
X133092561Y-81023000D02*
X130525000Y-81023000D01*
X130500224Y-81025440D01*
X130476399Y-81032667D01*
X130454443Y-81044403D01*
X130435197Y-81060197D01*
X130419403Y-81079443D01*
X130407667Y-81101399D01*
X130398981Y-81134248D01*
X130251338Y-82315389D01*
X129403336Y-84207085D01*
X128659422Y-84951000D01*
X126890464Y-84951000D01*
X127247243Y-83684435D01*
X127251930Y-83654231D01*
X127259364Y-83431215D01*
X127341050Y-83349529D01*
X127374817Y-83321817D01*
X127485411Y-83187059D01*
X127567589Y-83033313D01*
X127618195Y-82866490D01*
X127631000Y-82736477D01*
X127631000Y-82736467D01*
X127635281Y-82693001D01*
X127631000Y-82649535D01*
X127631000Y-80660096D01*
X127782492Y-80614362D01*
X127788601Y-80616215D01*
X128016000Y-80638612D01*
X128243400Y-80616215D01*
X128462060Y-80549885D01*
X128663579Y-80442171D01*
X128840212Y-80297212D01*
X128985171Y-80120579D01*
X129092885Y-79919059D01*
X129159215Y-79700399D01*
X129166985Y-79621505D01*
X129842587Y-78697723D01*
X130119702Y-78678999D01*
X133266778Y-78678999D01*
X133092561Y-81023000D01*
%TA.AperFunction,NonConductor*%
D18*
G36*
X133092561Y-81023000D02*
G01*
X130525000Y-81023000D01*
X130500224Y-81025440D01*
X130476399Y-81032667D01*
X130454443Y-81044403D01*
X130435197Y-81060197D01*
X130419403Y-81079443D01*
X130407667Y-81101399D01*
X130398981Y-81134248D01*
X130251338Y-82315389D01*
X129403336Y-84207085D01*
X128659422Y-84951000D01*
X126890464Y-84951000D01*
X127247243Y-83684435D01*
X127251930Y-83654231D01*
X127259364Y-83431215D01*
X127341050Y-83349529D01*
X127374817Y-83321817D01*
X127485411Y-83187059D01*
X127567589Y-83033313D01*
X127618195Y-82866490D01*
X127631000Y-82736477D01*
X127631000Y-82736467D01*
X127635281Y-82693001D01*
X127631000Y-82649535D01*
X127631000Y-80660096D01*
X127782492Y-80614362D01*
X127788601Y-80616215D01*
X128016000Y-80638612D01*
X128243400Y-80616215D01*
X128462060Y-80549885D01*
X128663579Y-80442171D01*
X128840212Y-80297212D01*
X128985171Y-80120579D01*
X129092885Y-79919059D01*
X129159215Y-79700399D01*
X129166985Y-79621505D01*
X129842587Y-78697723D01*
X130119702Y-78678999D01*
X133266778Y-78678999D01*
X133092561Y-81023000D01*
G37*
%TD.AperFunction*%
D17*
X143075862Y-78938559D02*
X141898951Y-80115471D01*
X141865184Y-80143183D01*
X141837471Y-80176951D01*
X141837468Y-80176954D01*
X141754590Y-80277941D01*
X141672412Y-80431687D01*
X141621805Y-80598510D01*
X141604719Y-80772000D01*
X141609001Y-80815479D01*
X141609000Y-82716386D01*
X141550613Y-82747595D01*
X141416038Y-82858038D01*
X141386304Y-82894269D01*
X139755297Y-82951000D01*
X139076254Y-82951000D01*
X138999962Y-82858038D01*
X138865387Y-82747595D01*
X138711851Y-82665528D01*
X138545255Y-82614992D01*
X138372001Y-82597928D01*
X137471999Y-82597928D01*
X137298745Y-82614992D01*
X137132149Y-82665528D01*
X136978613Y-82747595D01*
X136844038Y-82858038D01*
X136733595Y-82992613D01*
X136699016Y-83057306D01*
X136405107Y-83067529D01*
X135778534Y-82440956D01*
X135750817Y-82407183D01*
X135616059Y-82296589D01*
X135462313Y-82214411D01*
X135295490Y-82163805D01*
X135165477Y-82151000D01*
X135165469Y-82151000D01*
X135122000Y-82146719D01*
X135078531Y-82151000D01*
X133264072Y-82151000D01*
X133264072Y-82142292D01*
X133518023Y-78725502D01*
X137154539Y-78678999D01*
X143060131Y-78678999D01*
X143075862Y-78938559D01*
%TA.AperFunction,NonConductor*%
D18*
G36*
X143075862Y-78938559D02*
G01*
X141898951Y-80115471D01*
X141865184Y-80143183D01*
X141837471Y-80176951D01*
X141837468Y-80176954D01*
X141754590Y-80277941D01*
X141672412Y-80431687D01*
X141621805Y-80598510D01*
X141604719Y-80772000D01*
X141609001Y-80815479D01*
X141609000Y-82716386D01*
X141550613Y-82747595D01*
X141416038Y-82858038D01*
X141386304Y-82894269D01*
X139755297Y-82951000D01*
X139076254Y-82951000D01*
X138999962Y-82858038D01*
X138865387Y-82747595D01*
X138711851Y-82665528D01*
X138545255Y-82614992D01*
X138372001Y-82597928D01*
X137471999Y-82597928D01*
X137298745Y-82614992D01*
X137132149Y-82665528D01*
X136978613Y-82747595D01*
X136844038Y-82858038D01*
X136733595Y-82992613D01*
X136699016Y-83057306D01*
X136405107Y-83067529D01*
X135778534Y-82440956D01*
X135750817Y-82407183D01*
X135616059Y-82296589D01*
X135462313Y-82214411D01*
X135295490Y-82163805D01*
X135165477Y-82151000D01*
X135165469Y-82151000D01*
X135122000Y-82146719D01*
X135078531Y-82151000D01*
X133264072Y-82151000D01*
X133264072Y-82142292D01*
X133518023Y-78725502D01*
X137154539Y-78678999D01*
X143060131Y-78678999D01*
X143075862Y-78938559D01*
G37*
%TD.AperFunction*%
D17*
X146584601Y-80362215D02*
X146812000Y-80384612D01*
X147039400Y-80362215D01*
X147137023Y-80332601D01*
X148841037Y-82036616D01*
X148204163Y-82690704D01*
X148023317Y-82687158D01*
X147982851Y-82665528D01*
X147816255Y-82614992D01*
X147643001Y-82597928D01*
X147245039Y-82597928D01*
X147080401Y-82471822D01*
X146427000Y-81818422D01*
X146427000Y-80314407D01*
X146584601Y-80362215D01*
%TA.AperFunction,NonConductor*%
D18*
G36*
X146584601Y-80362215D02*
G01*
X146812000Y-80384612D01*
X147039400Y-80362215D01*
X147137023Y-80332601D01*
X148841037Y-82036616D01*
X148204163Y-82690704D01*
X148023317Y-82687158D01*
X147982851Y-82665528D01*
X147816255Y-82614992D01*
X147643001Y-82597928D01*
X147245039Y-82597928D01*
X147080401Y-82471822D01*
X146427000Y-81818422D01*
X146427000Y-80314407D01*
X146584601Y-80362215D01*
G37*
%TD.AperFunction*%
D17*
X150553928Y-83749507D02*
X150553928Y-84186001D01*
X150570992Y-84359255D01*
X150621528Y-84525851D01*
X150668254Y-84613269D01*
X150659811Y-84951000D01*
X148381713Y-84951000D01*
X148384327Y-84673921D01*
X148463472Y-84525851D01*
X148514008Y-84359255D01*
X148531072Y-84186001D01*
X148531072Y-83485999D01*
X148514008Y-83312745D01*
X148463472Y-83146149D01*
X148399863Y-83027145D01*
X148401514Y-82852115D01*
X149020658Y-82216237D01*
X150553928Y-83749507D01*
%TA.AperFunction,NonConductor*%
D18*
G36*
X150553928Y-83749507D02*
G01*
X150553928Y-84186001D01*
X150570992Y-84359255D01*
X150621528Y-84525851D01*
X150668254Y-84613269D01*
X150659811Y-84951000D01*
X148381713Y-84951000D01*
X148384327Y-84673921D01*
X148463472Y-84525851D01*
X148514008Y-84359255D01*
X148531072Y-84186001D01*
X148531072Y-83485999D01*
X148514008Y-83312745D01*
X148463472Y-83146149D01*
X148399863Y-83027145D01*
X148401514Y-82852115D01*
X149020658Y-82216237D01*
X150553928Y-83749507D01*
G37*
%TD.AperFunction*%
M02*
