M48
;DRILL file {KiCad (5.0.1)-3} date 23.11.2020 15:35:41
;FORMAT={-:-/ absolute / inch / decimal}
FMAT,2
INCH,TZ
T1C0.0157
T2C0.0354
T3C0.0394
T4C0.0591
%
G90
G05
M72
T1
X4.9134Y-4.1575
X5.0236Y-3.748
X5.0472Y-2.5157
X5.1187Y-3.4089
X5.22Y-2.54
X5.2225Y-3.0435
X5.38Y-2.64
X5.7539Y-3.6063
X5.8661Y-3.5591
T2
X3.2283Y-2.9685
X3.2283Y-3.0669
X3.2283Y-3.1654
X3.3583Y-2.9685
X3.3583Y-3.0669
X3.3583Y-3.1654
T3
X3.3583Y-3.4331
X3.3583Y-3.5331
X3.3583Y-3.6331
X5.5791Y-2.6031
X5.5791Y-2.8
X6.15Y-2.6031
X6.15Y-2.7016
X6.15Y-2.8
X4.2552Y-2.28
X4.3552Y-2.28
X4.4552Y-2.28
X4.5552Y-2.28
X4.615Y-4.18
X4.6552Y-2.28
X4.715Y-4.18
X4.7552Y-2.28
X4.815Y-4.18
X4.8552Y-2.28
X4.915Y-4.18
X4.9552Y-2.28
X5.015Y-4.18
X5.0552Y-2.28
X5.115Y-4.18
X5.1552Y-2.28
X5.215Y-4.18
X5.315Y-2.28
X5.315Y-4.18
X5.415Y-2.28
X5.515Y-2.28
X5.515Y-4.18
X5.615Y-2.28
X5.615Y-4.18
X5.715Y-2.28
X5.715Y-4.18
X5.815Y-2.28
X5.815Y-4.18
X5.915Y-2.28
X5.915Y-4.18
X6.015Y-2.28
X6.015Y-4.18
X3.725Y-2.29
X3.825Y-2.29
X3.925Y-2.29
X4.025Y-2.29
X6.1417Y-3.5614
X6.1417Y-3.6614
T4
X5.8803Y-2.4811G85X5.8291Y-2.4811
G05
X5.8803Y-2.922G85X5.8291Y-2.922
G05
T0
M30
