%TF.GenerationSoftware,KiCad,Pcbnew,(5.0.1)-3*%
%TF.CreationDate,2020-11-23T15:34:51+02:00*%
%TF.ProjectId,Function_generator,46756E6374696F6E5F67656E65726174,rev?*%
%TF.SameCoordinates,Original*%
%TF.FileFunction,Legend,Bot*%
%TF.FilePolarity,Positive*%
%FSLAX46Y46*%
G04 Gerber Fmt 4.6, Leading zero omitted, Abs format (unit mm)*
G04 Created by KiCad (PCBNEW (5.0.1)-3) date 23.11.2020 15:34:51*
%MOMM*%
%LPD*%
G01*
G04 APERTURE LIST*
%ADD10C,0.120000*%
%ADD11C,0.150000*%
G04 APERTURE END LIST*
D10*
%TO.C,A1*%
X155451000Y-68322000D02*
X157991000Y-70862000D01*
X155451000Y-56892000D02*
X155451000Y-68322000D01*
X153801000Y-55242000D02*
X155451000Y-56892000D01*
X89151000Y-55242000D02*
X153801000Y-55242000D01*
X89151000Y-64772000D02*
X89151000Y-55242000D01*
X82801000Y-64772000D02*
X89151000Y-64772000D01*
X82801000Y-76452000D02*
X82801000Y-64772000D01*
X89151000Y-76452000D02*
X82801000Y-76452000D01*
X89151000Y-96522000D02*
X89151000Y-76452000D01*
X87251000Y-96522000D02*
X89151000Y-96522000D01*
X87251000Y-105662000D02*
X87251000Y-96522000D01*
X89151000Y-105662000D02*
X87251000Y-105662000D01*
X89151000Y-108842000D02*
X89151000Y-105662000D01*
X155451000Y-108842000D02*
X89151000Y-108842000D01*
X155451000Y-106172000D02*
X155451000Y-108842000D01*
X157991000Y-103632000D02*
X155451000Y-106172000D01*
X157991000Y-70862000D02*
X157991000Y-103632000D01*
D11*
X119205285Y-110148666D02*
X118729095Y-110148666D01*
X119300523Y-110434380D02*
X118967190Y-109434380D01*
X118633857Y-110434380D01*
X117776714Y-110434380D02*
X118348142Y-110434380D01*
X118062428Y-110434380D02*
X118062428Y-109434380D01*
X118157666Y-109577238D01*
X118252904Y-109672476D01*
X118348142Y-109720095D01*
%TD*%
M02*
