%TF.GenerationSoftware,KiCad,Pcbnew,(5.0.1)-3*%
%TF.CreationDate,2020-11-23T15:34:51+02:00*%
%TF.ProjectId,Function_generator,46756E6374696F6E5F67656E65726174,rev?*%
%TF.SameCoordinates,Original*%
%TF.FileFunction,Soldermask,Bot*%
%TF.FilePolarity,Negative*%
%FSLAX46Y46*%
G04 Gerber Fmt 4.6, Leading zero omitted, Abs format (unit mm)*
G04 Created by KiCad (PCBNEW (5.0.1)-3) date 23.11.2020 15:34:51*
%MOMM*%
%LPD*%
G01*
G04 APERTURE LIST*
%ADD10C,0.100000*%
G04 APERTURE END LIST*
D10*
G36*
X152898649Y-105379717D02*
X152937827Y-105383576D01*
X153013227Y-105406448D01*
X153088629Y-105429321D01*
X153227608Y-105503608D01*
X153349422Y-105603578D01*
X153449392Y-105725392D01*
X153523679Y-105864371D01*
X153569424Y-106015174D01*
X153584870Y-106172000D01*
X153569424Y-106328826D01*
X153523679Y-106479629D01*
X153449392Y-106618608D01*
X153349422Y-106740422D01*
X153227608Y-106840392D01*
X153088629Y-106914679D01*
X153013227Y-106937552D01*
X152937827Y-106960424D01*
X152898649Y-106964283D01*
X152820295Y-106972000D01*
X152741705Y-106972000D01*
X152663351Y-106964283D01*
X152624173Y-106960424D01*
X152548773Y-106937552D01*
X152473371Y-106914679D01*
X152334392Y-106840392D01*
X152212578Y-106740422D01*
X152112608Y-106618608D01*
X152038321Y-106479629D01*
X151992576Y-106328826D01*
X151977130Y-106172000D01*
X151992576Y-106015174D01*
X152038321Y-105864371D01*
X152112608Y-105725392D01*
X152212578Y-105603578D01*
X152334392Y-105503608D01*
X152473371Y-105429321D01*
X152548773Y-105406448D01*
X152624173Y-105383576D01*
X152663351Y-105379717D01*
X152741705Y-105372000D01*
X152820295Y-105372000D01*
X152898649Y-105379717D01*
X152898649Y-105379717D01*
G37*
G36*
X150358649Y-105379717D02*
X150397827Y-105383576D01*
X150473227Y-105406448D01*
X150548629Y-105429321D01*
X150687608Y-105503608D01*
X150809422Y-105603578D01*
X150909392Y-105725392D01*
X150983679Y-105864371D01*
X151029424Y-106015174D01*
X151044870Y-106172000D01*
X151029424Y-106328826D01*
X150983679Y-106479629D01*
X150909392Y-106618608D01*
X150809422Y-106740422D01*
X150687608Y-106840392D01*
X150548629Y-106914679D01*
X150473227Y-106937552D01*
X150397827Y-106960424D01*
X150358649Y-106964283D01*
X150280295Y-106972000D01*
X150201705Y-106972000D01*
X150123351Y-106964283D01*
X150084173Y-106960424D01*
X150008773Y-106937552D01*
X149933371Y-106914679D01*
X149794392Y-106840392D01*
X149672578Y-106740422D01*
X149572608Y-106618608D01*
X149498321Y-106479629D01*
X149452576Y-106328826D01*
X149437130Y-106172000D01*
X149452576Y-106015174D01*
X149498321Y-105864371D01*
X149572608Y-105725392D01*
X149672578Y-105603578D01*
X149794392Y-105503608D01*
X149933371Y-105429321D01*
X150008773Y-105406448D01*
X150084173Y-105383576D01*
X150123351Y-105379717D01*
X150201705Y-105372000D01*
X150280295Y-105372000D01*
X150358649Y-105379717D01*
X150358649Y-105379717D01*
G37*
G36*
X147818649Y-105379717D02*
X147857827Y-105383576D01*
X147933227Y-105406448D01*
X148008629Y-105429321D01*
X148147608Y-105503608D01*
X148269422Y-105603578D01*
X148369392Y-105725392D01*
X148443679Y-105864371D01*
X148489424Y-106015174D01*
X148504870Y-106172000D01*
X148489424Y-106328826D01*
X148443679Y-106479629D01*
X148369392Y-106618608D01*
X148269422Y-106740422D01*
X148147608Y-106840392D01*
X148008629Y-106914679D01*
X147933227Y-106937552D01*
X147857827Y-106960424D01*
X147818649Y-106964283D01*
X147740295Y-106972000D01*
X147661705Y-106972000D01*
X147583351Y-106964283D01*
X147544173Y-106960424D01*
X147468773Y-106937552D01*
X147393371Y-106914679D01*
X147254392Y-106840392D01*
X147132578Y-106740422D01*
X147032608Y-106618608D01*
X146958321Y-106479629D01*
X146912576Y-106328826D01*
X146897130Y-106172000D01*
X146912576Y-106015174D01*
X146958321Y-105864371D01*
X147032608Y-105725392D01*
X147132578Y-105603578D01*
X147254392Y-105503608D01*
X147393371Y-105429321D01*
X147468773Y-105406448D01*
X147544173Y-105383576D01*
X147583351Y-105379717D01*
X147661705Y-105372000D01*
X147740295Y-105372000D01*
X147818649Y-105379717D01*
X147818649Y-105379717D01*
G37*
G36*
X145278649Y-105379717D02*
X145317827Y-105383576D01*
X145393227Y-105406448D01*
X145468629Y-105429321D01*
X145607608Y-105503608D01*
X145729422Y-105603578D01*
X145829392Y-105725392D01*
X145903679Y-105864371D01*
X145949424Y-106015174D01*
X145964870Y-106172000D01*
X145949424Y-106328826D01*
X145903679Y-106479629D01*
X145829392Y-106618608D01*
X145729422Y-106740422D01*
X145607608Y-106840392D01*
X145468629Y-106914679D01*
X145393227Y-106937552D01*
X145317827Y-106960424D01*
X145278649Y-106964283D01*
X145200295Y-106972000D01*
X145121705Y-106972000D01*
X145043351Y-106964283D01*
X145004173Y-106960424D01*
X144928773Y-106937552D01*
X144853371Y-106914679D01*
X144714392Y-106840392D01*
X144592578Y-106740422D01*
X144492608Y-106618608D01*
X144418321Y-106479629D01*
X144372576Y-106328826D01*
X144357130Y-106172000D01*
X144372576Y-106015174D01*
X144418321Y-105864371D01*
X144492608Y-105725392D01*
X144592578Y-105603578D01*
X144714392Y-105503608D01*
X144853371Y-105429321D01*
X144928773Y-105406448D01*
X145004173Y-105383576D01*
X145043351Y-105379717D01*
X145121705Y-105372000D01*
X145200295Y-105372000D01*
X145278649Y-105379717D01*
X145278649Y-105379717D01*
G37*
G36*
X142738649Y-105379717D02*
X142777827Y-105383576D01*
X142853227Y-105406448D01*
X142928629Y-105429321D01*
X143067608Y-105503608D01*
X143189422Y-105603578D01*
X143289392Y-105725392D01*
X143363679Y-105864371D01*
X143409424Y-106015174D01*
X143424870Y-106172000D01*
X143409424Y-106328826D01*
X143363679Y-106479629D01*
X143289392Y-106618608D01*
X143189422Y-106740422D01*
X143067608Y-106840392D01*
X142928629Y-106914679D01*
X142853227Y-106937552D01*
X142777827Y-106960424D01*
X142738649Y-106964283D01*
X142660295Y-106972000D01*
X142581705Y-106972000D01*
X142503351Y-106964283D01*
X142464173Y-106960424D01*
X142388773Y-106937552D01*
X142313371Y-106914679D01*
X142174392Y-106840392D01*
X142052578Y-106740422D01*
X141952608Y-106618608D01*
X141878321Y-106479629D01*
X141832576Y-106328826D01*
X141817130Y-106172000D01*
X141832576Y-106015174D01*
X141878321Y-105864371D01*
X141952608Y-105725392D01*
X142052578Y-105603578D01*
X142174392Y-105503608D01*
X142313371Y-105429321D01*
X142388773Y-105406448D01*
X142464173Y-105383576D01*
X142503351Y-105379717D01*
X142581705Y-105372000D01*
X142660295Y-105372000D01*
X142738649Y-105379717D01*
X142738649Y-105379717D01*
G37*
G36*
X140198649Y-105379717D02*
X140237827Y-105383576D01*
X140313227Y-105406448D01*
X140388629Y-105429321D01*
X140527608Y-105503608D01*
X140649422Y-105603578D01*
X140749392Y-105725392D01*
X140823679Y-105864371D01*
X140869424Y-106015174D01*
X140884870Y-106172000D01*
X140869424Y-106328826D01*
X140823679Y-106479629D01*
X140749392Y-106618608D01*
X140649422Y-106740422D01*
X140527608Y-106840392D01*
X140388629Y-106914679D01*
X140313227Y-106937552D01*
X140237827Y-106960424D01*
X140198649Y-106964283D01*
X140120295Y-106972000D01*
X140041705Y-106972000D01*
X139963351Y-106964283D01*
X139924173Y-106960424D01*
X139848773Y-106937552D01*
X139773371Y-106914679D01*
X139634392Y-106840392D01*
X139512578Y-106740422D01*
X139412608Y-106618608D01*
X139338321Y-106479629D01*
X139292576Y-106328826D01*
X139277130Y-106172000D01*
X139292576Y-106015174D01*
X139338321Y-105864371D01*
X139412608Y-105725392D01*
X139512578Y-105603578D01*
X139634392Y-105503608D01*
X139773371Y-105429321D01*
X139848773Y-105406448D01*
X139924173Y-105383576D01*
X139963351Y-105379717D01*
X140041705Y-105372000D01*
X140120295Y-105372000D01*
X140198649Y-105379717D01*
X140198649Y-105379717D01*
G37*
G36*
X135118649Y-105379717D02*
X135157827Y-105383576D01*
X135233227Y-105406448D01*
X135308629Y-105429321D01*
X135447608Y-105503608D01*
X135569422Y-105603578D01*
X135669392Y-105725392D01*
X135743679Y-105864371D01*
X135789424Y-106015174D01*
X135804870Y-106172000D01*
X135789424Y-106328826D01*
X135743679Y-106479629D01*
X135669392Y-106618608D01*
X135569422Y-106740422D01*
X135447608Y-106840392D01*
X135308629Y-106914679D01*
X135233227Y-106937552D01*
X135157827Y-106960424D01*
X135118649Y-106964283D01*
X135040295Y-106972000D01*
X134961705Y-106972000D01*
X134883351Y-106964283D01*
X134844173Y-106960424D01*
X134768773Y-106937552D01*
X134693371Y-106914679D01*
X134554392Y-106840392D01*
X134432578Y-106740422D01*
X134332608Y-106618608D01*
X134258321Y-106479629D01*
X134212576Y-106328826D01*
X134197130Y-106172000D01*
X134212576Y-106015174D01*
X134258321Y-105864371D01*
X134332608Y-105725392D01*
X134432578Y-105603578D01*
X134554392Y-105503608D01*
X134693371Y-105429321D01*
X134768773Y-105406448D01*
X134844173Y-105383576D01*
X134883351Y-105379717D01*
X134961705Y-105372000D01*
X135040295Y-105372000D01*
X135118649Y-105379717D01*
X135118649Y-105379717D01*
G37*
G36*
X130038649Y-105379717D02*
X130077827Y-105383576D01*
X130153227Y-105406448D01*
X130228629Y-105429321D01*
X130367608Y-105503608D01*
X130489422Y-105603578D01*
X130589392Y-105725392D01*
X130663679Y-105864371D01*
X130709424Y-106015174D01*
X130724870Y-106172000D01*
X130709424Y-106328826D01*
X130663679Y-106479629D01*
X130589392Y-106618608D01*
X130489422Y-106740422D01*
X130367608Y-106840392D01*
X130228629Y-106914679D01*
X130153227Y-106937552D01*
X130077827Y-106960424D01*
X130038649Y-106964283D01*
X129960295Y-106972000D01*
X129881705Y-106972000D01*
X129803351Y-106964283D01*
X129764173Y-106960424D01*
X129688773Y-106937552D01*
X129613371Y-106914679D01*
X129474392Y-106840392D01*
X129352578Y-106740422D01*
X129252608Y-106618608D01*
X129178321Y-106479629D01*
X129132576Y-106328826D01*
X129117130Y-106172000D01*
X129132576Y-106015174D01*
X129178321Y-105864371D01*
X129252608Y-105725392D01*
X129352578Y-105603578D01*
X129474392Y-105503608D01*
X129613371Y-105429321D01*
X129688773Y-105406448D01*
X129764173Y-105383576D01*
X129803351Y-105379717D01*
X129881705Y-105372000D01*
X129960295Y-105372000D01*
X130038649Y-105379717D01*
X130038649Y-105379717D01*
G37*
G36*
X118021000Y-106972000D02*
X116421000Y-106972000D01*
X116421000Y-105372000D01*
X118021000Y-105372000D01*
X118021000Y-106972000D01*
X118021000Y-106972000D01*
G37*
G36*
X119878649Y-105379717D02*
X119917827Y-105383576D01*
X119993227Y-105406448D01*
X120068629Y-105429321D01*
X120207608Y-105503608D01*
X120329422Y-105603578D01*
X120429392Y-105725392D01*
X120503679Y-105864371D01*
X120549424Y-106015174D01*
X120564870Y-106172000D01*
X120549424Y-106328826D01*
X120503679Y-106479629D01*
X120429392Y-106618608D01*
X120329422Y-106740422D01*
X120207608Y-106840392D01*
X120068629Y-106914679D01*
X119993227Y-106937552D01*
X119917827Y-106960424D01*
X119878649Y-106964283D01*
X119800295Y-106972000D01*
X119721705Y-106972000D01*
X119643351Y-106964283D01*
X119604173Y-106960424D01*
X119528773Y-106937552D01*
X119453371Y-106914679D01*
X119314392Y-106840392D01*
X119192578Y-106740422D01*
X119092608Y-106618608D01*
X119018321Y-106479629D01*
X118972576Y-106328826D01*
X118957130Y-106172000D01*
X118972576Y-106015174D01*
X119018321Y-105864371D01*
X119092608Y-105725392D01*
X119192578Y-105603578D01*
X119314392Y-105503608D01*
X119453371Y-105429321D01*
X119528773Y-105406448D01*
X119604173Y-105383576D01*
X119643351Y-105379717D01*
X119721705Y-105372000D01*
X119800295Y-105372000D01*
X119878649Y-105379717D01*
X119878649Y-105379717D01*
G37*
G36*
X122418649Y-105379717D02*
X122457827Y-105383576D01*
X122533227Y-105406448D01*
X122608629Y-105429321D01*
X122747608Y-105503608D01*
X122869422Y-105603578D01*
X122969392Y-105725392D01*
X123043679Y-105864371D01*
X123089424Y-106015174D01*
X123104870Y-106172000D01*
X123089424Y-106328826D01*
X123043679Y-106479629D01*
X122969392Y-106618608D01*
X122869422Y-106740422D01*
X122747608Y-106840392D01*
X122608629Y-106914679D01*
X122533227Y-106937552D01*
X122457827Y-106960424D01*
X122418649Y-106964283D01*
X122340295Y-106972000D01*
X122261705Y-106972000D01*
X122183351Y-106964283D01*
X122144173Y-106960424D01*
X122068773Y-106937552D01*
X121993371Y-106914679D01*
X121854392Y-106840392D01*
X121732578Y-106740422D01*
X121632608Y-106618608D01*
X121558321Y-106479629D01*
X121512576Y-106328826D01*
X121497130Y-106172000D01*
X121512576Y-106015174D01*
X121558321Y-105864371D01*
X121632608Y-105725392D01*
X121732578Y-105603578D01*
X121854392Y-105503608D01*
X121993371Y-105429321D01*
X122068773Y-105406448D01*
X122144173Y-105383576D01*
X122183351Y-105379717D01*
X122261705Y-105372000D01*
X122340295Y-105372000D01*
X122418649Y-105379717D01*
X122418649Y-105379717D01*
G37*
G36*
X124958649Y-105379717D02*
X124997827Y-105383576D01*
X125073227Y-105406448D01*
X125148629Y-105429321D01*
X125287608Y-105503608D01*
X125409422Y-105603578D01*
X125509392Y-105725392D01*
X125583679Y-105864371D01*
X125629424Y-106015174D01*
X125644870Y-106172000D01*
X125629424Y-106328826D01*
X125583679Y-106479629D01*
X125509392Y-106618608D01*
X125409422Y-106740422D01*
X125287608Y-106840392D01*
X125148629Y-106914679D01*
X125073227Y-106937552D01*
X124997827Y-106960424D01*
X124958649Y-106964283D01*
X124880295Y-106972000D01*
X124801705Y-106972000D01*
X124723351Y-106964283D01*
X124684173Y-106960424D01*
X124608773Y-106937552D01*
X124533371Y-106914679D01*
X124394392Y-106840392D01*
X124272578Y-106740422D01*
X124172608Y-106618608D01*
X124098321Y-106479629D01*
X124052576Y-106328826D01*
X124037130Y-106172000D01*
X124052576Y-106015174D01*
X124098321Y-105864371D01*
X124172608Y-105725392D01*
X124272578Y-105603578D01*
X124394392Y-105503608D01*
X124533371Y-105429321D01*
X124608773Y-105406448D01*
X124684173Y-105383576D01*
X124723351Y-105379717D01*
X124801705Y-105372000D01*
X124880295Y-105372000D01*
X124958649Y-105379717D01*
X124958649Y-105379717D01*
G37*
G36*
X127498649Y-105379717D02*
X127537827Y-105383576D01*
X127613227Y-105406448D01*
X127688629Y-105429321D01*
X127827608Y-105503608D01*
X127949422Y-105603578D01*
X128049392Y-105725392D01*
X128123679Y-105864371D01*
X128169424Y-106015174D01*
X128184870Y-106172000D01*
X128169424Y-106328826D01*
X128123679Y-106479629D01*
X128049392Y-106618608D01*
X127949422Y-106740422D01*
X127827608Y-106840392D01*
X127688629Y-106914679D01*
X127613227Y-106937552D01*
X127537827Y-106960424D01*
X127498649Y-106964283D01*
X127420295Y-106972000D01*
X127341705Y-106972000D01*
X127263351Y-106964283D01*
X127224173Y-106960424D01*
X127148773Y-106937552D01*
X127073371Y-106914679D01*
X126934392Y-106840392D01*
X126812578Y-106740422D01*
X126712608Y-106618608D01*
X126638321Y-106479629D01*
X126592576Y-106328826D01*
X126577130Y-106172000D01*
X126592576Y-106015174D01*
X126638321Y-105864371D01*
X126712608Y-105725392D01*
X126812578Y-105603578D01*
X126934392Y-105503608D01*
X127073371Y-105429321D01*
X127148773Y-105406448D01*
X127224173Y-105383576D01*
X127263351Y-105379717D01*
X127341705Y-105372000D01*
X127420295Y-105372000D01*
X127498649Y-105379717D01*
X127498649Y-105379717D01*
G37*
G36*
X132578649Y-105379717D02*
X132617827Y-105383576D01*
X132693227Y-105406448D01*
X132768629Y-105429321D01*
X132907608Y-105503608D01*
X133029422Y-105603578D01*
X133129392Y-105725392D01*
X133203679Y-105864371D01*
X133249424Y-106015174D01*
X133264870Y-106172000D01*
X133249424Y-106328826D01*
X133203679Y-106479629D01*
X133129392Y-106618608D01*
X133029422Y-106740422D01*
X132907608Y-106840392D01*
X132768629Y-106914679D01*
X132693227Y-106937552D01*
X132617827Y-106960424D01*
X132578649Y-106964283D01*
X132500295Y-106972000D01*
X132421705Y-106972000D01*
X132343351Y-106964283D01*
X132304173Y-106960424D01*
X132228773Y-106937552D01*
X132153371Y-106914679D01*
X132014392Y-106840392D01*
X131892578Y-106740422D01*
X131792608Y-106618608D01*
X131718321Y-106479629D01*
X131672576Y-106328826D01*
X131657130Y-106172000D01*
X131672576Y-106015174D01*
X131718321Y-105864371D01*
X131792608Y-105725392D01*
X131892578Y-105603578D01*
X132014392Y-105503608D01*
X132153371Y-105429321D01*
X132228773Y-105406448D01*
X132304173Y-105383576D01*
X132343351Y-105379717D01*
X132421705Y-105372000D01*
X132500295Y-105372000D01*
X132578649Y-105379717D01*
X132578649Y-105379717D01*
G37*
G36*
X156850000Y-93850000D02*
X155150000Y-93850000D01*
X155150000Y-92150000D01*
X156850000Y-92150000D01*
X156850000Y-93850000D01*
X156850000Y-93850000D01*
G37*
G36*
X85466630Y-91442299D02*
X85626855Y-91490903D01*
X85774520Y-91569831D01*
X85903949Y-91676051D01*
X86010169Y-91805480D01*
X86089097Y-91953145D01*
X86137701Y-92113370D01*
X86154112Y-92280000D01*
X86137701Y-92446630D01*
X86089097Y-92606855D01*
X86010169Y-92754520D01*
X85903949Y-92883949D01*
X85774520Y-92990169D01*
X85626855Y-93069097D01*
X85466630Y-93117701D01*
X85341752Y-93130000D01*
X85258248Y-93130000D01*
X85133370Y-93117701D01*
X84973145Y-93069097D01*
X84825480Y-92990169D01*
X84696051Y-92883949D01*
X84589831Y-92754520D01*
X84510903Y-92606855D01*
X84462299Y-92446630D01*
X84445888Y-92280000D01*
X84462299Y-92113370D01*
X84510903Y-91953145D01*
X84589831Y-91805480D01*
X84696051Y-91676051D01*
X84825480Y-91569831D01*
X84973145Y-91490903D01*
X85133370Y-91442299D01*
X85258248Y-91430000D01*
X85341752Y-91430000D01*
X85466630Y-91442299D01*
X85466630Y-91442299D01*
G37*
G36*
X156166630Y-89622299D02*
X156326855Y-89670903D01*
X156474520Y-89749831D01*
X156603949Y-89856051D01*
X156710169Y-89985480D01*
X156789097Y-90133145D01*
X156837701Y-90293370D01*
X156854112Y-90460000D01*
X156837701Y-90626630D01*
X156789097Y-90786855D01*
X156710169Y-90934520D01*
X156603949Y-91063949D01*
X156474520Y-91170169D01*
X156326855Y-91249097D01*
X156166630Y-91297701D01*
X156041752Y-91310000D01*
X155958248Y-91310000D01*
X155833370Y-91297701D01*
X155673145Y-91249097D01*
X155525480Y-91170169D01*
X155396051Y-91063949D01*
X155289831Y-90934520D01*
X155210903Y-90786855D01*
X155162299Y-90626630D01*
X155145888Y-90460000D01*
X155162299Y-90293370D01*
X155210903Y-90133145D01*
X155289831Y-89985480D01*
X155396051Y-89856051D01*
X155525480Y-89749831D01*
X155673145Y-89670903D01*
X155833370Y-89622299D01*
X155958248Y-89610000D01*
X156041752Y-89610000D01*
X156166630Y-89622299D01*
X156166630Y-89622299D01*
G37*
G36*
X85466630Y-88902299D02*
X85626855Y-88950903D01*
X85774520Y-89029831D01*
X85903949Y-89136051D01*
X86010169Y-89265480D01*
X86089097Y-89413145D01*
X86137701Y-89573370D01*
X86154112Y-89740000D01*
X86137701Y-89906630D01*
X86089097Y-90066855D01*
X86010169Y-90214520D01*
X85903949Y-90343949D01*
X85774520Y-90450169D01*
X85626855Y-90529097D01*
X85466630Y-90577701D01*
X85341752Y-90590000D01*
X85258248Y-90590000D01*
X85133370Y-90577701D01*
X84973145Y-90529097D01*
X84825480Y-90450169D01*
X84696051Y-90343949D01*
X84589831Y-90214520D01*
X84510903Y-90066855D01*
X84462299Y-89906630D01*
X84445888Y-89740000D01*
X84462299Y-89573370D01*
X84510903Y-89413145D01*
X84589831Y-89265480D01*
X84696051Y-89136051D01*
X84825480Y-89029831D01*
X84973145Y-88950903D01*
X85133370Y-88902299D01*
X85258248Y-88890000D01*
X85341752Y-88890000D01*
X85466630Y-88902299D01*
X85466630Y-88902299D01*
G37*
G36*
X86150000Y-88050000D02*
X84450000Y-88050000D01*
X84450000Y-86350000D01*
X86150000Y-86350000D01*
X86150000Y-88050000D01*
X86150000Y-88050000D01*
G37*
G36*
X85504183Y-79726900D02*
X85631574Y-79779668D01*
X85746225Y-79856275D01*
X85843725Y-79953775D01*
X85920332Y-80068426D01*
X85973100Y-80195817D01*
X86000000Y-80331055D01*
X86000000Y-80468945D01*
X85973100Y-80604183D01*
X85920332Y-80731574D01*
X85843725Y-80846225D01*
X85746225Y-80943725D01*
X85631574Y-81020332D01*
X85504183Y-81073100D01*
X85368945Y-81100000D01*
X85231055Y-81100000D01*
X85095817Y-81073100D01*
X84968426Y-81020332D01*
X84853775Y-80943725D01*
X84756275Y-80846225D01*
X84679668Y-80731574D01*
X84626900Y-80604183D01*
X84600000Y-80468945D01*
X84600000Y-80331055D01*
X84626900Y-80195817D01*
X84679668Y-80068426D01*
X84756275Y-79953775D01*
X84853775Y-79856275D01*
X84968426Y-79779668D01*
X85095817Y-79726900D01*
X85231055Y-79700000D01*
X85368945Y-79700000D01*
X85504183Y-79726900D01*
X85504183Y-79726900D01*
G37*
G36*
X82204183Y-79726900D02*
X82331574Y-79779668D01*
X82446225Y-79856275D01*
X82543725Y-79953775D01*
X82620332Y-80068426D01*
X82673100Y-80195817D01*
X82700000Y-80331055D01*
X82700000Y-80468945D01*
X82673100Y-80604183D01*
X82620332Y-80731574D01*
X82543725Y-80846225D01*
X82446225Y-80943725D01*
X82331574Y-81020332D01*
X82204183Y-81073100D01*
X82068945Y-81100000D01*
X81931055Y-81100000D01*
X81795817Y-81073100D01*
X81668426Y-81020332D01*
X81553775Y-80943725D01*
X81456275Y-80846225D01*
X81379668Y-80731574D01*
X81326900Y-80604183D01*
X81300000Y-80468945D01*
X81300000Y-80331055D01*
X81326900Y-80195817D01*
X81379668Y-80068426D01*
X81456275Y-79953775D01*
X81553775Y-79856275D01*
X81668426Y-79779668D01*
X81795817Y-79726900D01*
X81931055Y-79700000D01*
X82068945Y-79700000D01*
X82204183Y-79726900D01*
X82204183Y-79726900D01*
G37*
G36*
X82204183Y-77226900D02*
X82331574Y-77279668D01*
X82446225Y-77356275D01*
X82543725Y-77453775D01*
X82620332Y-77568426D01*
X82673100Y-77695817D01*
X82700000Y-77831055D01*
X82700000Y-77968945D01*
X82673100Y-78104183D01*
X82620332Y-78231574D01*
X82543725Y-78346225D01*
X82446225Y-78443725D01*
X82331574Y-78520332D01*
X82204183Y-78573100D01*
X82068945Y-78600000D01*
X81931055Y-78600000D01*
X81795817Y-78573100D01*
X81668426Y-78520332D01*
X81553775Y-78443725D01*
X81456275Y-78346225D01*
X81379668Y-78231574D01*
X81326900Y-78104183D01*
X81300000Y-77968945D01*
X81300000Y-77831055D01*
X81326900Y-77695817D01*
X81379668Y-77568426D01*
X81456275Y-77453775D01*
X81553775Y-77356275D01*
X81668426Y-77279668D01*
X81795817Y-77226900D01*
X81931055Y-77200000D01*
X82068945Y-77200000D01*
X82204183Y-77226900D01*
X82204183Y-77226900D01*
G37*
G36*
X85504183Y-77226900D02*
X85631574Y-77279668D01*
X85746225Y-77356275D01*
X85843725Y-77453775D01*
X85920332Y-77568426D01*
X85973100Y-77695817D01*
X86000000Y-77831055D01*
X86000000Y-77968945D01*
X85973100Y-78104183D01*
X85920332Y-78231574D01*
X85843725Y-78346225D01*
X85746225Y-78443725D01*
X85631574Y-78520332D01*
X85504183Y-78573100D01*
X85368945Y-78600000D01*
X85231055Y-78600000D01*
X85095817Y-78573100D01*
X84968426Y-78520332D01*
X84853775Y-78443725D01*
X84756275Y-78346225D01*
X84679668Y-78231574D01*
X84626900Y-78104183D01*
X84600000Y-77968945D01*
X84600000Y-77831055D01*
X84626900Y-77695817D01*
X84679668Y-77568426D01*
X84756275Y-77453775D01*
X84853775Y-77356275D01*
X84968426Y-77279668D01*
X85095817Y-77226900D01*
X85231055Y-77200000D01*
X85368945Y-77200000D01*
X85504183Y-77226900D01*
X85504183Y-77226900D01*
G37*
G36*
X82204183Y-74726900D02*
X82331574Y-74779668D01*
X82446225Y-74856275D01*
X82543725Y-74953775D01*
X82620332Y-75068426D01*
X82673100Y-75195817D01*
X82700000Y-75331055D01*
X82700000Y-75468945D01*
X82673100Y-75604183D01*
X82620332Y-75731574D01*
X82543725Y-75846225D01*
X82446225Y-75943725D01*
X82331574Y-76020332D01*
X82204183Y-76073100D01*
X82068945Y-76100000D01*
X81931055Y-76100000D01*
X81795817Y-76073100D01*
X81668426Y-76020332D01*
X81553775Y-75943725D01*
X81456275Y-75846225D01*
X81379668Y-75731574D01*
X81326900Y-75604183D01*
X81300000Y-75468945D01*
X81300000Y-75331055D01*
X81326900Y-75195817D01*
X81379668Y-75068426D01*
X81456275Y-74953775D01*
X81553775Y-74856275D01*
X81668426Y-74779668D01*
X81795817Y-74726900D01*
X81931055Y-74700000D01*
X82068945Y-74700000D01*
X82204183Y-74726900D01*
X82204183Y-74726900D01*
G37*
G36*
X86000000Y-76100000D02*
X84600000Y-76100000D01*
X84600000Y-74700000D01*
X86000000Y-74700000D01*
X86000000Y-76100000D01*
X86000000Y-76100000D01*
G37*
G36*
X150310000Y-75220000D02*
X147110000Y-75220000D01*
X147110000Y-73220000D01*
X150310000Y-73220000D01*
X150310000Y-75220000D01*
X150310000Y-75220000D01*
G37*
G36*
X157210000Y-72120000D02*
X155210000Y-72120000D01*
X155210000Y-70120000D01*
X157210000Y-70120000D01*
X157210000Y-72120000D01*
X157210000Y-72120000D01*
G37*
G36*
X141885770Y-70135372D02*
X142001689Y-70158429D01*
X142183678Y-70233811D01*
X142347463Y-70343249D01*
X142486751Y-70482537D01*
X142596189Y-70646322D01*
X142671571Y-70828311D01*
X142710000Y-71021509D01*
X142710000Y-71218491D01*
X142671571Y-71411689D01*
X142596189Y-71593678D01*
X142486751Y-71757463D01*
X142347463Y-71896751D01*
X142183678Y-72006189D01*
X142001689Y-72081571D01*
X141885770Y-72104628D01*
X141808493Y-72120000D01*
X141611507Y-72120000D01*
X141534230Y-72104628D01*
X141418311Y-72081571D01*
X141236322Y-72006189D01*
X141072537Y-71896751D01*
X140933249Y-71757463D01*
X140823811Y-71593678D01*
X140748429Y-71411689D01*
X140710000Y-71218491D01*
X140710000Y-71021509D01*
X140748429Y-70828311D01*
X140823811Y-70646322D01*
X140933249Y-70482537D01*
X141072537Y-70343249D01*
X141236322Y-70233811D01*
X141418311Y-70158429D01*
X141534230Y-70135372D01*
X141611507Y-70120000D01*
X141808493Y-70120000D01*
X141885770Y-70135372D01*
X141885770Y-70135372D01*
G37*
G36*
X156385770Y-67635372D02*
X156501689Y-67658429D01*
X156683678Y-67733811D01*
X156847463Y-67843249D01*
X156986751Y-67982537D01*
X157096189Y-68146322D01*
X157171571Y-68328311D01*
X157210000Y-68521509D01*
X157210000Y-68718491D01*
X157171571Y-68911689D01*
X157096189Y-69093678D01*
X156986751Y-69257463D01*
X156847463Y-69396751D01*
X156683678Y-69506189D01*
X156501689Y-69581571D01*
X156385770Y-69604628D01*
X156308493Y-69620000D01*
X156111507Y-69620000D01*
X156034230Y-69604628D01*
X155918311Y-69581571D01*
X155736322Y-69506189D01*
X155572537Y-69396751D01*
X155433249Y-69257463D01*
X155323811Y-69093678D01*
X155248429Y-68911689D01*
X155210000Y-68718491D01*
X155210000Y-68521509D01*
X155248429Y-68328311D01*
X155323811Y-68146322D01*
X155433249Y-67982537D01*
X155572537Y-67843249D01*
X155736322Y-67733811D01*
X155918311Y-67658429D01*
X156034230Y-67635372D01*
X156111507Y-67620000D01*
X156308493Y-67620000D01*
X156385770Y-67635372D01*
X156385770Y-67635372D01*
G37*
G36*
X141885770Y-65135372D02*
X142001689Y-65158429D01*
X142183678Y-65233811D01*
X142347463Y-65343249D01*
X142486751Y-65482537D01*
X142596189Y-65646322D01*
X142671571Y-65828311D01*
X142710000Y-66021509D01*
X142710000Y-66218491D01*
X142671571Y-66411689D01*
X142596189Y-66593678D01*
X142486751Y-66757463D01*
X142347463Y-66896751D01*
X142183678Y-67006189D01*
X142001689Y-67081571D01*
X141885770Y-67104628D01*
X141808493Y-67120000D01*
X141611507Y-67120000D01*
X141534230Y-67104628D01*
X141418311Y-67081571D01*
X141236322Y-67006189D01*
X141072537Y-66896751D01*
X140933249Y-66757463D01*
X140823811Y-66593678D01*
X140748429Y-66411689D01*
X140710000Y-66218491D01*
X140710000Y-66021509D01*
X140748429Y-65828311D01*
X140823811Y-65646322D01*
X140933249Y-65482537D01*
X141072537Y-65343249D01*
X141236322Y-65233811D01*
X141418311Y-65158429D01*
X141534230Y-65135372D01*
X141611507Y-65120000D01*
X141808493Y-65120000D01*
X141885770Y-65135372D01*
X141885770Y-65135372D01*
G37*
G36*
X156385770Y-65135372D02*
X156501689Y-65158429D01*
X156683678Y-65233811D01*
X156847463Y-65343249D01*
X156986751Y-65482537D01*
X157096189Y-65646322D01*
X157171571Y-65828311D01*
X157210000Y-66021509D01*
X157210000Y-66218491D01*
X157171571Y-66411689D01*
X157096189Y-66593678D01*
X156986751Y-66757463D01*
X156847463Y-66896751D01*
X156683678Y-67006189D01*
X156501689Y-67081571D01*
X156385770Y-67104628D01*
X156308493Y-67120000D01*
X156111507Y-67120000D01*
X156034230Y-67104628D01*
X155918311Y-67081571D01*
X155736322Y-67006189D01*
X155572537Y-66896751D01*
X155433249Y-66757463D01*
X155323811Y-66593678D01*
X155248429Y-66411689D01*
X155210000Y-66218491D01*
X155210000Y-66021509D01*
X155248429Y-65828311D01*
X155323811Y-65646322D01*
X155433249Y-65482537D01*
X155572537Y-65343249D01*
X155736322Y-65233811D01*
X155918311Y-65158429D01*
X156034230Y-65135372D01*
X156111507Y-65120000D01*
X156308493Y-65120000D01*
X156385770Y-65135372D01*
X156385770Y-65135372D01*
G37*
G36*
X150310000Y-64020000D02*
X147110000Y-64020000D01*
X147110000Y-62020000D01*
X150310000Y-62020000D01*
X150310000Y-64020000D01*
X150310000Y-64020000D01*
G37*
G36*
X94781630Y-57328299D02*
X94941855Y-57376903D01*
X95089520Y-57455831D01*
X95218949Y-57562051D01*
X95325169Y-57691480D01*
X95404097Y-57839145D01*
X95452701Y-57999370D01*
X95469112Y-58166000D01*
X95452701Y-58332630D01*
X95404097Y-58492855D01*
X95325169Y-58640520D01*
X95218949Y-58769949D01*
X95089520Y-58876169D01*
X94941855Y-58955097D01*
X94781630Y-59003701D01*
X94656752Y-59016000D01*
X94573248Y-59016000D01*
X94448370Y-59003701D01*
X94288145Y-58955097D01*
X94140480Y-58876169D01*
X94011051Y-58769949D01*
X93904831Y-58640520D01*
X93825903Y-58492855D01*
X93777299Y-58332630D01*
X93760888Y-58166000D01*
X93777299Y-57999370D01*
X93825903Y-57839145D01*
X93904831Y-57691480D01*
X94011051Y-57562051D01*
X94140480Y-57455831D01*
X94288145Y-57376903D01*
X94448370Y-57328299D01*
X94573248Y-57316000D01*
X94656752Y-57316000D01*
X94781630Y-57328299D01*
X94781630Y-57328299D01*
G37*
G36*
X97321630Y-57328299D02*
X97481855Y-57376903D01*
X97629520Y-57455831D01*
X97758949Y-57562051D01*
X97865169Y-57691480D01*
X97944097Y-57839145D01*
X97992701Y-57999370D01*
X98009112Y-58166000D01*
X97992701Y-58332630D01*
X97944097Y-58492855D01*
X97865169Y-58640520D01*
X97758949Y-58769949D01*
X97629520Y-58876169D01*
X97481855Y-58955097D01*
X97321630Y-59003701D01*
X97196752Y-59016000D01*
X97113248Y-59016000D01*
X96988370Y-59003701D01*
X96828145Y-58955097D01*
X96680480Y-58876169D01*
X96551051Y-58769949D01*
X96444831Y-58640520D01*
X96365903Y-58492855D01*
X96317299Y-58332630D01*
X96300888Y-58166000D01*
X96317299Y-57999370D01*
X96365903Y-57839145D01*
X96444831Y-57691480D01*
X96551051Y-57562051D01*
X96680480Y-57455831D01*
X96828145Y-57376903D01*
X96988370Y-57328299D01*
X97113248Y-57316000D01*
X97196752Y-57316000D01*
X97321630Y-57328299D01*
X97321630Y-57328299D01*
G37*
G36*
X103085000Y-59016000D02*
X101385000Y-59016000D01*
X101385000Y-57316000D01*
X103085000Y-57316000D01*
X103085000Y-59016000D01*
X103085000Y-59016000D01*
G37*
G36*
X99861630Y-57328299D02*
X100021855Y-57376903D01*
X100169520Y-57455831D01*
X100298949Y-57562051D01*
X100405169Y-57691480D01*
X100484097Y-57839145D01*
X100532701Y-57999370D01*
X100549112Y-58166000D01*
X100532701Y-58332630D01*
X100484097Y-58492855D01*
X100405169Y-58640520D01*
X100298949Y-58769949D01*
X100169520Y-58876169D01*
X100021855Y-58955097D01*
X99861630Y-59003701D01*
X99736752Y-59016000D01*
X99653248Y-59016000D01*
X99528370Y-59003701D01*
X99368145Y-58955097D01*
X99220480Y-58876169D01*
X99091051Y-58769949D01*
X98984831Y-58640520D01*
X98905903Y-58492855D01*
X98857299Y-58332630D01*
X98840888Y-58166000D01*
X98857299Y-57999370D01*
X98905903Y-57839145D01*
X98984831Y-57691480D01*
X99091051Y-57562051D01*
X99220480Y-57455831D01*
X99368145Y-57376903D01*
X99528370Y-57328299D01*
X99653248Y-57316000D01*
X99736752Y-57316000D01*
X99861630Y-57328299D01*
X99861630Y-57328299D01*
G37*
G36*
X152898649Y-57119717D02*
X152937827Y-57123576D01*
X153013228Y-57146449D01*
X153088629Y-57169321D01*
X153227608Y-57243608D01*
X153349422Y-57343578D01*
X153449392Y-57465392D01*
X153523679Y-57604371D01*
X153569424Y-57755174D01*
X153584870Y-57912000D01*
X153569424Y-58068826D01*
X153523679Y-58219629D01*
X153449392Y-58358608D01*
X153349422Y-58480422D01*
X153227608Y-58580392D01*
X153088629Y-58654679D01*
X153013227Y-58677552D01*
X152937827Y-58700424D01*
X152898649Y-58704283D01*
X152820295Y-58712000D01*
X152741705Y-58712000D01*
X152663351Y-58704283D01*
X152624173Y-58700424D01*
X152548772Y-58677551D01*
X152473371Y-58654679D01*
X152334392Y-58580392D01*
X152212578Y-58480422D01*
X152112608Y-58358608D01*
X152038321Y-58219629D01*
X151992576Y-58068826D01*
X151977130Y-57912000D01*
X151992576Y-57755174D01*
X152038321Y-57604371D01*
X152112608Y-57465392D01*
X152212578Y-57343578D01*
X152334392Y-57243608D01*
X152473371Y-57169321D01*
X152548772Y-57146449D01*
X152624173Y-57123576D01*
X152663351Y-57119717D01*
X152741705Y-57112000D01*
X152820295Y-57112000D01*
X152898649Y-57119717D01*
X152898649Y-57119717D01*
G37*
G36*
X147818649Y-57119717D02*
X147857827Y-57123576D01*
X147933228Y-57146449D01*
X148008629Y-57169321D01*
X148147608Y-57243608D01*
X148269422Y-57343578D01*
X148369392Y-57465392D01*
X148443679Y-57604371D01*
X148489424Y-57755174D01*
X148504870Y-57912000D01*
X148489424Y-58068826D01*
X148443679Y-58219629D01*
X148369392Y-58358608D01*
X148269422Y-58480422D01*
X148147608Y-58580392D01*
X148008629Y-58654679D01*
X147933227Y-58677552D01*
X147857827Y-58700424D01*
X147818649Y-58704283D01*
X147740295Y-58712000D01*
X147661705Y-58712000D01*
X147583351Y-58704283D01*
X147544173Y-58700424D01*
X147468772Y-58677551D01*
X147393371Y-58654679D01*
X147254392Y-58580392D01*
X147132578Y-58480422D01*
X147032608Y-58358608D01*
X146958321Y-58219629D01*
X146912576Y-58068826D01*
X146897130Y-57912000D01*
X146912576Y-57755174D01*
X146958321Y-57604371D01*
X147032608Y-57465392D01*
X147132578Y-57343578D01*
X147254392Y-57243608D01*
X147393371Y-57169321D01*
X147468772Y-57146449D01*
X147544173Y-57123576D01*
X147583351Y-57119717D01*
X147661705Y-57112000D01*
X147740295Y-57112000D01*
X147818649Y-57119717D01*
X147818649Y-57119717D01*
G37*
G36*
X145278649Y-57119717D02*
X145317827Y-57123576D01*
X145393228Y-57146449D01*
X145468629Y-57169321D01*
X145607608Y-57243608D01*
X145729422Y-57343578D01*
X145829392Y-57465392D01*
X145903679Y-57604371D01*
X145949424Y-57755174D01*
X145964870Y-57912000D01*
X145949424Y-58068826D01*
X145903679Y-58219629D01*
X145829392Y-58358608D01*
X145729422Y-58480422D01*
X145607608Y-58580392D01*
X145468629Y-58654679D01*
X145393227Y-58677552D01*
X145317827Y-58700424D01*
X145278649Y-58704283D01*
X145200295Y-58712000D01*
X145121705Y-58712000D01*
X145043351Y-58704283D01*
X145004173Y-58700424D01*
X144928772Y-58677551D01*
X144853371Y-58654679D01*
X144714392Y-58580392D01*
X144592578Y-58480422D01*
X144492608Y-58358608D01*
X144418321Y-58219629D01*
X144372576Y-58068826D01*
X144357130Y-57912000D01*
X144372576Y-57755174D01*
X144418321Y-57604371D01*
X144492608Y-57465392D01*
X144592578Y-57343578D01*
X144714392Y-57243608D01*
X144853371Y-57169321D01*
X144928772Y-57146449D01*
X145004173Y-57123576D01*
X145043351Y-57119717D01*
X145121705Y-57112000D01*
X145200295Y-57112000D01*
X145278649Y-57119717D01*
X145278649Y-57119717D01*
G37*
G36*
X142738649Y-57119717D02*
X142777827Y-57123576D01*
X142853228Y-57146449D01*
X142928629Y-57169321D01*
X143067608Y-57243608D01*
X143189422Y-57343578D01*
X143289392Y-57465392D01*
X143363679Y-57604371D01*
X143409424Y-57755174D01*
X143424870Y-57912000D01*
X143409424Y-58068826D01*
X143363679Y-58219629D01*
X143289392Y-58358608D01*
X143189422Y-58480422D01*
X143067608Y-58580392D01*
X142928629Y-58654679D01*
X142853227Y-58677552D01*
X142777827Y-58700424D01*
X142738649Y-58704283D01*
X142660295Y-58712000D01*
X142581705Y-58712000D01*
X142503351Y-58704283D01*
X142464173Y-58700424D01*
X142388772Y-58677551D01*
X142313371Y-58654679D01*
X142174392Y-58580392D01*
X142052578Y-58480422D01*
X141952608Y-58358608D01*
X141878321Y-58219629D01*
X141832576Y-58068826D01*
X141817130Y-57912000D01*
X141832576Y-57755174D01*
X141878321Y-57604371D01*
X141952608Y-57465392D01*
X142052578Y-57343578D01*
X142174392Y-57243608D01*
X142313371Y-57169321D01*
X142388772Y-57146449D01*
X142464173Y-57123576D01*
X142503351Y-57119717D01*
X142581705Y-57112000D01*
X142660295Y-57112000D01*
X142738649Y-57119717D01*
X142738649Y-57119717D01*
G37*
G36*
X140198649Y-57119717D02*
X140237827Y-57123576D01*
X140313228Y-57146449D01*
X140388629Y-57169321D01*
X140527608Y-57243608D01*
X140649422Y-57343578D01*
X140749392Y-57465392D01*
X140823679Y-57604371D01*
X140869424Y-57755174D01*
X140884870Y-57912000D01*
X140869424Y-58068826D01*
X140823679Y-58219629D01*
X140749392Y-58358608D01*
X140649422Y-58480422D01*
X140527608Y-58580392D01*
X140388629Y-58654679D01*
X140313227Y-58677552D01*
X140237827Y-58700424D01*
X140198649Y-58704283D01*
X140120295Y-58712000D01*
X140041705Y-58712000D01*
X139963351Y-58704283D01*
X139924173Y-58700424D01*
X139848772Y-58677551D01*
X139773371Y-58654679D01*
X139634392Y-58580392D01*
X139512578Y-58480422D01*
X139412608Y-58358608D01*
X139338321Y-58219629D01*
X139292576Y-58068826D01*
X139277130Y-57912000D01*
X139292576Y-57755174D01*
X139338321Y-57604371D01*
X139412608Y-57465392D01*
X139512578Y-57343578D01*
X139634392Y-57243608D01*
X139773371Y-57169321D01*
X139848772Y-57146449D01*
X139924173Y-57123576D01*
X139963351Y-57119717D01*
X140041705Y-57112000D01*
X140120295Y-57112000D01*
X140198649Y-57119717D01*
X140198649Y-57119717D01*
G37*
G36*
X137658649Y-57119717D02*
X137697827Y-57123576D01*
X137773228Y-57146449D01*
X137848629Y-57169321D01*
X137987608Y-57243608D01*
X138109422Y-57343578D01*
X138209392Y-57465392D01*
X138283679Y-57604371D01*
X138329424Y-57755174D01*
X138344870Y-57912000D01*
X138329424Y-58068826D01*
X138283679Y-58219629D01*
X138209392Y-58358608D01*
X138109422Y-58480422D01*
X137987608Y-58580392D01*
X137848629Y-58654679D01*
X137773227Y-58677552D01*
X137697827Y-58700424D01*
X137658649Y-58704283D01*
X137580295Y-58712000D01*
X137501705Y-58712000D01*
X137423351Y-58704283D01*
X137384173Y-58700424D01*
X137308772Y-58677551D01*
X137233371Y-58654679D01*
X137094392Y-58580392D01*
X136972578Y-58480422D01*
X136872608Y-58358608D01*
X136798321Y-58219629D01*
X136752576Y-58068826D01*
X136737130Y-57912000D01*
X136752576Y-57755174D01*
X136798321Y-57604371D01*
X136872608Y-57465392D01*
X136972578Y-57343578D01*
X137094392Y-57243608D01*
X137233371Y-57169321D01*
X137308772Y-57146449D01*
X137384173Y-57123576D01*
X137423351Y-57119717D01*
X137501705Y-57112000D01*
X137580295Y-57112000D01*
X137658649Y-57119717D01*
X137658649Y-57119717D01*
G37*
G36*
X135118649Y-57119717D02*
X135157827Y-57123576D01*
X135233228Y-57146449D01*
X135308629Y-57169321D01*
X135447608Y-57243608D01*
X135569422Y-57343578D01*
X135669392Y-57465392D01*
X135743679Y-57604371D01*
X135789424Y-57755174D01*
X135804870Y-57912000D01*
X135789424Y-58068826D01*
X135743679Y-58219629D01*
X135669392Y-58358608D01*
X135569422Y-58480422D01*
X135447608Y-58580392D01*
X135308629Y-58654679D01*
X135233227Y-58677552D01*
X135157827Y-58700424D01*
X135118649Y-58704283D01*
X135040295Y-58712000D01*
X134961705Y-58712000D01*
X134883351Y-58704283D01*
X134844173Y-58700424D01*
X134768772Y-58677551D01*
X134693371Y-58654679D01*
X134554392Y-58580392D01*
X134432578Y-58480422D01*
X134332608Y-58358608D01*
X134258321Y-58219629D01*
X134212576Y-58068826D01*
X134197130Y-57912000D01*
X134212576Y-57755174D01*
X134258321Y-57604371D01*
X134332608Y-57465392D01*
X134432578Y-57343578D01*
X134554392Y-57243608D01*
X134693371Y-57169321D01*
X134768772Y-57146449D01*
X134844173Y-57123576D01*
X134883351Y-57119717D01*
X134961705Y-57112000D01*
X135040295Y-57112000D01*
X135118649Y-57119717D01*
X135118649Y-57119717D01*
G37*
G36*
X131058649Y-57119717D02*
X131097827Y-57123576D01*
X131173228Y-57146449D01*
X131248629Y-57169321D01*
X131387608Y-57243608D01*
X131509422Y-57343578D01*
X131609392Y-57465392D01*
X131683679Y-57604371D01*
X131729424Y-57755174D01*
X131744870Y-57912000D01*
X131729424Y-58068826D01*
X131683679Y-58219629D01*
X131609392Y-58358608D01*
X131509422Y-58480422D01*
X131387608Y-58580392D01*
X131248629Y-58654679D01*
X131173227Y-58677552D01*
X131097827Y-58700424D01*
X131058649Y-58704283D01*
X130980295Y-58712000D01*
X130901705Y-58712000D01*
X130823351Y-58704283D01*
X130784173Y-58700424D01*
X130708772Y-58677551D01*
X130633371Y-58654679D01*
X130494392Y-58580392D01*
X130372578Y-58480422D01*
X130272608Y-58358608D01*
X130198321Y-58219629D01*
X130152576Y-58068826D01*
X130137130Y-57912000D01*
X130152576Y-57755174D01*
X130198321Y-57604371D01*
X130272608Y-57465392D01*
X130372578Y-57343578D01*
X130494392Y-57243608D01*
X130633371Y-57169321D01*
X130708772Y-57146449D01*
X130784173Y-57123576D01*
X130823351Y-57119717D01*
X130901705Y-57112000D01*
X130980295Y-57112000D01*
X131058649Y-57119717D01*
X131058649Y-57119717D01*
G37*
G36*
X128518649Y-57119717D02*
X128557827Y-57123576D01*
X128633228Y-57146449D01*
X128708629Y-57169321D01*
X128847608Y-57243608D01*
X128969422Y-57343578D01*
X129069392Y-57465392D01*
X129143679Y-57604371D01*
X129189424Y-57755174D01*
X129204870Y-57912000D01*
X129189424Y-58068826D01*
X129143679Y-58219629D01*
X129069392Y-58358608D01*
X128969422Y-58480422D01*
X128847608Y-58580392D01*
X128708629Y-58654679D01*
X128633227Y-58677552D01*
X128557827Y-58700424D01*
X128518649Y-58704283D01*
X128440295Y-58712000D01*
X128361705Y-58712000D01*
X128283351Y-58704283D01*
X128244173Y-58700424D01*
X128168772Y-58677551D01*
X128093371Y-58654679D01*
X127954392Y-58580392D01*
X127832578Y-58480422D01*
X127732608Y-58358608D01*
X127658321Y-58219629D01*
X127612576Y-58068826D01*
X127597130Y-57912000D01*
X127612576Y-57755174D01*
X127658321Y-57604371D01*
X127732608Y-57465392D01*
X127832578Y-57343578D01*
X127954392Y-57243608D01*
X128093371Y-57169321D01*
X128168772Y-57146449D01*
X128244173Y-57123576D01*
X128283351Y-57119717D01*
X128361705Y-57112000D01*
X128440295Y-57112000D01*
X128518649Y-57119717D01*
X128518649Y-57119717D01*
G37*
G36*
X125978649Y-57119717D02*
X126017827Y-57123576D01*
X126093228Y-57146449D01*
X126168629Y-57169321D01*
X126307608Y-57243608D01*
X126429422Y-57343578D01*
X126529392Y-57465392D01*
X126603679Y-57604371D01*
X126649424Y-57755174D01*
X126664870Y-57912000D01*
X126649424Y-58068826D01*
X126603679Y-58219629D01*
X126529392Y-58358608D01*
X126429422Y-58480422D01*
X126307608Y-58580392D01*
X126168629Y-58654679D01*
X126093227Y-58677552D01*
X126017827Y-58700424D01*
X125978649Y-58704283D01*
X125900295Y-58712000D01*
X125821705Y-58712000D01*
X125743351Y-58704283D01*
X125704173Y-58700424D01*
X125628772Y-58677551D01*
X125553371Y-58654679D01*
X125414392Y-58580392D01*
X125292578Y-58480422D01*
X125192608Y-58358608D01*
X125118321Y-58219629D01*
X125072576Y-58068826D01*
X125057130Y-57912000D01*
X125072576Y-57755174D01*
X125118321Y-57604371D01*
X125192608Y-57465392D01*
X125292578Y-57343578D01*
X125414392Y-57243608D01*
X125553371Y-57169321D01*
X125628772Y-57146449D01*
X125704173Y-57123576D01*
X125743351Y-57119717D01*
X125821705Y-57112000D01*
X125900295Y-57112000D01*
X125978649Y-57119717D01*
X125978649Y-57119717D01*
G37*
G36*
X123438649Y-57119717D02*
X123477827Y-57123576D01*
X123553228Y-57146449D01*
X123628629Y-57169321D01*
X123767608Y-57243608D01*
X123889422Y-57343578D01*
X123989392Y-57465392D01*
X124063679Y-57604371D01*
X124109424Y-57755174D01*
X124124870Y-57912000D01*
X124109424Y-58068826D01*
X124063679Y-58219629D01*
X123989392Y-58358608D01*
X123889422Y-58480422D01*
X123767608Y-58580392D01*
X123628629Y-58654679D01*
X123553227Y-58677552D01*
X123477827Y-58700424D01*
X123438649Y-58704283D01*
X123360295Y-58712000D01*
X123281705Y-58712000D01*
X123203351Y-58704283D01*
X123164173Y-58700424D01*
X123088772Y-58677551D01*
X123013371Y-58654679D01*
X122874392Y-58580392D01*
X122752578Y-58480422D01*
X122652608Y-58358608D01*
X122578321Y-58219629D01*
X122532576Y-58068826D01*
X122517130Y-57912000D01*
X122532576Y-57755174D01*
X122578321Y-57604371D01*
X122652608Y-57465392D01*
X122752578Y-57343578D01*
X122874392Y-57243608D01*
X123013371Y-57169321D01*
X123088772Y-57146449D01*
X123164173Y-57123576D01*
X123203351Y-57119717D01*
X123281705Y-57112000D01*
X123360295Y-57112000D01*
X123438649Y-57119717D01*
X123438649Y-57119717D01*
G37*
G36*
X120898649Y-57119717D02*
X120937827Y-57123576D01*
X121013228Y-57146449D01*
X121088629Y-57169321D01*
X121227608Y-57243608D01*
X121349422Y-57343578D01*
X121449392Y-57465392D01*
X121523679Y-57604371D01*
X121569424Y-57755174D01*
X121584870Y-57912000D01*
X121569424Y-58068826D01*
X121523679Y-58219629D01*
X121449392Y-58358608D01*
X121349422Y-58480422D01*
X121227608Y-58580392D01*
X121088629Y-58654679D01*
X121013227Y-58677552D01*
X120937827Y-58700424D01*
X120898649Y-58704283D01*
X120820295Y-58712000D01*
X120741705Y-58712000D01*
X120663351Y-58704283D01*
X120624173Y-58700424D01*
X120548772Y-58677551D01*
X120473371Y-58654679D01*
X120334392Y-58580392D01*
X120212578Y-58480422D01*
X120112608Y-58358608D01*
X120038321Y-58219629D01*
X119992576Y-58068826D01*
X119977130Y-57912000D01*
X119992576Y-57755174D01*
X120038321Y-57604371D01*
X120112608Y-57465392D01*
X120212578Y-57343578D01*
X120334392Y-57243608D01*
X120473371Y-57169321D01*
X120548772Y-57146449D01*
X120624173Y-57123576D01*
X120663351Y-57119717D01*
X120741705Y-57112000D01*
X120820295Y-57112000D01*
X120898649Y-57119717D01*
X120898649Y-57119717D01*
G37*
G36*
X150358649Y-57119717D02*
X150397827Y-57123576D01*
X150473228Y-57146449D01*
X150548629Y-57169321D01*
X150687608Y-57243608D01*
X150809422Y-57343578D01*
X150909392Y-57465392D01*
X150983679Y-57604371D01*
X151029424Y-57755174D01*
X151044870Y-57912000D01*
X151029424Y-58068826D01*
X150983679Y-58219629D01*
X150909392Y-58358608D01*
X150809422Y-58480422D01*
X150687608Y-58580392D01*
X150548629Y-58654679D01*
X150473227Y-58677552D01*
X150397827Y-58700424D01*
X150358649Y-58704283D01*
X150280295Y-58712000D01*
X150201705Y-58712000D01*
X150123351Y-58704283D01*
X150084173Y-58700424D01*
X150008772Y-58677551D01*
X149933371Y-58654679D01*
X149794392Y-58580392D01*
X149672578Y-58480422D01*
X149572608Y-58358608D01*
X149498321Y-58219629D01*
X149452576Y-58068826D01*
X149437130Y-57912000D01*
X149452576Y-57755174D01*
X149498321Y-57604371D01*
X149572608Y-57465392D01*
X149672578Y-57343578D01*
X149794392Y-57243608D01*
X149933371Y-57169321D01*
X150008772Y-57146449D01*
X150084173Y-57123576D01*
X150123351Y-57119717D01*
X150201705Y-57112000D01*
X150280295Y-57112000D01*
X150358649Y-57119717D01*
X150358649Y-57119717D01*
G37*
G36*
X108198649Y-57119717D02*
X108237827Y-57123576D01*
X108313228Y-57146449D01*
X108388629Y-57169321D01*
X108527608Y-57243608D01*
X108649422Y-57343578D01*
X108749392Y-57465392D01*
X108823679Y-57604371D01*
X108869424Y-57755174D01*
X108884870Y-57912000D01*
X108869424Y-58068826D01*
X108823679Y-58219629D01*
X108749392Y-58358608D01*
X108649422Y-58480422D01*
X108527608Y-58580392D01*
X108388629Y-58654679D01*
X108313227Y-58677552D01*
X108237827Y-58700424D01*
X108198649Y-58704283D01*
X108120295Y-58712000D01*
X108041705Y-58712000D01*
X107963351Y-58704283D01*
X107924173Y-58700424D01*
X107848772Y-58677551D01*
X107773371Y-58654679D01*
X107634392Y-58580392D01*
X107512578Y-58480422D01*
X107412608Y-58358608D01*
X107338321Y-58219629D01*
X107292576Y-58068826D01*
X107277130Y-57912000D01*
X107292576Y-57755174D01*
X107338321Y-57604371D01*
X107412608Y-57465392D01*
X107512578Y-57343578D01*
X107634392Y-57243608D01*
X107773371Y-57169321D01*
X107848772Y-57146449D01*
X107924173Y-57123576D01*
X107963351Y-57119717D01*
X108041705Y-57112000D01*
X108120295Y-57112000D01*
X108198649Y-57119717D01*
X108198649Y-57119717D01*
G37*
G36*
X110738649Y-57119717D02*
X110777827Y-57123576D01*
X110853228Y-57146449D01*
X110928629Y-57169321D01*
X111067608Y-57243608D01*
X111189422Y-57343578D01*
X111289392Y-57465392D01*
X111363679Y-57604371D01*
X111409424Y-57755174D01*
X111424870Y-57912000D01*
X111409424Y-58068826D01*
X111363679Y-58219629D01*
X111289392Y-58358608D01*
X111189422Y-58480422D01*
X111067608Y-58580392D01*
X110928629Y-58654679D01*
X110853227Y-58677552D01*
X110777827Y-58700424D01*
X110738649Y-58704283D01*
X110660295Y-58712000D01*
X110581705Y-58712000D01*
X110503351Y-58704283D01*
X110464173Y-58700424D01*
X110388772Y-58677551D01*
X110313371Y-58654679D01*
X110174392Y-58580392D01*
X110052578Y-58480422D01*
X109952608Y-58358608D01*
X109878321Y-58219629D01*
X109832576Y-58068826D01*
X109817130Y-57912000D01*
X109832576Y-57755174D01*
X109878321Y-57604371D01*
X109952608Y-57465392D01*
X110052578Y-57343578D01*
X110174392Y-57243608D01*
X110313371Y-57169321D01*
X110388772Y-57146449D01*
X110464173Y-57123576D01*
X110503351Y-57119717D01*
X110581705Y-57112000D01*
X110660295Y-57112000D01*
X110738649Y-57119717D01*
X110738649Y-57119717D01*
G37*
G36*
X115818649Y-57119717D02*
X115857827Y-57123576D01*
X115933228Y-57146449D01*
X116008629Y-57169321D01*
X116147608Y-57243608D01*
X116269422Y-57343578D01*
X116369392Y-57465392D01*
X116443679Y-57604371D01*
X116489424Y-57755174D01*
X116504870Y-57912000D01*
X116489424Y-58068826D01*
X116443679Y-58219629D01*
X116369392Y-58358608D01*
X116269422Y-58480422D01*
X116147608Y-58580392D01*
X116008629Y-58654679D01*
X115933227Y-58677552D01*
X115857827Y-58700424D01*
X115818649Y-58704283D01*
X115740295Y-58712000D01*
X115661705Y-58712000D01*
X115583351Y-58704283D01*
X115544173Y-58700424D01*
X115468772Y-58677551D01*
X115393371Y-58654679D01*
X115254392Y-58580392D01*
X115132578Y-58480422D01*
X115032608Y-58358608D01*
X114958321Y-58219629D01*
X114912576Y-58068826D01*
X114897130Y-57912000D01*
X114912576Y-57755174D01*
X114958321Y-57604371D01*
X115032608Y-57465392D01*
X115132578Y-57343578D01*
X115254392Y-57243608D01*
X115393371Y-57169321D01*
X115468772Y-57146449D01*
X115544173Y-57123576D01*
X115583351Y-57119717D01*
X115661705Y-57112000D01*
X115740295Y-57112000D01*
X115818649Y-57119717D01*
X115818649Y-57119717D01*
G37*
G36*
X118358649Y-57119717D02*
X118397827Y-57123576D01*
X118473228Y-57146449D01*
X118548629Y-57169321D01*
X118687608Y-57243608D01*
X118809422Y-57343578D01*
X118909392Y-57465392D01*
X118983679Y-57604371D01*
X119029424Y-57755174D01*
X119044870Y-57912000D01*
X119029424Y-58068826D01*
X118983679Y-58219629D01*
X118909392Y-58358608D01*
X118809422Y-58480422D01*
X118687608Y-58580392D01*
X118548629Y-58654679D01*
X118473227Y-58677552D01*
X118397827Y-58700424D01*
X118358649Y-58704283D01*
X118280295Y-58712000D01*
X118201705Y-58712000D01*
X118123351Y-58704283D01*
X118084173Y-58700424D01*
X118008772Y-58677551D01*
X117933371Y-58654679D01*
X117794392Y-58580392D01*
X117672578Y-58480422D01*
X117572608Y-58358608D01*
X117498321Y-58219629D01*
X117452576Y-58068826D01*
X117437130Y-57912000D01*
X117452576Y-57755174D01*
X117498321Y-57604371D01*
X117572608Y-57465392D01*
X117672578Y-57343578D01*
X117794392Y-57243608D01*
X117933371Y-57169321D01*
X118008772Y-57146449D01*
X118084173Y-57123576D01*
X118123351Y-57119717D01*
X118201705Y-57112000D01*
X118280295Y-57112000D01*
X118358649Y-57119717D01*
X118358649Y-57119717D01*
G37*
G36*
X113278649Y-57119717D02*
X113317827Y-57123576D01*
X113393228Y-57146449D01*
X113468629Y-57169321D01*
X113607608Y-57243608D01*
X113729422Y-57343578D01*
X113829392Y-57465392D01*
X113903679Y-57604371D01*
X113949424Y-57755174D01*
X113964870Y-57912000D01*
X113949424Y-58068826D01*
X113903679Y-58219629D01*
X113829392Y-58358608D01*
X113729422Y-58480422D01*
X113607608Y-58580392D01*
X113468629Y-58654679D01*
X113393227Y-58677552D01*
X113317827Y-58700424D01*
X113278649Y-58704283D01*
X113200295Y-58712000D01*
X113121705Y-58712000D01*
X113043351Y-58704283D01*
X113004173Y-58700424D01*
X112928772Y-58677551D01*
X112853371Y-58654679D01*
X112714392Y-58580392D01*
X112592578Y-58480422D01*
X112492608Y-58358608D01*
X112418321Y-58219629D01*
X112372576Y-58068826D01*
X112357130Y-57912000D01*
X112372576Y-57755174D01*
X112418321Y-57604371D01*
X112492608Y-57465392D01*
X112592578Y-57343578D01*
X112714392Y-57243608D01*
X112853371Y-57169321D01*
X112928772Y-57146449D01*
X113004173Y-57123576D01*
X113043351Y-57119717D01*
X113121705Y-57112000D01*
X113200295Y-57112000D01*
X113278649Y-57119717D01*
X113278649Y-57119717D01*
G37*
M02*
