%TF.GenerationSoftware,KiCad,Pcbnew,(5.0.1)-3*%
%TF.CreationDate,2020-11-23T15:34:50+02:00*%
%TF.ProjectId,Function_generator,46756E6374696F6E5F67656E65726174,rev?*%
%TF.SameCoordinates,Original*%
%TF.FileFunction,Legend,Top*%
%TF.FilePolarity,Positive*%
%FSLAX46Y46*%
G04 Gerber Fmt 4.6, Leading zero omitted, Abs format (unit mm)*
G04 Created by KiCad (PCBNEW (5.0.1)-3) date 23.11.2020 15:34:50*
%MOMM*%
%LPD*%
G01*
G04 APERTURE LIST*
%ADD10C,0.300000*%
%ADD11C,0.120000*%
%ADD12C,0.150000*%
G04 APERTURE END LIST*
D10*
X92914285Y-105278571D02*
X93414285Y-106778571D01*
X93914285Y-105278571D01*
X94414285Y-106778571D02*
X94414285Y-105778571D01*
X94414285Y-105278571D02*
X94342857Y-105350000D01*
X94414285Y-105421428D01*
X94485714Y-105350000D01*
X94414285Y-105278571D01*
X94414285Y-105421428D01*
X94914285Y-105778571D02*
X95485714Y-105778571D01*
X95128571Y-105278571D02*
X95128571Y-106564285D01*
X95200000Y-106707142D01*
X95342857Y-106778571D01*
X95485714Y-106778571D01*
X96628571Y-106778571D02*
X96628571Y-105992857D01*
X96557142Y-105850000D01*
X96414285Y-105778571D01*
X96128571Y-105778571D01*
X95985714Y-105850000D01*
X96628571Y-106707142D02*
X96485714Y-106778571D01*
X96128571Y-106778571D01*
X95985714Y-106707142D01*
X95914285Y-106564285D01*
X95914285Y-106421428D01*
X95985714Y-106278571D01*
X96128571Y-106207142D01*
X96485714Y-106207142D01*
X96628571Y-106135714D01*
X95914285Y-105350000D02*
X96628571Y-105350000D01*
X97557142Y-106778571D02*
X97414285Y-106707142D01*
X97342857Y-106564285D01*
X97342857Y-105278571D01*
X98128571Y-106778571D02*
X98128571Y-105778571D01*
X98128571Y-105278571D02*
X98057142Y-105350000D01*
X98128571Y-105421428D01*
X98200000Y-105350000D01*
X98128571Y-105278571D01*
X98128571Y-105421428D01*
X98842857Y-105778571D02*
X98842857Y-107064285D01*
X98771428Y-107207142D01*
X98628571Y-107278571D01*
X98557142Y-107278571D01*
X98842857Y-105278571D02*
X98771428Y-105350000D01*
X98842857Y-105421428D01*
X98914285Y-105350000D01*
X98842857Y-105278571D01*
X98842857Y-105421428D01*
X99485714Y-106707142D02*
X99628571Y-106778571D01*
X99914285Y-106778571D01*
X100057142Y-106707142D01*
X100128571Y-106564285D01*
X100128571Y-106492857D01*
X100057142Y-106350000D01*
X99914285Y-106278571D01*
X99700000Y-106278571D01*
X99557142Y-106207142D01*
X99485714Y-106064285D01*
X99485714Y-105992857D01*
X99557142Y-105850000D01*
X99700000Y-105778571D01*
X99914285Y-105778571D01*
X100057142Y-105850000D01*
X101771428Y-105278571D02*
X102771428Y-105278571D01*
X101771428Y-106778571D01*
X102771428Y-106778571D01*
X103985714Y-106778571D02*
X103985714Y-105992857D01*
X103914285Y-105850000D01*
X103771428Y-105778571D01*
X103485714Y-105778571D01*
X103342857Y-105850000D01*
X103985714Y-106707142D02*
X103842857Y-106778571D01*
X103485714Y-106778571D01*
X103342857Y-106707142D01*
X103271428Y-106564285D01*
X103271428Y-106421428D01*
X103342857Y-106278571D01*
X103485714Y-106207142D01*
X103842857Y-106207142D01*
X103985714Y-106135714D01*
X104700000Y-105778571D02*
X104700000Y-107278571D01*
X104700000Y-105850000D02*
X104842857Y-105778571D01*
X105128571Y-105778571D01*
X105271428Y-105850000D01*
X105342857Y-105921428D01*
X105414285Y-106064285D01*
X105414285Y-106492857D01*
X105342857Y-106635714D01*
X105271428Y-106707142D01*
X105128571Y-106778571D01*
X104842857Y-106778571D01*
X104700000Y-106707142D01*
X106700000Y-106778571D02*
X106700000Y-105992857D01*
X106628571Y-105850000D01*
X106485714Y-105778571D01*
X106200000Y-105778571D01*
X106057142Y-105850000D01*
X106700000Y-106707142D02*
X106557142Y-106778571D01*
X106200000Y-106778571D01*
X106057142Y-106707142D01*
X105985714Y-106564285D01*
X105985714Y-106421428D01*
X106057142Y-106278571D01*
X106200000Y-106207142D01*
X106557142Y-106207142D01*
X106700000Y-106135714D01*
X105985714Y-105350000D02*
X106700000Y-105350000D01*
X107414285Y-105778571D02*
X107414285Y-106778571D01*
X107414285Y-105921428D02*
X107485714Y-105850000D01*
X107628571Y-105778571D01*
X107842857Y-105778571D01*
X107985714Y-105850000D01*
X108057142Y-105992857D01*
X108057142Y-106778571D01*
X108700000Y-106707142D02*
X108842857Y-106778571D01*
X109128571Y-106778571D01*
X109271428Y-106707142D01*
X109342857Y-106564285D01*
X109342857Y-106492857D01*
X109271428Y-106350000D01*
X109128571Y-106278571D01*
X108914285Y-106278571D01*
X108771428Y-106207142D01*
X108700000Y-106064285D01*
X108700000Y-105992857D01*
X108771428Y-105850000D01*
X108914285Y-105778571D01*
X109128571Y-105778571D01*
X109271428Y-105850000D01*
D11*
%TO.C,C1*%
X133623267Y-77853000D02*
X133330733Y-77853000D01*
X133623267Y-76833000D02*
X133330733Y-76833000D01*
%TO.C,C2*%
X129919000Y-72751733D02*
X129919000Y-73044267D01*
X130939000Y-72751733D02*
X130939000Y-73044267D01*
%TO.C,C3*%
X129246267Y-64448000D02*
X128953733Y-64448000D01*
X129246267Y-63428000D02*
X128953733Y-63428000D01*
%TO.C,C4*%
X144228000Y-81947000D02*
X144228000Y-81447000D01*
X144478000Y-81697000D02*
X143978000Y-81697000D01*
X143738000Y-78941437D02*
X142673563Y-77877000D01*
X143738000Y-81332563D02*
X142673563Y-82397000D01*
X143738000Y-81332563D02*
X143738000Y-81197000D01*
X143738000Y-78941437D02*
X143738000Y-79077000D01*
X142673563Y-77877000D02*
X139218000Y-77877000D01*
X142673563Y-82397000D02*
X139218000Y-82397000D01*
X139218000Y-82397000D02*
X139218000Y-81197000D01*
X139218000Y-77877000D02*
X139218000Y-79077000D01*
%TO.C,C5*%
X130431000Y-68021267D02*
X130431000Y-67728733D01*
X129411000Y-68021267D02*
X129411000Y-67728733D01*
%TO.C,C6*%
X126843000Y-85527733D02*
X126843000Y-85820267D01*
X125823000Y-85527733D02*
X125823000Y-85820267D01*
%TO.C,C7*%
X129310000Y-99155267D02*
X129310000Y-98862733D01*
X128290000Y-99155267D02*
X128290000Y-98862733D01*
%TO.C,C8*%
X89027000Y-103124000D02*
X89027000Y-85344000D01*
X89027000Y-85344000D02*
X101727000Y-85344000D01*
X106553000Y-89154000D02*
X106553000Y-99314000D01*
X101727000Y-103124000D02*
X89027000Y-103124000D01*
X101727000Y-85344000D02*
X106553000Y-89154000D01*
X101727000Y-103124000D02*
X106553000Y-99314000D01*
%TO.C,C9*%
X93091000Y-63881000D02*
X88265000Y-67691000D01*
X93091000Y-81661000D02*
X88265000Y-77851000D01*
X93091000Y-63881000D02*
X105791000Y-63881000D01*
X88265000Y-77851000D02*
X88265000Y-67691000D01*
X105791000Y-81661000D02*
X93091000Y-81661000D01*
X105791000Y-63881000D02*
X105791000Y-81661000D01*
%TO.C,C10*%
X118788250Y-89553750D02*
X118788250Y-88766250D01*
X119182000Y-89160000D02*
X118394500Y-89160000D01*
X118154500Y-84966937D02*
X117090063Y-83902500D01*
X118154500Y-89658063D02*
X117090063Y-90722500D01*
X118154500Y-89658063D02*
X118154500Y-88372500D01*
X118154500Y-84966937D02*
X118154500Y-86252500D01*
X117090063Y-83902500D02*
X111334500Y-83902500D01*
X117090063Y-90722500D02*
X111334500Y-90722500D01*
X111334500Y-90722500D02*
X111334500Y-88372500D01*
X111334500Y-83902500D02*
X111334500Y-86252500D01*
%TO.C,C11*%
X117837000Y-82467500D02*
X117837000Y-80117500D01*
X117837000Y-75647500D02*
X117837000Y-77997500D01*
X112081437Y-75647500D02*
X117837000Y-75647500D01*
X112081437Y-82467500D02*
X117837000Y-82467500D01*
X111017000Y-81403063D02*
X111017000Y-80117500D01*
X111017000Y-76711937D02*
X111017000Y-77997500D01*
X111017000Y-76711937D02*
X112081437Y-75647500D01*
X111017000Y-81403063D02*
X112081437Y-82467500D01*
X109989500Y-77210000D02*
X110777000Y-77210000D01*
X110383250Y-76816250D02*
X110383250Y-77603750D01*
%TO.C,C12*%
X121090000Y-88053733D02*
X121090000Y-88346267D01*
X122110000Y-88053733D02*
X122110000Y-88346267D01*
%TO.C,C13*%
X121985500Y-77831733D02*
X121985500Y-78124267D01*
X120965500Y-77831733D02*
X120965500Y-78124267D01*
%TO.C,D1*%
X133460000Y-53465000D02*
X131000000Y-53465000D01*
X133460000Y-54935000D02*
X133460000Y-53465000D01*
X131000000Y-54935000D02*
X133460000Y-54935000D01*
%TO.C,J1*%
X157330000Y-94330000D02*
X156000000Y-94330000D01*
X157330000Y-93000000D02*
X157330000Y-94330000D01*
X157330000Y-91730000D02*
X154670000Y-91730000D01*
X154670000Y-91730000D02*
X154670000Y-89130000D01*
X157330000Y-91730000D02*
X157330000Y-89130000D01*
X157330000Y-89130000D02*
X154670000Y-89130000D01*
%TO.C,J2*%
X83970000Y-85870000D02*
X85300000Y-85870000D01*
X83970000Y-87200000D02*
X83970000Y-85870000D01*
X83970000Y-88470000D02*
X86630000Y-88470000D01*
X86630000Y-88470000D02*
X86630000Y-93610000D01*
X83970000Y-88470000D02*
X83970000Y-93610000D01*
X83970000Y-93610000D02*
X86630000Y-93610000D01*
%TO.C,R1*%
X129493500Y-85928724D02*
X129493500Y-85419276D01*
X130538500Y-85928724D02*
X130538500Y-85419276D01*
%TO.C,R2*%
X128030500Y-68129724D02*
X128030500Y-67620276D01*
X126985500Y-68129724D02*
X126985500Y-67620276D01*
%TO.C,R3*%
X126545276Y-78677500D02*
X127054724Y-78677500D01*
X126545276Y-79722500D02*
X127054724Y-79722500D01*
%TO.C,R4*%
X136054724Y-53677500D02*
X135545276Y-53677500D01*
X136054724Y-54722500D02*
X135545276Y-54722500D01*
%TO.C,RV2*%
X149470000Y-94120000D02*
X145730000Y-94120000D01*
X149470000Y-89080000D02*
X145730000Y-89080000D01*
X145730000Y-92840000D02*
X145730000Y-94120000D01*
X145730000Y-89080000D02*
X145730000Y-90360000D01*
X149470000Y-91240000D02*
X149470000Y-91960000D01*
X149470000Y-89080000D02*
X149470000Y-89460000D01*
X149470000Y-93740000D02*
X149470000Y-94120000D01*
%TO.C,SW2*%
X151710000Y-68620000D02*
G75*
G03X151710000Y-68620000I-3000000J0D01*
G01*
X146710000Y-74520000D02*
X142610000Y-74520000D01*
X142610000Y-62720000D02*
X146710000Y-62720000D01*
X150710000Y-62720000D02*
X154810000Y-62720000D01*
X150710000Y-74520000D02*
X154810000Y-74520000D01*
X154810000Y-74520000D02*
X154810000Y-62720000D01*
X156210000Y-72420000D02*
X156510000Y-72720000D01*
X156510000Y-72720000D02*
X155910000Y-72720000D01*
X155910000Y-72720000D02*
X156210000Y-72420000D01*
X142610000Y-74520000D02*
X142610000Y-72120000D01*
X142610000Y-69920000D02*
X142610000Y-67320000D01*
X142610000Y-65120000D02*
X142610000Y-62720000D01*
X148710000Y-69120000D02*
X148710000Y-68120000D01*
X149210000Y-68620000D02*
X148210000Y-68620000D01*
%TO.C,U2*%
X130798000Y-92659000D02*
X130798000Y-89209000D01*
X130798000Y-92659000D02*
X130798000Y-94609000D01*
X125678000Y-92659000D02*
X125678000Y-90709000D01*
X125678000Y-92659000D02*
X125678000Y-94609000D01*
%TO.C,U3*%
X118520000Y-65571000D02*
X119620000Y-65571000D01*
X118520000Y-63761000D02*
X118520000Y-65571000D01*
X117020000Y-63761000D02*
X118520000Y-63761000D01*
X118520000Y-72351000D02*
X123645000Y-72351000D01*
X118520000Y-74161000D02*
X118520000Y-72351000D01*
X117020000Y-74161000D02*
X118520000Y-74161000D01*
D12*
%TO.C,U4*%
X132662000Y-67010000D02*
X132662000Y-68235000D01*
X135787000Y-67010000D02*
X135787000Y-63660000D01*
X132437000Y-67010000D02*
X132437000Y-63660000D01*
X135787000Y-67010000D02*
X135487000Y-67010000D01*
X135787000Y-63660000D02*
X135487000Y-63660000D01*
X132437000Y-63660000D02*
X132737000Y-63660000D01*
X132437000Y-67010000D02*
X132662000Y-67010000D01*
D11*
%TO.C,X1*%
X135052000Y-74798000D02*
X135052000Y-70998000D01*
X131902000Y-74798000D02*
X135052000Y-74798000D01*
%TO.C,DS1*%
X93285000Y-56836000D02*
X93285000Y-59496000D01*
X100965000Y-56836000D02*
X93285000Y-56836000D01*
X100965000Y-59496000D02*
X93285000Y-59496000D01*
X100965000Y-56836000D02*
X100965000Y-59496000D01*
X102235000Y-56836000D02*
X103565000Y-56836000D01*
X103565000Y-56836000D02*
X103565000Y-58166000D01*
%TO.C,U1*%
X115778000Y-99525500D02*
X117278000Y-99525500D01*
X117278000Y-99525500D02*
X117278000Y-99255500D01*
X117278000Y-99255500D02*
X120108000Y-99255500D01*
X115778000Y-92625500D02*
X117278000Y-92625500D01*
X117278000Y-92625500D02*
X117278000Y-92895500D01*
X117278000Y-92895500D02*
X118378000Y-92895500D01*
%TO.C,SW1*%
X86050000Y-73000000D02*
X84850000Y-73000000D01*
X86050000Y-74200000D02*
X86050000Y-73000000D01*
X81550000Y-82500000D02*
X81550000Y-81300000D01*
X85750000Y-82500000D02*
X81550000Y-82500000D01*
X85750000Y-81300000D02*
X85750000Y-82500000D01*
X81550000Y-73300000D02*
X81550000Y-74500000D01*
X85750000Y-73300000D02*
X81550000Y-73300000D01*
X85750000Y-74500000D02*
X85750000Y-73300000D01*
%TO.C,C1*%
D12*
X133310333Y-76303142D02*
X133262714Y-76350761D01*
X133119857Y-76398380D01*
X133024619Y-76398380D01*
X132881761Y-76350761D01*
X132786523Y-76255523D01*
X132738904Y-76160285D01*
X132691285Y-75969809D01*
X132691285Y-75826952D01*
X132738904Y-75636476D01*
X132786523Y-75541238D01*
X132881761Y-75446000D01*
X133024619Y-75398380D01*
X133119857Y-75398380D01*
X133262714Y-75446000D01*
X133310333Y-75493619D01*
X134262714Y-76398380D02*
X133691285Y-76398380D01*
X133977000Y-76398380D02*
X133977000Y-75398380D01*
X133881761Y-75541238D01*
X133786523Y-75636476D01*
X133691285Y-75684095D01*
%TO.C,C2*%
X130262333Y-70842142D02*
X130214714Y-70889761D01*
X130071857Y-70937380D01*
X129976619Y-70937380D01*
X129833761Y-70889761D01*
X129738523Y-70794523D01*
X129690904Y-70699285D01*
X129643285Y-70508809D01*
X129643285Y-70365952D01*
X129690904Y-70175476D01*
X129738523Y-70080238D01*
X129833761Y-69985000D01*
X129976619Y-69937380D01*
X130071857Y-69937380D01*
X130214714Y-69985000D01*
X130262333Y-70032619D01*
X130643285Y-70032619D02*
X130690904Y-69985000D01*
X130786142Y-69937380D01*
X131024238Y-69937380D01*
X131119476Y-69985000D01*
X131167095Y-70032619D01*
X131214714Y-70127857D01*
X131214714Y-70223095D01*
X131167095Y-70365952D01*
X130595666Y-70937380D01*
X131214714Y-70937380D01*
%TO.C,C3*%
X128633333Y-62957142D02*
X128585714Y-63004761D01*
X128442857Y-63052380D01*
X128347619Y-63052380D01*
X128204761Y-63004761D01*
X128109523Y-62909523D01*
X128061904Y-62814285D01*
X128014285Y-62623809D01*
X128014285Y-62480952D01*
X128061904Y-62290476D01*
X128109523Y-62195238D01*
X128204761Y-62100000D01*
X128347619Y-62052380D01*
X128442857Y-62052380D01*
X128585714Y-62100000D01*
X128633333Y-62147619D01*
X128966666Y-62052380D02*
X129585714Y-62052380D01*
X129252380Y-62433333D01*
X129395238Y-62433333D01*
X129490476Y-62480952D01*
X129538095Y-62528571D01*
X129585714Y-62623809D01*
X129585714Y-62861904D01*
X129538095Y-62957142D01*
X129490476Y-63004761D01*
X129395238Y-63052380D01*
X129109523Y-63052380D01*
X129014285Y-63004761D01*
X128966666Y-62957142D01*
%TO.C,C4*%
X141184333Y-77192142D02*
X141136714Y-77239761D01*
X140993857Y-77287380D01*
X140898619Y-77287380D01*
X140755761Y-77239761D01*
X140660523Y-77144523D01*
X140612904Y-77049285D01*
X140565285Y-76858809D01*
X140565285Y-76715952D01*
X140612904Y-76525476D01*
X140660523Y-76430238D01*
X140755761Y-76335000D01*
X140898619Y-76287380D01*
X140993857Y-76287380D01*
X141136714Y-76335000D01*
X141184333Y-76382619D01*
X142041476Y-76620714D02*
X142041476Y-77287380D01*
X141803380Y-76239761D02*
X141565285Y-76954047D01*
X142184333Y-76954047D01*
%TO.C,C5*%
X129881333Y-65757142D02*
X129833714Y-65804761D01*
X129690857Y-65852380D01*
X129595619Y-65852380D01*
X129452761Y-65804761D01*
X129357523Y-65709523D01*
X129309904Y-65614285D01*
X129262285Y-65423809D01*
X129262285Y-65280952D01*
X129309904Y-65090476D01*
X129357523Y-64995238D01*
X129452761Y-64900000D01*
X129595619Y-64852380D01*
X129690857Y-64852380D01*
X129833714Y-64900000D01*
X129881333Y-64947619D01*
X130786095Y-64852380D02*
X130309904Y-64852380D01*
X130262285Y-65328571D01*
X130309904Y-65280952D01*
X130405142Y-65233333D01*
X130643238Y-65233333D01*
X130738476Y-65280952D01*
X130786095Y-65328571D01*
X130833714Y-65423809D01*
X130833714Y-65661904D01*
X130786095Y-65757142D01*
X130738476Y-65804761D01*
X130643238Y-65852380D01*
X130405142Y-65852380D01*
X130309904Y-65804761D01*
X130262285Y-65757142D01*
%TO.C,C6*%
X126166333Y-83491142D02*
X126118714Y-83538761D01*
X125975857Y-83586380D01*
X125880619Y-83586380D01*
X125737761Y-83538761D01*
X125642523Y-83443523D01*
X125594904Y-83348285D01*
X125547285Y-83157809D01*
X125547285Y-83014952D01*
X125594904Y-82824476D01*
X125642523Y-82729238D01*
X125737761Y-82634000D01*
X125880619Y-82586380D01*
X125975857Y-82586380D01*
X126118714Y-82634000D01*
X126166333Y-82681619D01*
X127023476Y-82586380D02*
X126833000Y-82586380D01*
X126737761Y-82634000D01*
X126690142Y-82681619D01*
X126594904Y-82824476D01*
X126547285Y-83014952D01*
X126547285Y-83395904D01*
X126594904Y-83491142D01*
X126642523Y-83538761D01*
X126737761Y-83586380D01*
X126928238Y-83586380D01*
X127023476Y-83538761D01*
X127071095Y-83491142D01*
X127118714Y-83395904D01*
X127118714Y-83157809D01*
X127071095Y-83062571D01*
X127023476Y-83014952D01*
X126928238Y-82967333D01*
X126737761Y-82967333D01*
X126642523Y-83014952D01*
X126594904Y-83062571D01*
X126547285Y-83157809D01*
%TO.C,C7*%
X127033333Y-97557142D02*
X126985714Y-97604761D01*
X126842857Y-97652380D01*
X126747619Y-97652380D01*
X126604761Y-97604761D01*
X126509523Y-97509523D01*
X126461904Y-97414285D01*
X126414285Y-97223809D01*
X126414285Y-97080952D01*
X126461904Y-96890476D01*
X126509523Y-96795238D01*
X126604761Y-96700000D01*
X126747619Y-96652380D01*
X126842857Y-96652380D01*
X126985714Y-96700000D01*
X127033333Y-96747619D01*
X127366666Y-96652380D02*
X128033333Y-96652380D01*
X127604761Y-97652380D01*
%TO.C,C8*%
X89833333Y-84757142D02*
X89785714Y-84804761D01*
X89642857Y-84852380D01*
X89547619Y-84852380D01*
X89404761Y-84804761D01*
X89309523Y-84709523D01*
X89261904Y-84614285D01*
X89214285Y-84423809D01*
X89214285Y-84280952D01*
X89261904Y-84090476D01*
X89309523Y-83995238D01*
X89404761Y-83900000D01*
X89547619Y-83852380D01*
X89642857Y-83852380D01*
X89785714Y-83900000D01*
X89833333Y-83947619D01*
X90404761Y-84280952D02*
X90309523Y-84233333D01*
X90261904Y-84185714D01*
X90214285Y-84090476D01*
X90214285Y-84042857D01*
X90261904Y-83947619D01*
X90309523Y-83900000D01*
X90404761Y-83852380D01*
X90595238Y-83852380D01*
X90690476Y-83900000D01*
X90738095Y-83947619D01*
X90785714Y-84042857D01*
X90785714Y-84090476D01*
X90738095Y-84185714D01*
X90690476Y-84233333D01*
X90595238Y-84280952D01*
X90404761Y-84280952D01*
X90309523Y-84328571D01*
X90261904Y-84376190D01*
X90214285Y-84471428D01*
X90214285Y-84661904D01*
X90261904Y-84757142D01*
X90309523Y-84804761D01*
X90404761Y-84852380D01*
X90595238Y-84852380D01*
X90690476Y-84804761D01*
X90738095Y-84757142D01*
X90785714Y-84661904D01*
X90785714Y-84471428D01*
X90738095Y-84376190D01*
X90690476Y-84328571D01*
X90595238Y-84280952D01*
%TO.C,C9*%
X104233333Y-63157142D02*
X104185714Y-63204761D01*
X104042857Y-63252380D01*
X103947619Y-63252380D01*
X103804761Y-63204761D01*
X103709523Y-63109523D01*
X103661904Y-63014285D01*
X103614285Y-62823809D01*
X103614285Y-62680952D01*
X103661904Y-62490476D01*
X103709523Y-62395238D01*
X103804761Y-62300000D01*
X103947619Y-62252380D01*
X104042857Y-62252380D01*
X104185714Y-62300000D01*
X104233333Y-62347619D01*
X104709523Y-63252380D02*
X104900000Y-63252380D01*
X104995238Y-63204761D01*
X105042857Y-63157142D01*
X105138095Y-63014285D01*
X105185714Y-62823809D01*
X105185714Y-62442857D01*
X105138095Y-62347619D01*
X105090476Y-62300000D01*
X104995238Y-62252380D01*
X104804761Y-62252380D01*
X104709523Y-62300000D01*
X104661904Y-62347619D01*
X104614285Y-62442857D01*
X104614285Y-62680952D01*
X104661904Y-62776190D01*
X104709523Y-62823809D01*
X104804761Y-62871428D01*
X104995238Y-62871428D01*
X105090476Y-62823809D01*
X105138095Y-62776190D01*
X105185714Y-62680952D01*
%TO.C,C10*%
X109357142Y-83557142D02*
X109309523Y-83604761D01*
X109166666Y-83652380D01*
X109071428Y-83652380D01*
X108928571Y-83604761D01*
X108833333Y-83509523D01*
X108785714Y-83414285D01*
X108738095Y-83223809D01*
X108738095Y-83080952D01*
X108785714Y-82890476D01*
X108833333Y-82795238D01*
X108928571Y-82700000D01*
X109071428Y-82652380D01*
X109166666Y-82652380D01*
X109309523Y-82700000D01*
X109357142Y-82747619D01*
X110309523Y-83652380D02*
X109738095Y-83652380D01*
X110023809Y-83652380D02*
X110023809Y-82652380D01*
X109928571Y-82795238D01*
X109833333Y-82890476D01*
X109738095Y-82938095D01*
X110928571Y-82652380D02*
X111023809Y-82652380D01*
X111119047Y-82700000D01*
X111166666Y-82747619D01*
X111214285Y-82842857D01*
X111261904Y-83033333D01*
X111261904Y-83271428D01*
X111214285Y-83461904D01*
X111166666Y-83557142D01*
X111119047Y-83604761D01*
X111023809Y-83652380D01*
X110928571Y-83652380D01*
X110833333Y-83604761D01*
X110785714Y-83557142D01*
X110738095Y-83461904D01*
X110690476Y-83271428D01*
X110690476Y-83033333D01*
X110738095Y-82842857D01*
X110785714Y-82747619D01*
X110833333Y-82700000D01*
X110928571Y-82652380D01*
%TO.C,C11*%
X109557142Y-75757142D02*
X109509523Y-75804761D01*
X109366666Y-75852380D01*
X109271428Y-75852380D01*
X109128571Y-75804761D01*
X109033333Y-75709523D01*
X108985714Y-75614285D01*
X108938095Y-75423809D01*
X108938095Y-75280952D01*
X108985714Y-75090476D01*
X109033333Y-74995238D01*
X109128571Y-74900000D01*
X109271428Y-74852380D01*
X109366666Y-74852380D01*
X109509523Y-74900000D01*
X109557142Y-74947619D01*
X110509523Y-75852380D02*
X109938095Y-75852380D01*
X110223809Y-75852380D02*
X110223809Y-74852380D01*
X110128571Y-74995238D01*
X110033333Y-75090476D01*
X109938095Y-75138095D01*
X111461904Y-75852380D02*
X110890476Y-75852380D01*
X111176190Y-75852380D02*
X111176190Y-74852380D01*
X111080952Y-74995238D01*
X110985714Y-75090476D01*
X110890476Y-75138095D01*
%TO.C,C12*%
X121084142Y-85957142D02*
X121036523Y-86004761D01*
X120893666Y-86052380D01*
X120798428Y-86052380D01*
X120655571Y-86004761D01*
X120560333Y-85909523D01*
X120512714Y-85814285D01*
X120465095Y-85623809D01*
X120465095Y-85480952D01*
X120512714Y-85290476D01*
X120560333Y-85195238D01*
X120655571Y-85100000D01*
X120798428Y-85052380D01*
X120893666Y-85052380D01*
X121036523Y-85100000D01*
X121084142Y-85147619D01*
X122036523Y-86052380D02*
X121465095Y-86052380D01*
X121750809Y-86052380D02*
X121750809Y-85052380D01*
X121655571Y-85195238D01*
X121560333Y-85290476D01*
X121465095Y-85338095D01*
X122417476Y-85147619D02*
X122465095Y-85100000D01*
X122560333Y-85052380D01*
X122798428Y-85052380D01*
X122893666Y-85100000D01*
X122941285Y-85147619D01*
X122988904Y-85242857D01*
X122988904Y-85338095D01*
X122941285Y-85480952D01*
X122369857Y-86052380D01*
X122988904Y-86052380D01*
%TO.C,C13*%
X120957142Y-75957142D02*
X120909523Y-76004761D01*
X120766666Y-76052380D01*
X120671428Y-76052380D01*
X120528571Y-76004761D01*
X120433333Y-75909523D01*
X120385714Y-75814285D01*
X120338095Y-75623809D01*
X120338095Y-75480952D01*
X120385714Y-75290476D01*
X120433333Y-75195238D01*
X120528571Y-75100000D01*
X120671428Y-75052380D01*
X120766666Y-75052380D01*
X120909523Y-75100000D01*
X120957142Y-75147619D01*
X121909523Y-76052380D02*
X121338095Y-76052380D01*
X121623809Y-76052380D02*
X121623809Y-75052380D01*
X121528571Y-75195238D01*
X121433333Y-75290476D01*
X121338095Y-75338095D01*
X122242857Y-75052380D02*
X122861904Y-75052380D01*
X122528571Y-75433333D01*
X122671428Y-75433333D01*
X122766666Y-75480952D01*
X122814285Y-75528571D01*
X122861904Y-75623809D01*
X122861904Y-75861904D01*
X122814285Y-75957142D01*
X122766666Y-76004761D01*
X122671428Y-76052380D01*
X122385714Y-76052380D01*
X122290476Y-76004761D01*
X122242857Y-75957142D01*
%TO.C,D1*%
X131061904Y-53252380D02*
X131061904Y-52252380D01*
X131300000Y-52252380D01*
X131442857Y-52300000D01*
X131538095Y-52395238D01*
X131585714Y-52490476D01*
X131633333Y-52680952D01*
X131633333Y-52823809D01*
X131585714Y-53014285D01*
X131538095Y-53109523D01*
X131442857Y-53204761D01*
X131300000Y-53252380D01*
X131061904Y-53252380D01*
X132585714Y-53252380D02*
X132014285Y-53252380D01*
X132300000Y-53252380D02*
X132300000Y-52252380D01*
X132204761Y-52395238D01*
X132109523Y-52490476D01*
X132014285Y-52538095D01*
%TO.C,J1*%
X158366666Y-89052380D02*
X158366666Y-89766666D01*
X158319047Y-89909523D01*
X158223809Y-90004761D01*
X158080952Y-90052380D01*
X157985714Y-90052380D01*
X159366666Y-90052380D02*
X158795238Y-90052380D01*
X159080952Y-90052380D02*
X159080952Y-89052380D01*
X158985714Y-89195238D01*
X158890476Y-89290476D01*
X158795238Y-89338095D01*
X153976190Y-87252380D02*
X154166666Y-87252380D01*
X154261904Y-87300000D01*
X154357142Y-87395238D01*
X154404761Y-87585714D01*
X154404761Y-87919047D01*
X154357142Y-88109523D01*
X154261904Y-88204761D01*
X154166666Y-88252380D01*
X153976190Y-88252380D01*
X153880952Y-88204761D01*
X153785714Y-88109523D01*
X153738095Y-87919047D01*
X153738095Y-87585714D01*
X153785714Y-87395238D01*
X153880952Y-87300000D01*
X153976190Y-87252380D01*
X155261904Y-87585714D02*
X155261904Y-88252380D01*
X154833333Y-87585714D02*
X154833333Y-88109523D01*
X154880952Y-88204761D01*
X154976190Y-88252380D01*
X155119047Y-88252380D01*
X155214285Y-88204761D01*
X155261904Y-88157142D01*
X155595238Y-87585714D02*
X155976190Y-87585714D01*
X155738095Y-87252380D02*
X155738095Y-88109523D01*
X155785714Y-88204761D01*
X155880952Y-88252380D01*
X155976190Y-88252380D01*
X156309523Y-87585714D02*
X156309523Y-88585714D01*
X156309523Y-87633333D02*
X156404761Y-87585714D01*
X156595238Y-87585714D01*
X156690476Y-87633333D01*
X156738095Y-87680952D01*
X156785714Y-87776190D01*
X156785714Y-88061904D01*
X156738095Y-88157142D01*
X156690476Y-88204761D01*
X156595238Y-88252380D01*
X156404761Y-88252380D01*
X156309523Y-88204761D01*
X157642857Y-87585714D02*
X157642857Y-88252380D01*
X157214285Y-87585714D02*
X157214285Y-88109523D01*
X157261904Y-88204761D01*
X157357142Y-88252380D01*
X157500000Y-88252380D01*
X157595238Y-88204761D01*
X157642857Y-88157142D01*
X157976190Y-87585714D02*
X158357142Y-87585714D01*
X158119047Y-87252380D02*
X158119047Y-88109523D01*
X158166666Y-88204761D01*
X158261904Y-88252380D01*
X158357142Y-88252380D01*
%TO.C,J2*%
X84966666Y-84029380D02*
X84966666Y-84743666D01*
X84919047Y-84886523D01*
X84823809Y-84981761D01*
X84680952Y-85029380D01*
X84585714Y-85029380D01*
X85395238Y-84124619D02*
X85442857Y-84077000D01*
X85538095Y-84029380D01*
X85776190Y-84029380D01*
X85871428Y-84077000D01*
X85919047Y-84124619D01*
X85966666Y-84219857D01*
X85966666Y-84315095D01*
X85919047Y-84457952D01*
X85347619Y-85029380D01*
X85966666Y-85029380D01*
X82771428Y-96423809D02*
X82771428Y-95661904D01*
X83152380Y-94661904D02*
X83152380Y-95233333D01*
X83152380Y-94947619D02*
X82152380Y-94947619D01*
X82295238Y-95042857D01*
X82390476Y-95138095D01*
X82438095Y-95233333D01*
X82152380Y-93757142D02*
X82152380Y-94233333D01*
X82628571Y-94280952D01*
X82580952Y-94233333D01*
X82533333Y-94138095D01*
X82533333Y-93900000D01*
X82580952Y-93804761D01*
X82628571Y-93757142D01*
X82723809Y-93709523D01*
X82961904Y-93709523D01*
X83057142Y-93757142D01*
X83104761Y-93804761D01*
X83152380Y-93900000D01*
X83152380Y-94138095D01*
X83104761Y-94233333D01*
X83057142Y-94280952D01*
X82152380Y-93423809D02*
X83152380Y-93090476D01*
X82152380Y-92757142D01*
X83104761Y-92376190D02*
X83152380Y-92376190D01*
X83247619Y-92423809D01*
X83295238Y-92471428D01*
X82200000Y-90661904D02*
X82152380Y-90757142D01*
X82152380Y-90900000D01*
X82200000Y-91042857D01*
X82295238Y-91138095D01*
X82390476Y-91185714D01*
X82580952Y-91233333D01*
X82723809Y-91233333D01*
X82914285Y-91185714D01*
X83009523Y-91138095D01*
X83104761Y-91042857D01*
X83152380Y-90900000D01*
X83152380Y-90804761D01*
X83104761Y-90661904D01*
X83057142Y-90614285D01*
X82723809Y-90614285D01*
X82723809Y-90804761D01*
X83152380Y-90185714D02*
X82152380Y-90185714D01*
X83152380Y-89614285D01*
X82152380Y-89614285D01*
X83152380Y-89138095D02*
X82152380Y-89138095D01*
X82152380Y-88900000D01*
X82200000Y-88757142D01*
X82295238Y-88661904D01*
X82390476Y-88614285D01*
X82580952Y-88566666D01*
X82723809Y-88566666D01*
X82914285Y-88614285D01*
X83009523Y-88661904D01*
X83104761Y-88757142D01*
X83152380Y-88900000D01*
X83152380Y-89138095D01*
X83104761Y-88090476D02*
X83152380Y-88090476D01*
X83247619Y-88138095D01*
X83295238Y-88185714D01*
X82771428Y-86900000D02*
X82771428Y-86138095D01*
X83152380Y-86519047D02*
X82390476Y-86519047D01*
X83152380Y-85138095D02*
X83152380Y-85709523D01*
X83152380Y-85423809D02*
X82152380Y-85423809D01*
X82295238Y-85519047D01*
X82390476Y-85614285D01*
X82438095Y-85709523D01*
X82152380Y-84233333D02*
X82152380Y-84709523D01*
X82628571Y-84757142D01*
X82580952Y-84709523D01*
X82533333Y-84614285D01*
X82533333Y-84376190D01*
X82580952Y-84280952D01*
X82628571Y-84233333D01*
X82723809Y-84185714D01*
X82961904Y-84185714D01*
X83057142Y-84233333D01*
X83104761Y-84280952D01*
X83152380Y-84376190D01*
X83152380Y-84614285D01*
X83104761Y-84709523D01*
X83057142Y-84757142D01*
X82152380Y-83900000D02*
X83152380Y-83566666D01*
X82152380Y-83233333D01*
%TO.C,R1*%
X129976333Y-83713380D02*
X129643000Y-83237190D01*
X129404904Y-83713380D02*
X129404904Y-82713380D01*
X129785857Y-82713380D01*
X129881095Y-82761000D01*
X129928714Y-82808619D01*
X129976333Y-82903857D01*
X129976333Y-83046714D01*
X129928714Y-83141952D01*
X129881095Y-83189571D01*
X129785857Y-83237190D01*
X129404904Y-83237190D01*
X130928714Y-83713380D02*
X130357285Y-83713380D01*
X130643000Y-83713380D02*
X130643000Y-82713380D01*
X130547761Y-82856238D01*
X130452523Y-82951476D01*
X130357285Y-82999095D01*
%TO.C,R2*%
X127214333Y-65787380D02*
X126881000Y-65311190D01*
X126642904Y-65787380D02*
X126642904Y-64787380D01*
X127023857Y-64787380D01*
X127119095Y-64835000D01*
X127166714Y-64882619D01*
X127214333Y-64977857D01*
X127214333Y-65120714D01*
X127166714Y-65215952D01*
X127119095Y-65263571D01*
X127023857Y-65311190D01*
X126642904Y-65311190D01*
X127595285Y-64882619D02*
X127642904Y-64835000D01*
X127738142Y-64787380D01*
X127976238Y-64787380D01*
X128071476Y-64835000D01*
X128119095Y-64882619D01*
X128166714Y-64977857D01*
X128166714Y-65073095D01*
X128119095Y-65215952D01*
X127547666Y-65787380D01*
X128166714Y-65787380D01*
%TO.C,R3*%
X126633333Y-78222380D02*
X126300000Y-77746190D01*
X126061904Y-78222380D02*
X126061904Y-77222380D01*
X126442857Y-77222380D01*
X126538095Y-77270000D01*
X126585714Y-77317619D01*
X126633333Y-77412857D01*
X126633333Y-77555714D01*
X126585714Y-77650952D01*
X126538095Y-77698571D01*
X126442857Y-77746190D01*
X126061904Y-77746190D01*
X126966666Y-77222380D02*
X127585714Y-77222380D01*
X127252380Y-77603333D01*
X127395238Y-77603333D01*
X127490476Y-77650952D01*
X127538095Y-77698571D01*
X127585714Y-77793809D01*
X127585714Y-78031904D01*
X127538095Y-78127142D01*
X127490476Y-78174761D01*
X127395238Y-78222380D01*
X127109523Y-78222380D01*
X127014285Y-78174761D01*
X126966666Y-78127142D01*
%TO.C,R4*%
X135633333Y-53252380D02*
X135300000Y-52776190D01*
X135061904Y-53252380D02*
X135061904Y-52252380D01*
X135442857Y-52252380D01*
X135538095Y-52300000D01*
X135585714Y-52347619D01*
X135633333Y-52442857D01*
X135633333Y-52585714D01*
X135585714Y-52680952D01*
X135538095Y-52728571D01*
X135442857Y-52776190D01*
X135061904Y-52776190D01*
X136490476Y-52585714D02*
X136490476Y-53252380D01*
X136252380Y-52204761D02*
X136014285Y-52919047D01*
X136633333Y-52919047D01*
%TO.C,RV2*%
X147004761Y-88452380D02*
X146671428Y-87976190D01*
X146433333Y-88452380D02*
X146433333Y-87452380D01*
X146814285Y-87452380D01*
X146909523Y-87500000D01*
X146957142Y-87547619D01*
X147004761Y-87642857D01*
X147004761Y-87785714D01*
X146957142Y-87880952D01*
X146909523Y-87928571D01*
X146814285Y-87976190D01*
X146433333Y-87976190D01*
X147290476Y-87452380D02*
X147623809Y-88452380D01*
X147957142Y-87452380D01*
X148242857Y-87547619D02*
X148290476Y-87500000D01*
X148385714Y-87452380D01*
X148623809Y-87452380D01*
X148719047Y-87500000D01*
X148766666Y-87547619D01*
X148814285Y-87642857D01*
X148814285Y-87738095D01*
X148766666Y-87880952D01*
X148195238Y-88452380D01*
X148814285Y-88452380D01*
%TO.C,SW2*%
X157966666Y-62704761D02*
X158109523Y-62752380D01*
X158347619Y-62752380D01*
X158442857Y-62704761D01*
X158490476Y-62657142D01*
X158538095Y-62561904D01*
X158538095Y-62466666D01*
X158490476Y-62371428D01*
X158442857Y-62323809D01*
X158347619Y-62276190D01*
X158157142Y-62228571D01*
X158061904Y-62180952D01*
X158014285Y-62133333D01*
X157966666Y-62038095D01*
X157966666Y-61942857D01*
X158014285Y-61847619D01*
X158061904Y-61800000D01*
X158157142Y-61752380D01*
X158395238Y-61752380D01*
X158538095Y-61800000D01*
X158871428Y-61752380D02*
X159109523Y-62752380D01*
X159300000Y-62038095D01*
X159490476Y-62752380D01*
X159728571Y-61752380D01*
X160061904Y-61847619D02*
X160109523Y-61800000D01*
X160204761Y-61752380D01*
X160442857Y-61752380D01*
X160538095Y-61800000D01*
X160585714Y-61847619D01*
X160633333Y-61942857D01*
X160633333Y-62038095D01*
X160585714Y-62180952D01*
X160014285Y-62752380D01*
X160633333Y-62752380D01*
X141385714Y-61172380D02*
X141052380Y-60696190D01*
X140814285Y-61172380D02*
X140814285Y-60172380D01*
X141195238Y-60172380D01*
X141290476Y-60220000D01*
X141338095Y-60267619D01*
X141385714Y-60362857D01*
X141385714Y-60505714D01*
X141338095Y-60600952D01*
X141290476Y-60648571D01*
X141195238Y-60696190D01*
X140814285Y-60696190D01*
X141957142Y-61172380D02*
X141861904Y-61124761D01*
X141814285Y-61077142D01*
X141766666Y-60981904D01*
X141766666Y-60696190D01*
X141814285Y-60600952D01*
X141861904Y-60553333D01*
X141957142Y-60505714D01*
X142100000Y-60505714D01*
X142195238Y-60553333D01*
X142242857Y-60600952D01*
X142290476Y-60696190D01*
X142290476Y-60981904D01*
X142242857Y-61077142D01*
X142195238Y-61124761D01*
X142100000Y-61172380D01*
X141957142Y-61172380D01*
X142576190Y-60505714D02*
X142957142Y-60505714D01*
X142719047Y-60172380D02*
X142719047Y-61029523D01*
X142766666Y-61124761D01*
X142861904Y-61172380D01*
X142957142Y-61172380D01*
X143719047Y-61172380D02*
X143719047Y-60648571D01*
X143671428Y-60553333D01*
X143576190Y-60505714D01*
X143385714Y-60505714D01*
X143290476Y-60553333D01*
X143719047Y-61124761D02*
X143623809Y-61172380D01*
X143385714Y-61172380D01*
X143290476Y-61124761D01*
X143242857Y-61029523D01*
X143242857Y-60934285D01*
X143290476Y-60839047D01*
X143385714Y-60791428D01*
X143623809Y-60791428D01*
X143719047Y-60743809D01*
X144195238Y-61172380D02*
X144195238Y-60505714D01*
X144195238Y-60696190D02*
X144242857Y-60600952D01*
X144290476Y-60553333D01*
X144385714Y-60505714D01*
X144480952Y-60505714D01*
X144719047Y-60505714D02*
X144957142Y-61172380D01*
X145195238Y-60505714D02*
X144957142Y-61172380D01*
X144861904Y-61410476D01*
X144814285Y-61458095D01*
X144719047Y-61505714D01*
X145338095Y-61267619D02*
X146100000Y-61267619D01*
X146338095Y-60648571D02*
X146671428Y-60648571D01*
X146814285Y-61172380D02*
X146338095Y-61172380D01*
X146338095Y-60172380D01*
X146814285Y-60172380D01*
X147242857Y-60505714D02*
X147242857Y-61172380D01*
X147242857Y-60600952D02*
X147290476Y-60553333D01*
X147385714Y-60505714D01*
X147528571Y-60505714D01*
X147623809Y-60553333D01*
X147671428Y-60648571D01*
X147671428Y-61172380D01*
X148576190Y-61124761D02*
X148480952Y-61172380D01*
X148290476Y-61172380D01*
X148195238Y-61124761D01*
X148147619Y-61077142D01*
X148100000Y-60981904D01*
X148100000Y-60696190D01*
X148147619Y-60600952D01*
X148195238Y-60553333D01*
X148290476Y-60505714D01*
X148480952Y-60505714D01*
X148576190Y-60553333D01*
X149147619Y-61172380D02*
X149052380Y-61124761D01*
X149004761Y-61077142D01*
X148957142Y-60981904D01*
X148957142Y-60696190D01*
X149004761Y-60600952D01*
X149052380Y-60553333D01*
X149147619Y-60505714D01*
X149290476Y-60505714D01*
X149385714Y-60553333D01*
X149433333Y-60600952D01*
X149480952Y-60696190D01*
X149480952Y-60981904D01*
X149433333Y-61077142D01*
X149385714Y-61124761D01*
X149290476Y-61172380D01*
X149147619Y-61172380D01*
X150338095Y-61172380D02*
X150338095Y-60172380D01*
X150338095Y-61124761D02*
X150242857Y-61172380D01*
X150052380Y-61172380D01*
X149957142Y-61124761D01*
X149909523Y-61077142D01*
X149861904Y-60981904D01*
X149861904Y-60696190D01*
X149909523Y-60600952D01*
X149957142Y-60553333D01*
X150052380Y-60505714D01*
X150242857Y-60505714D01*
X150338095Y-60553333D01*
X151195238Y-61124761D02*
X151100000Y-61172380D01*
X150909523Y-61172380D01*
X150814285Y-61124761D01*
X150766666Y-61029523D01*
X150766666Y-60648571D01*
X150814285Y-60553333D01*
X150909523Y-60505714D01*
X151100000Y-60505714D01*
X151195238Y-60553333D01*
X151242857Y-60648571D01*
X151242857Y-60743809D01*
X150766666Y-60839047D01*
X151671428Y-61172380D02*
X151671428Y-60505714D01*
X151671428Y-60696190D02*
X151719047Y-60600952D01*
X151766666Y-60553333D01*
X151861904Y-60505714D01*
X151957142Y-60505714D01*
X152052380Y-61267619D02*
X152814285Y-61267619D01*
X153004761Y-61124761D02*
X153147619Y-61172380D01*
X153385714Y-61172380D01*
X153480952Y-61124761D01*
X153528571Y-61077142D01*
X153576190Y-60981904D01*
X153576190Y-60886666D01*
X153528571Y-60791428D01*
X153480952Y-60743809D01*
X153385714Y-60696190D01*
X153195238Y-60648571D01*
X153100000Y-60600952D01*
X153052380Y-60553333D01*
X153004761Y-60458095D01*
X153004761Y-60362857D01*
X153052380Y-60267619D01*
X153100000Y-60220000D01*
X153195238Y-60172380D01*
X153433333Y-60172380D01*
X153576190Y-60220000D01*
X153909523Y-60505714D02*
X154100000Y-61172380D01*
X154290476Y-60696190D01*
X154480952Y-61172380D01*
X154671428Y-60505714D01*
X155052380Y-61172380D02*
X155052380Y-60505714D01*
X155052380Y-60172380D02*
X155004761Y-60220000D01*
X155052380Y-60267619D01*
X155100000Y-60220000D01*
X155052380Y-60172380D01*
X155052380Y-60267619D01*
X155385714Y-60505714D02*
X155766666Y-60505714D01*
X155528571Y-60172380D02*
X155528571Y-61029523D01*
X155576190Y-61124761D01*
X155671428Y-61172380D01*
X155766666Y-61172380D01*
X156528571Y-61124761D02*
X156433333Y-61172380D01*
X156242857Y-61172380D01*
X156147619Y-61124761D01*
X156100000Y-61077142D01*
X156052380Y-60981904D01*
X156052380Y-60696190D01*
X156100000Y-60600952D01*
X156147619Y-60553333D01*
X156242857Y-60505714D01*
X156433333Y-60505714D01*
X156528571Y-60553333D01*
X156957142Y-61172380D02*
X156957142Y-60172380D01*
X157385714Y-61172380D02*
X157385714Y-60648571D01*
X157338095Y-60553333D01*
X157242857Y-60505714D01*
X157100000Y-60505714D01*
X157004761Y-60553333D01*
X156957142Y-60600952D01*
%TO.C,U2*%
X131238095Y-89352380D02*
X131238095Y-90161904D01*
X131285714Y-90257142D01*
X131333333Y-90304761D01*
X131428571Y-90352380D01*
X131619047Y-90352380D01*
X131714285Y-90304761D01*
X131761904Y-90257142D01*
X131809523Y-90161904D01*
X131809523Y-89352380D01*
X132238095Y-89447619D02*
X132285714Y-89400000D01*
X132380952Y-89352380D01*
X132619047Y-89352380D01*
X132714285Y-89400000D01*
X132761904Y-89447619D01*
X132809523Y-89542857D01*
X132809523Y-89638095D01*
X132761904Y-89780952D01*
X132190476Y-90352380D01*
X132809523Y-90352380D01*
X126085714Y-88752380D02*
X125609523Y-88752380D01*
X125609523Y-87752380D01*
X126419047Y-88752380D02*
X126419047Y-87752380D01*
X126752380Y-88466666D01*
X127085714Y-87752380D01*
X127085714Y-88752380D01*
X127466666Y-87752380D02*
X128085714Y-87752380D01*
X127752380Y-88133333D01*
X127895238Y-88133333D01*
X127990476Y-88180952D01*
X128038095Y-88228571D01*
X128085714Y-88323809D01*
X128085714Y-88561904D01*
X128038095Y-88657142D01*
X127990476Y-88704761D01*
X127895238Y-88752380D01*
X127609523Y-88752380D01*
X127514285Y-88704761D01*
X127466666Y-88657142D01*
X129038095Y-88752380D02*
X128466666Y-88752380D01*
X128752380Y-88752380D02*
X128752380Y-87752380D01*
X128657142Y-87895238D01*
X128561904Y-87990476D01*
X128466666Y-88038095D01*
X129609523Y-88180952D02*
X129514285Y-88133333D01*
X129466666Y-88085714D01*
X129419047Y-87990476D01*
X129419047Y-87942857D01*
X129466666Y-87847619D01*
X129514285Y-87800000D01*
X129609523Y-87752380D01*
X129800000Y-87752380D01*
X129895238Y-87800000D01*
X129942857Y-87847619D01*
X129990476Y-87942857D01*
X129990476Y-87990476D01*
X129942857Y-88085714D01*
X129895238Y-88133333D01*
X129800000Y-88180952D01*
X129609523Y-88180952D01*
X129514285Y-88228571D01*
X129466666Y-88276190D01*
X129419047Y-88371428D01*
X129419047Y-88561904D01*
X129466666Y-88657142D01*
X129514285Y-88704761D01*
X129609523Y-88752380D01*
X129800000Y-88752380D01*
X129895238Y-88704761D01*
X129942857Y-88657142D01*
X129990476Y-88561904D01*
X129990476Y-88371428D01*
X129942857Y-88276190D01*
X129895238Y-88228571D01*
X129800000Y-88180952D01*
X130419047Y-88752380D02*
X130419047Y-87752380D01*
X130990476Y-88752380D01*
X130990476Y-87752380D01*
%TO.C,U3*%
X117038095Y-61952380D02*
X117038095Y-62761904D01*
X117085714Y-62857142D01*
X117133333Y-62904761D01*
X117228571Y-62952380D01*
X117419047Y-62952380D01*
X117514285Y-62904761D01*
X117561904Y-62857142D01*
X117609523Y-62761904D01*
X117609523Y-61952380D01*
X117990476Y-61952380D02*
X118609523Y-61952380D01*
X118276190Y-62333333D01*
X118419047Y-62333333D01*
X118514285Y-62380952D01*
X118561904Y-62428571D01*
X118609523Y-62523809D01*
X118609523Y-62761904D01*
X118561904Y-62857142D01*
X118514285Y-62904761D01*
X118419047Y-62952380D01*
X118133333Y-62952380D01*
X118038095Y-62904761D01*
X117990476Y-62857142D01*
X107861904Y-62852380D02*
X107861904Y-61852380D01*
X108195238Y-62566666D01*
X108528571Y-61852380D01*
X108528571Y-62852380D01*
X109576190Y-62757142D02*
X109528571Y-62804761D01*
X109385714Y-62852380D01*
X109290476Y-62852380D01*
X109147619Y-62804761D01*
X109052380Y-62709523D01*
X109004761Y-62614285D01*
X108957142Y-62423809D01*
X108957142Y-62280952D01*
X109004761Y-62090476D01*
X109052380Y-61995238D01*
X109147619Y-61900000D01*
X109290476Y-61852380D01*
X109385714Y-61852380D01*
X109528571Y-61900000D01*
X109576190Y-61947619D01*
X109909523Y-61852380D02*
X110576190Y-61852380D01*
X110147619Y-62852380D01*
X111004761Y-62852380D02*
X111195238Y-62852380D01*
X111290476Y-62804761D01*
X111338095Y-62757142D01*
X111433333Y-62614285D01*
X111480952Y-62423809D01*
X111480952Y-62042857D01*
X111433333Y-61947619D01*
X111385714Y-61900000D01*
X111290476Y-61852380D01*
X111100000Y-61852380D01*
X111004761Y-61900000D01*
X110957142Y-61947619D01*
X110909523Y-62042857D01*
X110909523Y-62280952D01*
X110957142Y-62376190D01*
X111004761Y-62423809D01*
X111100000Y-62471428D01*
X111290476Y-62471428D01*
X111385714Y-62423809D01*
X111433333Y-62376190D01*
X111480952Y-62280952D01*
X112433333Y-62852380D02*
X111861904Y-62852380D01*
X112147619Y-62852380D02*
X112147619Y-61852380D01*
X112052380Y-61995238D01*
X111957142Y-62090476D01*
X111861904Y-62138095D01*
X112814285Y-61947619D02*
X112861904Y-61900000D01*
X112957142Y-61852380D01*
X113195238Y-61852380D01*
X113290476Y-61900000D01*
X113338095Y-61947619D01*
X113385714Y-62042857D01*
X113385714Y-62138095D01*
X113338095Y-62280952D01*
X112766666Y-62852380D01*
X113385714Y-62852380D01*
%TO.C,U4*%
X136338095Y-62252380D02*
X136338095Y-63061904D01*
X136385714Y-63157142D01*
X136433333Y-63204761D01*
X136528571Y-63252380D01*
X136719047Y-63252380D01*
X136814285Y-63204761D01*
X136861904Y-63157142D01*
X136909523Y-63061904D01*
X136909523Y-62252380D01*
X137814285Y-62585714D02*
X137814285Y-63252380D01*
X137576190Y-62204761D02*
X137338095Y-62919047D01*
X137957142Y-62919047D01*
X130119952Y-61310666D02*
X130596142Y-61310666D01*
X130024714Y-61596380D02*
X130358047Y-60596380D01*
X130691380Y-61596380D01*
X131024714Y-61596380D02*
X131024714Y-60596380D01*
X131262809Y-60596380D01*
X131405666Y-60644000D01*
X131500904Y-60739238D01*
X131548523Y-60834476D01*
X131596142Y-61024952D01*
X131596142Y-61167809D01*
X131548523Y-61358285D01*
X131500904Y-61453523D01*
X131405666Y-61548761D01*
X131262809Y-61596380D01*
X131024714Y-61596380D01*
X132072333Y-61596380D02*
X132262809Y-61596380D01*
X132358047Y-61548761D01*
X132405666Y-61501142D01*
X132500904Y-61358285D01*
X132548523Y-61167809D01*
X132548523Y-60786857D01*
X132500904Y-60691619D01*
X132453285Y-60644000D01*
X132358047Y-60596380D01*
X132167571Y-60596380D01*
X132072333Y-60644000D01*
X132024714Y-60691619D01*
X131977095Y-60786857D01*
X131977095Y-61024952D01*
X132024714Y-61120190D01*
X132072333Y-61167809D01*
X132167571Y-61215428D01*
X132358047Y-61215428D01*
X132453285Y-61167809D01*
X132500904Y-61120190D01*
X132548523Y-61024952D01*
X133119952Y-61024952D02*
X133024714Y-60977333D01*
X132977095Y-60929714D01*
X132929476Y-60834476D01*
X132929476Y-60786857D01*
X132977095Y-60691619D01*
X133024714Y-60644000D01*
X133119952Y-60596380D01*
X133310428Y-60596380D01*
X133405666Y-60644000D01*
X133453285Y-60691619D01*
X133500904Y-60786857D01*
X133500904Y-60834476D01*
X133453285Y-60929714D01*
X133405666Y-60977333D01*
X133310428Y-61024952D01*
X133119952Y-61024952D01*
X133024714Y-61072571D01*
X132977095Y-61120190D01*
X132929476Y-61215428D01*
X132929476Y-61405904D01*
X132977095Y-61501142D01*
X133024714Y-61548761D01*
X133119952Y-61596380D01*
X133310428Y-61596380D01*
X133405666Y-61548761D01*
X133453285Y-61501142D01*
X133500904Y-61405904D01*
X133500904Y-61215428D01*
X133453285Y-61120190D01*
X133405666Y-61072571D01*
X133310428Y-61024952D01*
X133834238Y-60596380D02*
X134453285Y-60596380D01*
X134119952Y-60977333D01*
X134262809Y-60977333D01*
X134358047Y-61024952D01*
X134405666Y-61072571D01*
X134453285Y-61167809D01*
X134453285Y-61405904D01*
X134405666Y-61501142D01*
X134358047Y-61548761D01*
X134262809Y-61596380D01*
X133977095Y-61596380D01*
X133881857Y-61548761D01*
X133834238Y-61501142D01*
X134786619Y-60596380D02*
X135405666Y-60596380D01*
X135072333Y-60977333D01*
X135215190Y-60977333D01*
X135310428Y-61024952D01*
X135358047Y-61072571D01*
X135405666Y-61167809D01*
X135405666Y-61405904D01*
X135358047Y-61501142D01*
X135310428Y-61548761D01*
X135215190Y-61596380D01*
X134929476Y-61596380D01*
X134834238Y-61548761D01*
X134786619Y-61501142D01*
X135739000Y-61596380D02*
X136262809Y-60929714D01*
X135739000Y-60929714D02*
X136262809Y-61596380D01*
X137215190Y-61596380D02*
X136881857Y-61120190D01*
X136643761Y-61596380D02*
X136643761Y-60596380D01*
X137024714Y-60596380D01*
X137119952Y-60644000D01*
X137167571Y-60691619D01*
X137215190Y-60786857D01*
X137215190Y-60929714D01*
X137167571Y-61024952D01*
X137119952Y-61072571D01*
X137024714Y-61120190D01*
X136643761Y-61120190D01*
X137643761Y-61596380D02*
X137643761Y-60596380D01*
X137977095Y-61310666D01*
X138310428Y-60596380D01*
X138310428Y-61596380D01*
%TO.C,X1*%
X132690476Y-69552380D02*
X133357142Y-70552380D01*
X133357142Y-69552380D02*
X132690476Y-70552380D01*
X134261904Y-70552380D02*
X133690476Y-70552380D01*
X133976190Y-70552380D02*
X133976190Y-69552380D01*
X133880952Y-69695238D01*
X133785714Y-69790476D01*
X133690476Y-69838095D01*
%TO.C,DS1*%
X104385714Y-58352380D02*
X104385714Y-57352380D01*
X104623809Y-57352380D01*
X104766666Y-57400000D01*
X104861904Y-57495238D01*
X104909523Y-57590476D01*
X104957142Y-57780952D01*
X104957142Y-57923809D01*
X104909523Y-58114285D01*
X104861904Y-58209523D01*
X104766666Y-58304761D01*
X104623809Y-58352380D01*
X104385714Y-58352380D01*
X105338095Y-58304761D02*
X105480952Y-58352380D01*
X105719047Y-58352380D01*
X105814285Y-58304761D01*
X105861904Y-58257142D01*
X105909523Y-58161904D01*
X105909523Y-58066666D01*
X105861904Y-57971428D01*
X105814285Y-57923809D01*
X105719047Y-57876190D01*
X105528571Y-57828571D01*
X105433333Y-57780952D01*
X105385714Y-57733333D01*
X105338095Y-57638095D01*
X105338095Y-57542857D01*
X105385714Y-57447619D01*
X105433333Y-57400000D01*
X105528571Y-57352380D01*
X105766666Y-57352380D01*
X105909523Y-57400000D01*
X106861904Y-58352380D02*
X106290476Y-58352380D01*
X106576190Y-58352380D02*
X106576190Y-57352380D01*
X106480952Y-57495238D01*
X106385714Y-57590476D01*
X106290476Y-57638095D01*
X94680952Y-55652380D02*
X94204761Y-55652380D01*
X94204761Y-54652380D01*
X95585714Y-55557142D02*
X95538095Y-55604761D01*
X95395238Y-55652380D01*
X95300000Y-55652380D01*
X95157142Y-55604761D01*
X95061904Y-55509523D01*
X95014285Y-55414285D01*
X94966666Y-55223809D01*
X94966666Y-55080952D01*
X95014285Y-54890476D01*
X95061904Y-54795238D01*
X95157142Y-54700000D01*
X95300000Y-54652380D01*
X95395238Y-54652380D01*
X95538095Y-54700000D01*
X95585714Y-54747619D01*
X96014285Y-55652380D02*
X96014285Y-54652380D01*
X96252380Y-54652380D01*
X96395238Y-54700000D01*
X96490476Y-54795238D01*
X96538095Y-54890476D01*
X96585714Y-55080952D01*
X96585714Y-55223809D01*
X96538095Y-55414285D01*
X96490476Y-55509523D01*
X96395238Y-55604761D01*
X96252380Y-55652380D01*
X96014285Y-55652380D01*
X97538095Y-55652380D02*
X96966666Y-55652380D01*
X97252380Y-55652380D02*
X97252380Y-54652380D01*
X97157142Y-54795238D01*
X97061904Y-54890476D01*
X96966666Y-54938095D01*
X98395238Y-54652380D02*
X98204761Y-54652380D01*
X98109523Y-54700000D01*
X98061904Y-54747619D01*
X97966666Y-54890476D01*
X97919047Y-55080952D01*
X97919047Y-55461904D01*
X97966666Y-55557142D01*
X98014285Y-55604761D01*
X98109523Y-55652380D01*
X98300000Y-55652380D01*
X98395238Y-55604761D01*
X98442857Y-55557142D01*
X98490476Y-55461904D01*
X98490476Y-55223809D01*
X98442857Y-55128571D01*
X98395238Y-55080952D01*
X98300000Y-55033333D01*
X98109523Y-55033333D01*
X98014285Y-55080952D01*
X97966666Y-55128571D01*
X97919047Y-55223809D01*
X98823809Y-55652380D02*
X99347619Y-54985714D01*
X98823809Y-54985714D02*
X99347619Y-55652380D01*
X99680952Y-54747619D02*
X99728571Y-54700000D01*
X99823809Y-54652380D01*
X100061904Y-54652380D01*
X100157142Y-54700000D01*
X100204761Y-54747619D01*
X100252380Y-54842857D01*
X100252380Y-54938095D01*
X100204761Y-55080952D01*
X99633333Y-55652380D01*
X100252380Y-55652380D01*
X100442857Y-55747619D02*
X101204761Y-55747619D01*
X101442857Y-55652380D02*
X101442857Y-54652380D01*
X101871428Y-54747619D02*
X101919047Y-54700000D01*
X102014285Y-54652380D01*
X102252380Y-54652380D01*
X102347619Y-54700000D01*
X102395238Y-54747619D01*
X102442857Y-54842857D01*
X102442857Y-54938095D01*
X102395238Y-55080952D01*
X101823809Y-55652380D01*
X102442857Y-55652380D01*
X103442857Y-55557142D02*
X103395238Y-55604761D01*
X103252380Y-55652380D01*
X103157142Y-55652380D01*
X103014285Y-55604761D01*
X102919047Y-55509523D01*
X102871428Y-55414285D01*
X102823809Y-55223809D01*
X102823809Y-55080952D01*
X102871428Y-54890476D01*
X102919047Y-54795238D01*
X103014285Y-54700000D01*
X103157142Y-54652380D01*
X103252380Y-54652380D01*
X103395238Y-54700000D01*
X103442857Y-54747619D01*
%TO.C,U1*%
X116938095Y-91352380D02*
X116938095Y-92161904D01*
X116985714Y-92257142D01*
X117033333Y-92304761D01*
X117128571Y-92352380D01*
X117319047Y-92352380D01*
X117414285Y-92304761D01*
X117461904Y-92257142D01*
X117509523Y-92161904D01*
X117509523Y-91352380D01*
X118509523Y-92352380D02*
X117938095Y-92352380D01*
X118223809Y-92352380D02*
X118223809Y-91352380D01*
X118128571Y-91495238D01*
X118033333Y-91590476D01*
X117938095Y-91638095D01*
X109261904Y-92252380D02*
X109261904Y-91252380D01*
X109595238Y-91966666D01*
X109928571Y-91252380D01*
X109928571Y-92252380D01*
X110976190Y-92157142D02*
X110928571Y-92204761D01*
X110785714Y-92252380D01*
X110690476Y-92252380D01*
X110547619Y-92204761D01*
X110452380Y-92109523D01*
X110404761Y-92014285D01*
X110357142Y-91823809D01*
X110357142Y-91680952D01*
X110404761Y-91490476D01*
X110452380Y-91395238D01*
X110547619Y-91300000D01*
X110690476Y-91252380D01*
X110785714Y-91252380D01*
X110928571Y-91300000D01*
X110976190Y-91347619D01*
X111309523Y-91252380D02*
X111976190Y-91252380D01*
X111547619Y-92252380D01*
X112500000Y-91680952D02*
X112404761Y-91633333D01*
X112357142Y-91585714D01*
X112309523Y-91490476D01*
X112309523Y-91442857D01*
X112357142Y-91347619D01*
X112404761Y-91300000D01*
X112500000Y-91252380D01*
X112690476Y-91252380D01*
X112785714Y-91300000D01*
X112833333Y-91347619D01*
X112880952Y-91442857D01*
X112880952Y-91490476D01*
X112833333Y-91585714D01*
X112785714Y-91633333D01*
X112690476Y-91680952D01*
X112500000Y-91680952D01*
X112404761Y-91728571D01*
X112357142Y-91776190D01*
X112309523Y-91871428D01*
X112309523Y-92061904D01*
X112357142Y-92157142D01*
X112404761Y-92204761D01*
X112500000Y-92252380D01*
X112690476Y-92252380D01*
X112785714Y-92204761D01*
X112833333Y-92157142D01*
X112880952Y-92061904D01*
X112880952Y-91871428D01*
X112833333Y-91776190D01*
X112785714Y-91728571D01*
X112690476Y-91680952D01*
X113833333Y-92252380D02*
X113261904Y-92252380D01*
X113547619Y-92252380D02*
X113547619Y-91252380D01*
X113452380Y-91395238D01*
X113357142Y-91490476D01*
X113261904Y-91538095D01*
X114214285Y-91347619D02*
X114261904Y-91300000D01*
X114357142Y-91252380D01*
X114595238Y-91252380D01*
X114690476Y-91300000D01*
X114738095Y-91347619D01*
X114785714Y-91442857D01*
X114785714Y-91538095D01*
X114738095Y-91680952D01*
X114166666Y-92252380D01*
X114785714Y-92252380D01*
%TO.C,SW1*%
X81766666Y-72304761D02*
X81909523Y-72352380D01*
X82147619Y-72352380D01*
X82242857Y-72304761D01*
X82290476Y-72257142D01*
X82338095Y-72161904D01*
X82338095Y-72066666D01*
X82290476Y-71971428D01*
X82242857Y-71923809D01*
X82147619Y-71876190D01*
X81957142Y-71828571D01*
X81861904Y-71780952D01*
X81814285Y-71733333D01*
X81766666Y-71638095D01*
X81766666Y-71542857D01*
X81814285Y-71447619D01*
X81861904Y-71400000D01*
X81957142Y-71352380D01*
X82195238Y-71352380D01*
X82338095Y-71400000D01*
X82671428Y-71352380D02*
X82909523Y-72352380D01*
X83100000Y-71638095D01*
X83290476Y-72352380D01*
X83528571Y-71352380D01*
X84433333Y-72352380D02*
X83861904Y-72352380D01*
X84147619Y-72352380D02*
X84147619Y-71352380D01*
X84052380Y-71495238D01*
X83957142Y-71590476D01*
X83861904Y-71638095D01*
%TD*%
M02*
